<svg width="636.7" height="444.62000000000006" xmlns="http://www.w3.org/2000/svg">
 <defs>
  <style>.cls-1{isolation:isolate;}.cls-2{fill:#5da5fd;}.cls-2,.cls-53{opacity:0.2;}.cls-2,.cls-52,.cls-53,.cls-59{mix-blend-mode:multiply;}.cls-3{fill:none;stroke:#3483ef;stroke-miterlimit:10;}.cls-4{fill:#3483ef;}.cls-5{fill:#e9faff;}.cls-6{fill:#ffad97;}.cls-7{fill:#4d4d4d;}.cls-8{fill:#5d588d;}.cls-9{fill:#d1406b;}.cls-10{fill:#ef4f77;}.cls-11{fill:#fff;}.cls-12{fill:#7c76ac;}.cls-13{fill:#ffc5b3;}.cls-14{fill:#dba763;}.cls-15{fill:#e8b679;}.cls-16{fill:#ffe1c0;}.cls-17{fill:#6d6d6d;}.cls-18{fill:#ffba76;}.cls-19{fill:#ffa543;}.cls-20{fill:#afafaf;}.cls-21{fill:#3a3a3a;}.cls-22{fill:#d3d3d3;}.cls-23{fill:#7c7c7c;}.cls-24{fill:#707070;}.cls-25{fill:#c1c1c1;}.cls-26{fill:#ddd;}.cls-27{fill:#cc8c46;}.cls-28{fill:#d89c55;}.cls-29{fill:#e8b470;}.cls-30{fill:#fc6181;}.cls-31{fill:#bf7e3d;}.cls-32{fill:#ed8e2f;}.cls-33{fill:#c96a1c;}.cls-34{fill:#d87923;}.cls-35{fill:#a3a3a3;}.cls-36{fill:#97a9dd;}.cls-37{fill:#8583b7;}.cls-38{fill:url(#linear-gradient);}.cls-39{fill:url(#linear-gradient-2);}.cls-40{fill:#222b2e;}.cls-41{fill:url(#linear-gradient-3);}.cls-42{fill:url(#linear-gradient-4);}.cls-43{fill:#0d1417;}.cls-44{fill:url(#linear-gradient-5);}.cls-45{fill:url(#linear-gradient-6);}.cls-46{fill:url(#linear-gradient-7);}.cls-47{fill:url(#linear-gradient-8);}.cls-48{fill:url(#linear-gradient-9);}.cls-49{fill:url(#linear-gradient-10);}.cls-50{fill:url(#linear-gradient-11);}.cls-51{fill:#518dca;}.cls-52{opacity:0.4;fill:url(#ÕÓ_È_Ó·_ÁÂ_ËÂÌÚ_2);}.cls-54,.cls-84{fill:#2e373a;}.cls-54,.cls-55,.cls-56,.cls-57{fill-rule:evenodd;}.cls-56{fill:#0e2841;}.cls-57,.cls-65{fill:#1c354e;}.cls-58{fill:#273438;}.cls-59{fill:#d78d68;opacity:0.15;}.cls-60{fill:#d4dbdf;}.cls-61{fill:#b52025;}.cls-62{fill:#344246;}.cls-63{fill:#e1e7eb;}.cls-64{fill:#414f53;}.cls-66{fill:#2e383b;}.cls-67{fill:#f1a882;}.cls-68{fill:#bac1c5;}.cls-69{fill:#d3dade;}.cls-70{fill:#eef5f8;}.cls-71{fill:#f7fbff;}.cls-72{fill:#151f22;}.cls-73{fill:#545f64;}.cls-74{fill:#626b6f;}.cls-75{fill:#3c4447;}.cls-76{fill:url(#linear-gradient-12);}.cls-77{fill:#c6cbcc;}.cls-78{fill:url(#linear-gradient-13);}.cls-79{fill:#293033;}.cls-80{fill:#6f787b;}.cls-81{fill:#babec0;}.cls-82{fill:url(#linear-gradient-14);}.cls-83{fill:#353f42;}.cls-85{fill:url(#linear-gradient-15);}.cls-86{fill:#2a373b;}.cls-87{fill:#3c4548;}.cls-88{fill:#161f21;}.cls-89{fill:url(#linear-gradient-16);}.cls-90{fill:#30393c;}.cls-91{fill:#a0a4a7;}.cls-92{fill:url(#linear-gradient-17);}.cls-93{fill:#878c8d;}.cls-94{fill:url(#linear-gradient-18);}.cls-95{fill:#80848a;}.cls-96{fill:url(#linear-gradient-19);}</style>
 </defs>
 <g>
  <title>background</title>
  <rect x="-1" y="-1" width="638.7" height="446.62" id="canvas_background" fill="none"/>
 </g>
 <g>
  <title>Layer 1</title>
  <g id="svg_1296">
   <path class="cls-5" d="m241.190013,237.789665l73.41,-42.39a8.35,8.35 0 0 1 7.5,0l73.42,42.39a2.64,2.64 0 0 1 1.55,2.17l0,4.63a2.64,2.64 0 0 1 -1.55,2.17l-73.46,42.38a8.26,8.26 0 0 1 -7.5,0l-73.37,-42.35a2.64,2.64 0 0 1 -1.56,-2.17l0,-4.63a2.64,2.64 0 0 1 1.56,-2.2z" id="svg_117"/>
   <path class="cls-2" d="m241.190013,242.119665l73.41,42.39a8.35,8.35 0 0 0 7.5,0l73.42,-42.39a2.64,2.64 0 0 0 1.55,-2.16l0,4.63a2.64,2.64 0 0 1 -1.55,2.17l-73.46,42.38a8.26,8.26 0 0 1 -7.5,0l-73.37,-42.35a2.64,2.64 0 0 1 -1.56,-2.17l0,-4.63a2.64,2.64 0 0 0 1.56,2.13z" id="svg_118"/>
   <path class="cls-7" d="m327.820013,230.789665c1.25,-1.21 2.18,-2.23 2.18,-2.23l5.68,-0.24l0,1.88a2.35,2.35 0 0 1 -1.05,1.33a23.66,23.66 0 0 1 -3.57,1.89a21.25,21.25 0 0 1 -4.75,1c-1.19,0 -1.7,-0.51 -1.08,-1.12c1.08,-1.02 1.44,-1.34 2.59,-2.51z" id="svg_269"/>
   <path class="cls-7" d="m344.840013,230.939665l5.12,-0.58a13.35,13.35 0 0 1 -0.49,6.61c-1.19,3.36 -3.3,3.39 -4,3.12s-1.08,-2.4 -0.95,-4.81s0.32,-4.34 0.32,-4.34z" id="svg_270"/>
   <path class="cls-8" d="m333.420013,188.299665s12.38,-3.78 12.08,-1.46c0,0 2.75,3.45 2.31,10.34c-0.21,3.16 0.07,11 0.33,16.46a53.29,53.29 0 0 1 3.8,15.41s0.49,1.38 -2,2.62s-6.08,-0.05 -6.08,-0.05s0,-10.65 -2.87,-16.7c-1.57,-3.3 -2,-14.75 -2,-14.75l-2.47,12.27l-0.22,15.56a6.41,6.41 0 0 1 -3.86,1.79c-2.78,0 -2.92,-1.61 -2.92,-1.61s-0.46,-13.39 0.62,-20.84c0.97,-6.55 3.28,-19.04 3.28,-19.04z" id="svg_271"/>
   <path class="cls-25" d="m334.660013,165.519665a17.65,17.65 0 0 0 -3.45,4c-0.38,0.65 -2,3.81 -3,6c-1.4,0 -6.18,-0.51 -7.42,-0.51l-1.79,0s0.36,1.65 0,2.21a8.26,8.26 0 0 0 -0.67,1.59a8.91,8.91 0 0 0 4,1.8c2.62,0.56 6.61,1.54 8.57,0.67s2.39,-5.54 2.58,-6.23c0.33,-2.89 2.07,-7.69 4.09,-9.56a2.67,2.67 0 0 0 -2.91,0.03z" id="svg_272"/>
   <path class="cls-26" d="m336.520013,166.119665s-3.69,3 -4.13,7.19c-0.1,1 0.09,4.91 -0.13,8.06c-0.24,3.33 -0.4,5.5 0.18,6.59c0.69,1.32 3.14,2.6 5.55,3c2.72,0.49 5.82,-0.33 7.88,-0.64c2.25,-1.43 0.86,-3.71 1.06,-5.2c0.61,-4.69 1.52,-12.26 1.35,-13.49c-0.27,-2.08 -5,-4.32 -5,-4.32s-3.3,-2.52 -6.76,-1.19z" id="svg_273"/>
   <path class="cls-8" d="m337.060013,170.239665l-0.26,2.05a42.23,42.23 0 0 0 -1.41,4.64c-0.26,1.43 -0.78,7.63 -0.78,7.63l0.88,2.44l1.72,-1.34l0.8,-12.82l1.28,-1.54l-1.23,-1.42l-1,0.36z" id="svg_274"/>
   <path class="cls-6" d="m337.840013,165.989665l-0.22,3.24a8.52,8.52 0 0 0 1.52,1.57c1.18,-0.36 3.9,-2.89 3.9,-2.89l-0.91,-5l-4.29,3.08z" id="svg_275"/>
   <path class="cls-13" d="m342.630013,157.329665a4.26,4.26 0 0 0 -7,0.52c-2.4,3.55 -0.13,9.35 2,9a8.17,8.17 0 0 0 5,-3.16c1.25,-2.12 0.95,-5.15 0,-6.36z" id="svg_276"/>
   <path class="cls-11" d="m337.780013,166.869665l0.27,3l-2.14,0.87s-0.22,-3.17 1.87,-3.87z" id="svg_277"/>
   <path class="cls-11" d="m342.720013,166.119665a16,16 0 0 1 -2,2.31a7.41,7.41 0 0 1 -2.68,1.45l0.8,2.41a16.79,16.79 0 0 0 4,-2.53s1.33,-2.22 -0.12,-3.64z" id="svg_278"/>
   <path class="cls-7" d="m337.830013,157.839665a10.45,10.45 0 0 1 4.75,3.46c0.45,0.39 0,2.4 0,2.4a5.49,5.49 0 0 0 1.69,-3.9c0,-1.53 -1.34,-4.83 -4.13,-5.18s-6,1.68 -4.75,3.62a2.59,2.59 0 0 1 2.44,-0.4z" id="svg_279"/>
   <path class="cls-7" d="m334.700013,158.039665a2.25,2.25 0 0 0 0,0.58l0.1,1.11a2.72,2.72 0 0 1 0.48,-1a0.7,0.7 0 0 1 0.5,-0.34a0.85,0.85 0 0 1 0.38,0.12a7.8,7.8 0 0 0 1.72,0.89c0.46,0.12 1,0.08 1.4,0.21a3,3 0 0 1 0.8,0.41a1.64,1.64 0 0 1 0.65,0.68c0.19,0.45 0,1 0.34,1.41a0.38,0.38 0 0 0 0.3,0.15c0.28,0 0.36,-0.4 0.58,-0.56a1.93,1.93 0 0 1 0.4,-0.15a1.22,1.22 0 0 0 0.64,-0.73a2.76,2.76 0 0 0 -0.23,-2.31a4.54,4.54 0 0 0 -1.7,-1.64a6.15,6.15 0 0 0 -3.77,-0.84c-1.18,0.13 -2.44,0.64 -2.59,2.01z" id="svg_280"/>
   <path class="cls-25" d="m350.150013,181.069665c0.71,-5 0.41,-9.4 -2.31,-11.19c-2,-1.31 -2.6,4.87 -3.13,8.82c-0.13,0.95 -1,5.32 -1.25,6.36a22.66,22.66 0 0 0 -6.61,4.16a6.59,6.59 0 0 1 1.66,3.65c3,-0.66 6.49,-1.34 8.42,-3.44s2.89,-6.01 3.22,-8.36z" id="svg_281"/>
   <polygon class="cls-27" points="327.4800109863281,192.14965057373047 334.58001708984375,196.30965423583984 328.55999755859375,186.09966278076172 321.45001220703125,181.93965911865234 327.4800109863281,192.14965057373047 " id="svg_282"/>
   <polygon class="cls-28" points="334.58001708984375,196.30965423583984 335.2400207519531,195.90966033935547 329.22003173828125,185.68965911865234 328.55999755859375,186.09966278076172 334.58001708984375,196.30965423583984 " id="svg_283"/>
   <polygon class="cls-29" points="321.45001220703125,181.93965911865234 322.1100158691406,181.52965545654297 329.22003173828125,185.68965911865234 328.55999755859375,186.09966278076172 321.45001220703125,181.93965911865234 " id="svg_284"/>
   <path class="cls-13" d="m338.060013,192.169665a10.87,10.87 0 0 1 -1.54,1.33a6.11,6.11 0 0 1 -4.14,1a6.18,6.18 0 0 1 -3.49,-2.2a0.89,0.89 0 0 1 0.31,-1.39c0.73,-0.49 2.23,0.19 3.13,0.11a4,4 0 0 1 -0.51,-0.86a11,11 0 0 1 3.19,0s2.92,-0.88 3.05,2.01z" id="svg_285"/>
   <path class="cls-11" d="m343.860013,176.959665l-3.69,-1.54s-1.13,3.65 1.25,4.62s2.44,-3.08 2.44,-3.08z" id="svg_286"/>
   <path class="cls-11" d="m335.560013,173.679665l-2.6,-1.27s-0.9,3.66 0.77,4.24c1.33,0.46 1.83,-2.97 1.83,-2.97z" id="svg_287"/>
   <path class="cls-11" d="m336.850013,189.219665a3.26,3.26 0 0 1 1.43,1.78c0.53,1.37 0.23,1.87 0.23,1.87l-2,0.79a9.55,9.55 0 0 0 -0.54,-2.25a2.93,2.93 0 0 0 -1,-1.23l1.88,-0.96z" id="svg_288"/>
   <path class="cls-13" d="m318.660013,175.149665a36.31,36.31 0 0 0 -4.07,-0.85c-1.62,-0.18 -1.89,-0.14 -2.22,0.05s0.14,0.46 0.6,0.55s0.42,0.51 0.14,0.6a9.26,9.26 0 0 0 -3,0.88c-1.29,0.74 -0.49,1.51 0.72,2.1s4.06,-0.27 5.17,-0.57a3.43,3.43 0 0 1 2.17,0.32a4.11,4.11 0 0 0 0.49,-3.08z" id="svg_289"/>
   <path class="cls-26" d="m319.670013,174.939665a8.5,8.5 0 0 1 0,2.06a7.42,7.42 0 0 1 -0.93,2.06l-1.54,-1a12.8,12.8 0 0 0 0.62,-1.58a3.06,3.06 0 0 0 0,-1.7l1.85,0.16z" id="svg_290"/>
   <polygon class="cls-14" points="304.4300231933594,209.77965545654297 304.4200134277344,201.16967010498047 316.9300231933594,193.93965911865234 316.9300231933594,202.53966522216797 304.4300231933594,209.77965545654297 " id="svg_291"/>
   <polygon class="cls-15" points="304.4300231933594,209.77965545654297 304.4200134277344,201.16967010498047 291.9200134277344,193.93965911865234 291.9200134277344,202.53966522216797 304.4300231933594,209.77965545654297 " id="svg_292"/>
   <polygon class="cls-16" points="291.9200134277344,193.93965911865234 304.4200134277344,201.15966033935547 316.9300231933594,193.93965911865234 304.4300231933594,186.70967864990234 291.9200134277344,193.93965911865234 " id="svg_293"/>
   <polygon class="cls-7" points="312.280029296875,201.16967010498047 309.4900207519531,202.78966522216797 309.4900207519531,198.22966766357422 312.280029296875,196.60967254638672 312.280029296875,201.16967010498047 " id="svg_294"/>
   <polygon class="cls-17" points="312.280029296875,196.60967254638672 299.7900085449219,189.3896713256836 297,190.9996566772461 309.4900207519531,198.22966766357422 312.280029296875,196.60967254638672 " id="svg_295"/>
   <polygon class="cls-7" points="306.08001708984375,207.53966522216797 306.08001708984375,206.73967742919922 310.280029296875,204.29967498779297 310.280029296875,205.1196517944336 306.08001708984375,207.53966522216797 " id="svg_296"/>
   <polygon class="cls-7" points="306.08001708984375,206.09966278076172 306.08001708984375,205.29967498779297 310.280029296875,202.8696517944336 310.280029296875,203.67967987060547 306.08001708984375,206.09966278076172 " id="svg_297"/>
   <polygon class="cls-7" points="314.0400085449219,200.2496566772461 314.0400085449219,203.03966522216797 316.0500183105469,201.8696517944336 316.0500183105469,199.07967376708984 314.0400085449219,200.2496566772461 " id="svg_298"/>
   <polygon class="cls-7" points="294.44000244140625,200.41967010498047 294.44000244140625,203.32967376708984 292.4300231933594,202.16967010498047 292.4300231933594,199.2596664428711 294.44000244140625,200.41967010498047 " id="svg_299"/>
   <polygon class="cls-7" points="297.1800231933594,202.0096664428711 297.1800231933594,204.91967010498047 295.1700134277344,203.7596664428711 295.1700134277344,200.84966278076172 297.1800231933594,202.0096664428711 " id="svg_300"/>
   <polygon class="cls-11" points="303.8800048828125,201.5196762084961 303.8800048828125,205.69966888427734 299.760009765625,203.31966400146484 299.760009765625,199.1296615600586 303.8800048828125,201.5196762084961 " id="svg_301"/>
   <polygon class="cls-7" points="303.3800048828125,202.3796615600586 303.3800048828125,201.69966888427734 300.1300048828125,199.82967376708984 300.1300048828125,200.48967742919922 303.3800048828125,202.3796615600586 " id="svg_302"/>
   <polygon class="cls-14" points="304.6000061035156,199.39965057373047 304.59002685546875,194.2696762084961 312.80999755859375,189.5196762084961 312.80999755859375,194.64965057373047 304.6000061035156,199.39965057373047 " id="svg_303"/>
   <polygon class="cls-15" points="304.6000061035156,199.39965057373047 304.59002685546875,194.2696762084961 295,188.71965789794922 295,193.84966278076172 304.6000061035156,199.39965057373047 " id="svg_304"/>
   <polygon class="cls-16" points="295,188.71965789794922 304.59002685546875,194.2696762084961 312.80999755859375,189.5196762084961 303.22003173828125,183.97966766357422 295,188.71965789794922 " id="svg_305"/>
   <polygon class="cls-7" points="305.21002197265625,198.45967864990234 305.21002197265625,197.92967987060547 307.97003173828125,196.32967376708984 307.97003173828125,196.8696517944336 305.21002197265625,198.45967864990234 " id="svg_306"/>
   <polygon class="cls-7" points="305.21002197265625,197.5096664428711 305.21002197265625,196.97966766357422 307.97003173828125,195.3896713256836 307.97003173828125,195.91967010498047 305.21002197265625,197.5096664428711 " id="svg_307"/>
   <polygon class="cls-7" points="297.0500183105469,190.79967498779297 297.0500183105469,193.18965911865234 295.4100036621094,192.23967742919922 295.4100036621094,189.84966278076172 297.0500183105469,190.79967498779297 " id="svg_308"/>
   <polygon class="cls-11" points="303.95001220703125,194.79967498779297 303.95001220703125,197.64965057373047 299.75,195.21965789794922 299.75,192.3696517944336 303.95001220703125,194.79967498779297 " id="svg_309"/>
   <polygon class="cls-7" points="303.44000244140625,195.66967010498047 303.44000244140625,194.97966766357422 300.1300048828125,193.07967376708984 300.1300048828125,193.7596664428711 303.44000244140625,195.66967010498047 " id="svg_310"/>
   <polygon class="cls-7" points="310.7300109863281,193.40966033935547 307.9000244140625,195.05965423583984 307.9000244140625,192.35967254638672 310.7300109863281,190.70967864990234 310.7300109863281,193.40966033935547 " id="svg_311"/>
   <polygon class="cls-17" points="310.7300109863281,190.70967864990234 301.1500244140625,185.16967010498047 298.30999755859375,186.80965423583984 307.9000244140625,192.35967254638672 310.7300109863281,190.70967864990234 " id="svg_312"/>
   <path class="cls-13" d="m292.000013,201.409665c1,-3.32 1.48,-7 -0.17,-9.66l-3.59,0.09a26.09,26.09 0 0 0 -1.82,5.5a4.94,4.94 0 0 0 1.11,4.58c0.93,1.11 4.26,-0.37 4.39,-0.46l0.08,-0.05z" id="svg_313"/>
   <path class="cls-7" d="m301.820013,252.899665s3.85,-1.72 5.76,-1.8s2.09,2.16 0,3.89s-3.69,2 -5.4,2.67c-1.54,0.64 -2.1,0.69 -3.33,-0.11c-1.64,-1.06 -0.32,-3.88 -0.32,-3.88l3.29,-0.77z" id="svg_314"/>
   <path class="cls-7" d="m290.680013,246.299665a19.3,19.3 0 0 1 5,-1.36c1.9,-0.08 2.59,1.56 0.5,3.3a15.77,15.77 0 0 1 -5.12,2.82c-1.54,0.64 -2.09,0.67 -3.33,-0.11c-1.68,-1.07 -0.37,-3.88 -0.32,-3.88l3.27,-0.77z" id="svg_315"/>
   <path class="cls-8" d="m302.060013,208.349665s3.37,18.16 3.37,23.87c0,10.05 -0.09,20.65 -0.09,20.65s-1.67,1.75 -3.29,1.75c-3.65,0 -4,-1.83 -4,-1.83s0,-12 -0.37,-17.43c-0.22,-3.79 -0.44,-9.12 -2,-13.53c0,4.53 0,6 -0.4,10.9c-0.27,3.63 -1.79,13.38 -1.87,14c-1.16,1.4 -4.75,2.37 -6.56,0.32c0.14,-1.6 1.15,-12.87 1,-18.7c-0.12,-5.37 -1.49,-18.07 1.57,-20.55c2.69,-2.13 12.64,0.55 12.64,0.55z" id="svg_316"/>
   <path class="cls-9" d="m292.770013,196.789665a24,24 0 0 0 -0.57,-4.23l1.78,-5.69a3.53,3.53 0 0 0 -4.2,0.75a39.51,39.51 0 0 0 -3.12,5.71a7.26,7.26 0 0 0 6.11,3.46z" id="svg_317"/>
   <path class="cls-13" d="m297.770013,175.699665a3.54,3.54 0 0 0 -5,1.72c-0.61,1.31 0.26,4.83 0.4,7.29a6,6 0 0 1 -0.56,3.15l1.71,0.7a5.19,5.19 0 0 0 3.49,0l-0.06,-3a7.89,7.89 0 0 0 2.16,-0.57c0.78,-0.71 1.19,-2.82 0.83,-5.54c-0.58,-4.1 -2.48,-3.41 -2.97,-3.75z" id="svg_318"/>
   <path class="cls-30" d="m302.380013,197.489665c1,-2.15 -1.28,-6.05 -1.92,-7.46a5.78,5.78 0 0 0 -2.69,-2.24a34.77,34.77 0 0 0 -3.79,-1.17c-0.42,-0.06 -1.9,-0.16 -1.9,-0.16s-3.26,5.14 -3.62,8c-0.26,2 0.82,8.45 0,14.82c-0.42,3.38 12.3,2.43 13.42,1.05c-0.63,-3.24 -1.56,-8.44 0.5,-12.84z" id="svg_319"/>
   <path class="cls-8" d="m288.600013,198.879665a41.1,41.1 0 0 1 -0.18,6.78c-0.41,2.54 -0.65,6.47 -0.65,6.47s3.61,2.82 7.79,2.33a14.67,14.67 0 0 0 7.07,-2.92s-1.38,-7.15 -1.31,-8l0.08,-0.88a4.05,4.05 0 0 1 -2.62,0.34a4.84,4.84 0 0 1 -3.22,-3.8a40,40 0 0 1 0,-7.25c-0.2,0 -5.39,-1.56 -5.39,-1.56a34.28,34.28 0 0 0 -1.57,8.49z" id="svg_320"/>
   <path class="cls-7" d="m299.420013,180.479665c0.21,-0.68 0.67,-2.26 0.79,-2.9a3.11,3.11 0 0 0 -0.84,-2.88c-1,-1.05 -4.51,-1.39 -5.78,-0.66s-4,2.07 -3,6.44c0.76,3.53 1.5,3.93 2.57,4.76a6.1,6.1 0 0 0 2.57,0.9a3,3 0 0 0 1.08,-2c0.05,-0.42 0,-1.7 0,-1.7s-0.93,-1.84 -0.21,-2.5s1.56,0.41 1.74,0.86c0.61,1.58 1.24,2.32 1.08,-0.32z" id="svg_321"/>
   <path class="cls-13" d="m316.480013,202.789665a26,26 0 0 1 -7.4,-0.77a20.81,20.81 0 0 1 -4.65,-1.92a31.19,31.19 0 0 1 -1.37,-3.47l-4.67,1.9s1.18,3.16 1.87,4.59c0.55,1.16 1.25,1.39 2.35,1.8c1.62,0.6 6.37,0.76 8.25,1a10.43,10.43 0 0 0 4.17,-0.22c2.31,-0.55 1.55,-2.27 1.45,-2.91z" id="svg_322"/>
   <path class="cls-9" d="m298.400013,199.959665a5.79,5.79 0 0 0 5.85,-1.91c-0.9,-4.08 -2.34,-8.53 -4.31,-9.18c-1.06,-0.35 -3,3.32 -2.63,5.92c0.09,0.73 0.54,2.78 1.09,5.17z" id="svg_323"/>
   <path class="cls-12" d="m288.060013,208.619665l-0.17,1.79s2.43,2.09 7.67,2.21s7,-1.67 7,-1.67l-0.31,-1.85a14.08,14.08 0 0 1 -6.79,1.77a13.8,13.8 0 0 1 -7.4,-2.25z" id="svg_324"/>
   <path class="cls-8" d="m293.980013,192.469665a9.22,9.22 0 0 1 1.67,-3.46a4.22,4.22 0 0 1 2.12,-1.22s1.07,0.29 1,0.6a5.35,5.35 0 0 0 -2.29,1.82a14.62,14.62 0 0 0 -1.1,3.33l-1.4,-1.07z" id="svg_325"/>
   <path class="cls-8" d="m291.880013,186.449665a13,13 0 0 0 -1.71,3.75a32.39,32.39 0 0 0 -0.64,3.33l1,0.13s1,-3.76 1.52,-5.12a16.47,16.47 0 0 1 1,-2l-1.17,-0.09z" id="svg_326"/>
   <path class="cls-13" d="m313.850013,203.329665a17.52,17.52 0 0 0 1.76,-1.66c0.44,-0.52 0.81,-0.39 0.66,0.19a6.14,6.14 0 0 1 -0.91,1.57s-1.12,-0.1 -1.31,-0.1l-0.2,0z" id="svg_327"/>
   <path class="cls-30" d="m297.730013,174.789665c2.56,0.27 3.57,1.95 2.26,3.75a8.36,8.36 0 0 1 -7,2.78c-2.56,-0.27 -3.57,-2 -2.26,-3.75a8.36,8.36 0 0 1 7,-2.78z" id="svg_328"/>
   <path class="cls-30" d="m290.240013,179.619665s-1.52,-5.19 3.09,-6.75c3.31,-1.13 5.8,0.18 7.15,3.59c0.81,2.07 -10.24,3.16 -10.24,3.16z" id="svg_329"/>
   <path class="cls-9" d="m298.670013,179.789665c0.33,-0.19 1.9,-2.15 1.46,-3.94a11,11 0 0 0 -0.64,-1.26s0.46,-0.25 2.36,0.16s2.25,2.1 0.78,3.29a8.42,8.42 0 0 1 -3.96,1.75z" id="svg_330"/>
   <polygon class="cls-14" points="328.2300109863281,273.41967010498047 328.22003173828125,256.0996627807617 342.0600280761719,248.09966278076172 342.0600280761719,265.39965057373047 328.2300109863281,273.41967010498047 " id="svg_331"/>
   <polygon class="cls-15" points="328.2300109863281,273.41967010498047 328.22003173828125,256.0996627807617 314.3800048828125,248.09966278076172 314.3800048828125,265.39965057373047 328.2300109863281,273.41967010498047 " id="svg_332"/>
   <polygon class="cls-27" points="316.1800231933594,264.2496566772461 316.1800231933594,250.94966888427734 315.77001953125,250.71965789794922 315.77001953125,264.53966522216797 326.84002685546875,270.94966888427734 326.84002685546875,270.41967010498047 316.1800231933594,264.2496566772461 " id="svg_333"/>
   <polygon class="cls-14" points="326.84002685546875,270.41967010498047 326.83001708984375,257.1096725463867 316.1800231933594,250.94966888427734 316.1800231933594,264.2496566772461 326.84002685546875,270.41967010498047 " id="svg_334"/>
   <polygon class="cls-11" points="322.80999755859375,267.05965423583984 325.780029296875,268.78966522216797 325.780029296875,264.30965423583984 322.80999755859375,262.5996627807617 322.80999755859375,267.05965423583984 " id="svg_335"/>
   <polygon class="cls-31" points="340.260009765625,264.2496566772461 340.260009765625,250.94966888427734 340.6700134277344,250.71965789794922 340.6700134277344,264.53966522216797 329.6100158691406,270.94966888427734 329.6100158691406,270.41967010498047 340.260009765625,264.2496566772461 " id="svg_336"/>
   <polygon class="cls-27" points="329.6100158691406,270.41967010498047 329.6100158691406,257.1096725463867 340.260009765625,250.94966888427734 340.260009765625,264.2496566772461 329.6100158691406,270.41967010498047 " id="svg_337"/>
   <polygon class="cls-16" points="314.3800048828125,248.09966278076172 328.22003173828125,256.0996627807617 342.0600280761719,248.09966278076172 328.2300109863281,240.10967254638672 314.3800048828125,248.09966278076172 " id="svg_338"/>
   <polygon class="cls-14" points="339.19000244140625,248.2696762084961 339.6400146484375,247.9996566772461 328.2300109863281,241.39965057373047 316.80999755859375,247.9996566772461 317.260009765625,248.2696762084961 328.2300109863281,241.92967987060547 339.19000244140625,248.2696762084961 " id="svg_339"/>
   <polygon class="cls-15" points="339.19000244140625,248.2696762084961 328.2300109863281,241.92967987060547 317.260009765625,248.2696762084961 328.2300109863281,254.59966278076172 339.19000244140625,248.2696762084961 " id="svg_340"/>
   <polygon class="cls-7" points="337.3800048828125,253.9996566772461 337.3800048828125,258.4696578979492 339.6700134277344,257.14965057373047 339.6700134277344,252.67967987060547 337.3800048828125,253.9996566772461 " id="svg_341"/>
   <polygon class="cls-7" points="334.0000305175781,255.91967010498047 334.0000305175781,260.3896713256836 336.280029296875,259.06966400146484 336.280029296875,254.59966278076172 334.0000305175781,255.91967010498047 " id="svg_342"/>
  </g>
 </g>
</svg>