<svg width="636.7" height="444.62000000000006" xmlns="http://www.w3.org/2000/svg">
 <defs>
  <style>.cls-1{isolation:isolate;}.cls-2{fill:#5da5fd;}.cls-2,.cls-53{opacity:0.2;}.cls-2,.cls-52,.cls-53,.cls-59{mix-blend-mode:multiply;}.cls-3{fill:none;stroke:#3483ef;stroke-miterlimit:10;}.cls-4{fill:#3483ef;}.cls-5{fill:#e9faff;}.cls-6{fill:#ffad97;}.cls-7{fill:#4d4d4d;}.cls-8{fill:#5d588d;}.cls-9{fill:#d1406b;}.cls-10{fill:#ef4f77;}.cls-11{fill:#fff;}.cls-12{fill:#7c76ac;}.cls-13{fill:#ffc5b3;}.cls-14{fill:#dba763;}.cls-15{fill:#e8b679;}.cls-16{fill:#ffe1c0;}.cls-17{fill:#6d6d6d;}.cls-18{fill:#ffba76;}.cls-19{fill:#ffa543;}.cls-20{fill:#afafaf;}.cls-21{fill:#3a3a3a;}.cls-22{fill:#d3d3d3;}.cls-23{fill:#7c7c7c;}.cls-24{fill:#707070;}.cls-25{fill:#c1c1c1;}.cls-26{fill:#ddd;}.cls-27{fill:#cc8c46;}.cls-28{fill:#d89c55;}.cls-29{fill:#e8b470;}.cls-30{fill:#fc6181;}.cls-31{fill:#bf7e3d;}.cls-32{fill:#ed8e2f;}.cls-33{fill:#c96a1c;}.cls-34{fill:#d87923;}.cls-35{fill:#a3a3a3;}.cls-36{fill:#97a9dd;}.cls-37{fill:#8583b7;}.cls-38{fill:url(#linear-gradient);}.cls-39{fill:url(#linear-gradient-2);}.cls-40{fill:#222b2e;}.cls-41{fill:url(#linear-gradient-3);}.cls-42{fill:url(#linear-gradient-4);}.cls-43{fill:#0d1417;}.cls-44{fill:url(#linear-gradient-5);}.cls-45{fill:url(#linear-gradient-6);}.cls-46{fill:url(#linear-gradient-7);}.cls-47{fill:url(#linear-gradient-8);}.cls-48{fill:url(#linear-gradient-9);}.cls-49{fill:url(#linear-gradient-10);}.cls-50{fill:url(#linear-gradient-11);}.cls-51{fill:#518dca;}.cls-52{opacity:0.4;fill:url(#ÕÓ_È_Ó·_ÁÂ_ËÂÌÚ_2);}.cls-54,.cls-84{fill:#2e373a;}.cls-54,.cls-55,.cls-56,.cls-57{fill-rule:evenodd;}.cls-56{fill:#0e2841;}.cls-57,.cls-65{fill:#1c354e;}.cls-58{fill:#273438;}.cls-59{fill:#d78d68;opacity:0.15;}.cls-60{fill:#d4dbdf;}.cls-61{fill:#b52025;}.cls-62{fill:#344246;}.cls-63{fill:#e1e7eb;}.cls-64{fill:#414f53;}.cls-66{fill:#2e383b;}.cls-67{fill:#f1a882;}.cls-68{fill:#bac1c5;}.cls-69{fill:#d3dade;}.cls-70{fill:#eef5f8;}.cls-71{fill:#f7fbff;}.cls-72{fill:#151f22;}.cls-73{fill:#545f64;}.cls-74{fill:#626b6f;}.cls-75{fill:#3c4447;}.cls-76{fill:url(#linear-gradient-12);}.cls-77{fill:#c6cbcc;}.cls-78{fill:url(#linear-gradient-13);}.cls-79{fill:#293033;}.cls-80{fill:#6f787b;}.cls-81{fill:#babec0;}.cls-82{fill:url(#linear-gradient-14);}.cls-83{fill:#353f42;}.cls-85{fill:url(#linear-gradient-15);}.cls-86{fill:#2a373b;}.cls-87{fill:#3c4548;}.cls-88{fill:#161f21;}.cls-89{fill:url(#linear-gradient-16);}.cls-90{fill:#30393c;}.cls-91{fill:#a0a4a7;}.cls-92{fill:url(#linear-gradient-17);}.cls-93{fill:#878c8d;}.cls-94{fill:url(#linear-gradient-18);}.cls-95{fill:#80848a;}.cls-96{fill:url(#linear-gradient-19);}</style>
 </defs>
 <g>
  <title>background</title>
  <rect x="-1" y="-1" width="638.7" height="446.62" id="canvas_background" fill="none"/>
 </g>
 <g>
  <title>Layer 1</title>
  <g id="svg_1295">
   <path class="cls-5" d="m241.184996,239.040285l73.42,-42.42a8.35,8.35 0 0 1 7.5,0l73.41,42.39a2.62,2.62 0 0 1 1.55,2.17l0,4.63a2.62,2.62 0 0 1 -1.55,2.17l-73.41,42.39a8.35,8.35 0 0 1 -7.5,0l-73.42,-42.39a2.64,2.64 0 0 1 -1.55,-2.17l0,-4.63a2.64,2.64 0 0 1 1.55,-2.14z" id="svg_115"/>
   <path class="cls-2" d="m241.184996,243.370285l73.42,42.39a8.35,8.35 0 0 0 7.5,0l73.41,-42.39a2.62,2.62 0 0 0 1.55,-2.16l0,4.63a2.62,2.62 0 0 1 -1.55,2.17l-73.41,42.39a8.35,8.35 0 0 1 -7.5,0l-73.42,-42.39a2.64,2.64 0 0 1 -1.55,-2.17l0,-4.63a2.64,2.64 0 0 0 1.55,2.16z" id="svg_116"/>
   <path class="cls-6" d="m310.444996,192.960285a21.12,21.12 0 0 0 -2.74,-0.34a3.08,3.08 0 0 0 0.39,-1.18c0.2,-1 0,-1.65 -0.39,-0.88a5.66,5.66 0 0 1 -3,2.92c-2,0.94 -8,-2.56 -8,-2.56l-0.36,0.52c-0.54,4.38 2.83,4.08 2.83,4.08a22.17,22.17 0 0 0 5.19,0.74a30,30 0 0 0 5.6,-0.63c2.99,-0.74 1.81,-2.39 0.48,-2.67z" id="svg_127"/>
   <path class="cls-7" d="m326.854996,233.620285s-1,1.1 -2.36,2.42s-1.65,1.58 -2.81,2.71c-0.68,0.66 -0.12,1.27 1.18,1.22a22.91,22.91 0 0 0 5.15,-1.11a26.76,26.76 0 0 0 3.86,-2a2.58,2.58 0 0 0 1.15,-1.45l0,-2l-6.17,0.21z" id="svg_128"/>
   <path class="cls-7" d="m345.384996,231.810285a17,17 0 0 1 -2,2.27a21.6,21.6 0 0 0 -2.74,3.16c-0.25,0.33 -0.4,1.29 0.9,1.24a17,17 0 0 0 4.31,-1.05c1.65,-0.58 3,-2.24 4,-2.85a4,4 0 0 0 1.38,-1.95l-0.66,-2l-5.19,1.18z" id="svg_129"/>
   <path class="cls-8" d="m344.864996,198.740285c0.48,-7.48 -3.64,-11.41 -3.64,-11.41c0.33,-2.52 -11.36,1 -11.36,1s-2.55,13.56 -3.55,20.69c-1.2,8.11 -0.47,24.63 -0.47,24.63s0.15,1.76 3.17,1.75a6,6 0 0 0 4,-2l0.24,-18.8l2.68,-13.33s2.59,10.84 3.41,14.72c0.87,4.14 4.21,16.37 4.21,16.37s2.17,2.49 4.85,1.15s2.16,-2.84 2.16,-2.84a54.35,54.35 0 0 0 -4,-16.45c-0.25,-5.94 -1.92,-12.04 -1.7,-15.48z" id="svg_130"/>
   <path class="cls-9" d="m331.464996,168.700285s-1.68,-0.08 -3.4,3.16s-3.38,6.7 -3.38,6.7a10.94,10.94 0 0 1 5.25,2.87c3.74,-3.38 4.38,-11.15 1.53,-12.73z" id="svg_131"/>
   <path class="cls-10" d="m331.464996,168.700285a26,26 0 0 0 -1.81,5.11c-0.86,3.31 -0.55,18.69 -0.55,18.69a15.26,15.26 0 0 0 9.53,2a8.13,8.13 0 0 0 5.36,-2.49s2.12,-15.07 1.83,-17.22s-4.8,-7.23 -4.8,-7.23s-5.97,-0.27 -9.56,1.14z" id="svg_132"/>
   <path class="cls-6" d="m335.544996,166.620285l-0.69,4s2,2.31 4.07,0.58a8.22,8.22 0 0 0 2.3,-2.52l-1,-5.51l-4.68,3.45z" id="svg_133"/>
   <path class="cls-8" d="m336.424996,178.040285s2.6,-3.91 4.66,-5a12.36,12.36 0 0 1 3.17,-1.3s-0.75,-1.55 -1.26,-1.73a9.81,9.81 0 0 0 -3.28,1.33a14,14 0 0 0 -4.69,4.72c-1.63,2.87 0.21,3.64 1.4,1.98z" id="svg_134"/>
   <path class="cls-8" d="m332.254996,168.350285a32.19,32.19 0 0 0 -1.9,6c-0.2,1.94 0.19,2.54 1,2.61s0.82,-1.32 1.05,-2.86s1.65,-6.26 1.65,-6.26l-1.8,0.51z" id="svg_135"/>
   <path class="cls-8" d="m344.314996,189.910285a6.1,6.1 0 0 1 -3.78,1.29c-1.64,-0.18 -4,-1.78 -3.89,-7a50.15,50.15 0 0 1 0.61,-7.61l-6.3,-2.76s-1.71,3.95 -2,11.72s-0.48,10.44 -0.48,10.44a85.79,85.79 0 0 0 10.69,0a35.53,35.53 0 0 0 5.64,-0.9l-0.49,-5.18z" id="svg_136"/>
   <path class="cls-11" d="m331.624996,175.260285c0,0.32 -0.18,0.58 -0.4,0.58s-0.4,-0.26 -0.4,-0.58s0.18,-0.57 0.4,-0.57s0.4,0.25 0.4,0.57z" id="svg_137"/>
   <path class="cls-11" d="m335.394996,177.020285a0.52,0.52 0 0 0 0,0.71c0.18,0.12 0.47,0 0.66,-0.24s0.19,-0.58 0,-0.7s-0.47,-0.03 -0.66,0.23z" id="svg_138"/>
   <path class="cls-12" d="m330.384996,177.780285c-0.25,1.3 -0.12,5.4 2.2,6c2.1,0.56 2.65,-1.92 3.13,-3.84a21.24,21.24 0 0 1 -5.33,-2.16z" id="svg_139"/>
   <path class="cls-13" d="m338.384996,157.130285a4.66,4.66 0 0 0 -7.28,2.48c-1.56,4.41 2.44,9.92 4.56,9a9,9 0 0 0 4.41,-4.71c0.79,-2.63 -0.35,-5.75 -1.69,-6.77z" id="svg_140"/>
   <polygon class="cls-14" points="321.95501708984375,205.17027282714844 321.95501708984375,189.16029357910156 334.8550109863281,182.7302703857422 334.8550109863281,197.8302764892578 321.95501708984375,205.17027282714844 " id="svg_141"/>
   <polygon class="cls-15" points="321.95501708984375,205.17027282714844 321.95501708984375,189.16029357910156 309.05499267578125,182.7302703857422 309.05499267578125,197.8302764892578 321.95501708984375,205.17027282714844 " id="svg_142"/>
   <polygon class="cls-14" points="321.95501708984375,205.31028747558594 321.95501708984375,189.16029357910156 334.8550109863281,181.7002716064453 334.8550109863281,197.8302764892578 321.95501708984375,205.31028747558594 " id="svg_143"/>
   <polygon class="cls-15" points="321.95501708984375,205.31028747558594 321.95501708984375,189.16029357910156 309.05499267578125,181.7002716064453 309.05499267578125,197.8302764892578 321.95501708984375,205.31028747558594 " id="svg_144"/>
   <polygon class="cls-16" points="309.05499267578125,181.7002716064453 321.95501708984375,189.16029357910156 334.8550109863281,181.7002716064453 321.95501708984375,174.2502899169922 309.05499267578125,181.7002716064453 " id="svg_145"/>
   <polygon class="cls-7" points="330.05499267578125,189.17027282714844 327.17498779296875,190.8402862548828 327.17498779296875,186.1302947998047 330.05499267578125,184.4602813720703 330.05499267578125,189.17027282714844 " id="svg_146"/>
   <polygon class="cls-17" points="330.05499267578125,184.4602813720703 317.17498779296875,177.0102996826172 314.2950134277344,178.68028259277344 327.17498779296875,186.1302947998047 330.05499267578125,184.4602813720703 " id="svg_147"/>
   <polygon class="cls-7" points="323.6650085449219,203.0002899169922 323.6650085449219,202.17027282714844 327.9949951171875,199.65028381347656 327.9949951171875,200.5002899169922 323.6650085449219,203.0002899169922 " id="svg_148"/>
   <polygon class="cls-7" points="323.6650085449219,201.5102996826172 323.6650085449219,200.68028259277344 327.9949951171875,198.17027282714844 327.9949951171875,199.0102996826172 323.6650085449219,201.5102996826172 " id="svg_149"/>
   <polygon class="cls-7" points="331.875,195.4702911376953 331.875,198.3402862548828 333.94500732421875,197.14027404785156 333.94500732421875,194.2602996826172 331.875,195.4702911376953 " id="svg_150"/>
   <polygon class="cls-7" points="311.885009765625,195.16029357910156 311.885009765625,198.17027282714844 309.81500244140625,196.9702911376953 309.81500244140625,193.9702911376953 311.885009765625,195.16029357910156 " id="svg_151"/>
   <polygon class="cls-7" points="314.7149963378906,196.80027770996094 314.7149963378906,199.80027770996094 312.6449890136719,198.6102752685547 312.6449890136719,195.6102752685547 314.7149963378906,196.80027770996094 " id="svg_152"/>
   <polygon class="cls-11" points="314.07501220703125,186.39027404785156 314.07501220703125,190.7002716064453 309.81500244140625,188.2502899169922 309.81500244140625,183.93028259277344 314.07501220703125,186.39027404785156 " id="svg_153"/>
   <polygon class="cls-7" points="313.55499267578125,187.27027893066406 313.55499267578125,186.57029724121094 310.20501708984375,184.64027404785156 310.20501708984375,185.3302764892578 313.55499267578125,187.27027893066406 " id="svg_154"/>
   <path class="cls-13" d="m338.034996,182.620285s-2.44,5.14 -3.45,6.57a33.94,33.94 0 0 1 -6,5.18a8.71,8.71 0 0 1 -3.79,1c-1,-0.09 -1.69,0.4 -0.72,0.77a8,8 0 0 0 1.92,0.45a12.18,12.18 0 0 0 -2.48,2.44c-0.56,0.9 -1,2.55 1.14,2.07c1.77,-0.39 4.22,-3.09 4.86,-3.69c1.21,-1.14 6,-3.75 7.12,-4.52c1.54,-1.09 5.9,-7.52 5.9,-7.52s-1.31,-3.41 -4.5,-2.75z" id="svg_155"/>
   <path class="cls-9" d="m345.054996,172.960285c-1.27,-1 -4,2.43 -5.41,4.59a29.56,29.56 0 0 0 -2.59,5.39s1.73,1.25 3.28,2.23a25.13,25.13 0 0 0 2.67,1.44s6.4,-10.15 2.05,-13.65z" id="svg_156"/>
   <path class="cls-7" d="m330.754996,161.010285a4,4 0 0 0 3.88,1.17a8.44,8.44 0 0 0 3,-1.1l0.36,2.34a1.86,1.86 0 0 0 0.61,-0.23c0,-0.92 0.37,-1.21 0.88,-0.93s0.6,1.63 0.6,1.63a4.79,4.79 0 0 0 1.15,-4.32c-0.37,-1.64 -2.59,-4.89 -5.68,-4.6a5.7,5.7 0 0 0 -5.28,4.1a2.19,2.19 0 0 0 0.48,1.94z" id="svg_157"/>
   <path class="cls-8" d="m330.124996,158.980285s-4,2.8 -4.66,3.39s3.15,3.18 5.86,2.31s6.79,-3.87 6.79,-3.87l-7.99,-1.83z" id="svg_158"/>
   <path class="cls-12" d="m330.124996,158.980285s4.54,2.82 7.36,2a10.13,10.13 0 0 0 3.6,-1.51s-0.25,-5.91 -5.44,-5.91s-5.52,5.42 -5.52,5.42z" id="svg_159"/>
   <path class="cls-8" d="m335.874996,153.760285c0,0.24 -0.35,0.43 -0.78,0.43s-0.78,-0.19 -0.78,-0.43s0.35,-0.43 0.78,-0.43s0.78,0.19 0.78,0.43z" id="svg_160"/>
   <path class="cls-13" d="m290.644996,250.210285c1.51,-0.75 2.94,-1.67 2.48,-2.53a1.51,1.51 0 0 0 -1.15,-0.64c-1.39,0.46 -2.08,0.77 -2.08,0.77a108.56,108.56 0 0 1 0.74,-11.42c0.19,-1.11 -5.08,-1.15 -5.08,-1.15a79.09,79.09 0 0 0 0,11.69a12.09,12.09 0 0 1 -0.06,3l1.65,0.73a4.14,4.14 0 0 0 3.5,-0.45z" id="svg_161"/>
   <path class="cls-7" d="m285.434996,252.090285c0.5,1.2 1.67,1.09 4,0.24a20.1,20.1 0 0 0 5.28,-2.69c1.49,-1.1 1.5,-1.24 1.7,-2c0.27,-1 -1.24,-1.62 -3.77,-0.83l-0.69,0.22a1.51,1.51 0 0 1 1.15,0.64c0.46,0.86 -1,1.78 -2.48,2.53a4.14,4.14 0 0 1 -3.5,0.41l-1.65,-0.73c-0.16,1.02 -0.34,1.49 -0.04,2.21z" id="svg_162"/>
   <path class="cls-13" d="m297.984996,254.470285c1.5,-0.75 2.94,-1.68 2.48,-2.54a1.54,1.54 0 0 0 -1.15,-0.64c-1.39,0.46 -2.09,0.77 -2.09,0.77s0.39,-12.67 1,-16c0.2,-1.11 -5.09,0.55 -5.09,0.55a114.78,114.78 0 0 0 -0.22,14.59a12.63,12.63 0 0 1 -0.06,3l1.65,0.73a4.22,4.22 0 0 0 3.48,-0.46z" id="svg_163"/>
   <path class="cls-7" d="m292.774996,256.350285c0.5,1.2 1.66,1.09 4,0.24a20.32,20.32 0 0 0 5.29,-2.69c1.48,-1.1 1.5,-1.25 1.69,-2c0.28,-1 -1.24,-1.62 -3.76,-0.84l-0.69,0.22a1.54,1.54 0 0 1 1.15,0.64c0.46,0.86 -1,1.79 -2.48,2.54a4.22,4.22 0 0 1 -3.5,0.41l-1.65,-0.73c-0.15,1.02 -0.36,1.48 -0.05,2.21z" id="svg_164"/>
   <path class="cls-13" d="m292.464996,168.440285c0.62,0.43 3,1 3.6,6.09c0.57,4.54 -0.43,5.73 -1.35,6.11a10.8,10.8 0 0 1 -2.32,0.21l0.07,3.83a6.52,6.52 0 0 1 -4.41,0l-2.15,-0.89a7.59,7.59 0 0 0 0.7,-4c-0.18,-3.12 -1.28,-7.56 -0.5,-9.21a4.46,4.46 0 0 1 6.36,-2.14z" id="svg_165"/>
   <path class="cls-18" d="m284.754996,181.390285s6.14,1.77 7.71,2.3s2.66,1.52 4.21,4.62s0.4,7.81 0.4,7.81l-0.47,8.48s-3.2,3.89 -6.06,4.17c-3.91,0.37 -4.33,-1.77 -4.33,-1.77s-5,-10.88 -4.16,-16.07a50.2,50.2 0 0 1 2.7,-9.54z" id="svg_166"/>
   <path class="cls-7" d="m296.224996,172.770285c-0.16,1.76 -1.61,2.29 -2.89,3.63s-1.42,3.15 -1.81,4.35s0.15,6.54 -1.8,10.58c-2.09,4.29 -4.77,5.22 -4.77,5.22a39.92,39.92 0 0 1 -5.05,-12.67c-1.32,-6.94 3.46,-16 8.63,-17.07c5.49,-1.19 8.03,2.35 7.69,5.96z" id="svg_167"/>
   <path class="cls-13" d="m295.254996,186.550285c-1.27,-0.12 -2.59,2.18 -2.46,5.07c0.17,3.69 7.87,10 7.87,10c2.59,1.53 10.44,-0.75 12.32,-1s4.06,0.41 5.23,0.12s2.67,-2.13 1.92,-2.73s-4.14,-0.49 -4.14,-0.49a9.83,9.83 0 0 0 0.65,-1.93c0.05,-1.75 -0.81,0.2 -1.92,1.1a5.07,5.07 0 0 1 -3.06,1.17a28,28 0 0 1 -9.3,-0.34s-4.67,-10.74 -7.11,-10.97z" id="svg_168"/>
   <path class="cls-18" d="m289.104996,166.700285s5,0.42 4.6,4.74s-0.37,5 -0.37,5a47.4,47.4 0 0 0 1.38,-4.54c0.46,-2.01 -0.16,-6.52 -5.61,-5.2z" id="svg_169"/>
   <path class="cls-13" d="m294.714996,175.290285s-1.35,-2.3 -1.92,0a2.35,2.35 0 0 0 1.33,2.87l0.59,-2.87z" id="svg_170"/>
   <path class="cls-18" d="m285.824996,202.790285a72.56,72.56 0 0 0 -2.25,8.17c-1.31,7.57 -0.88,24.28 -0.88,24.28s6.84,3.91 11.56,3.59c6.88,-0.46 8.94,-3.59 8.94,-3.59s-2.79,-16.16 -3.26,-19.6a55.24,55.24 0 0 0 -3.86,-13.3l-10.25,0.45z" id="svg_171"/>
   <path class="cls-19" d="m284.784996,206.120285s4.61,1.61 7.91,0.5a22.84,22.84 0 0 0 4.37,-1.81l-0.4,-1.91a22.42,22.42 0 0 1 -5.7,1.54a12.58,12.58 0 0 1 -6.16,-0.84l-0.02,2.52z" id="svg_172"/>
  </g>
 </g>
</svg>