<svg width="636.7" height="444.62000000000006" xmlns="http://www.w3.org/2000/svg">
 <defs>
  <style>.cls-1{isolation:isolate;}.cls-2{fill:#5da5fd;}.cls-2,.cls-53{opacity:0.2;}.cls-2,.cls-52,.cls-53,.cls-59{mix-blend-mode:multiply;}.cls-3{fill:none;stroke:#3483ef;stroke-miterlimit:10;}.cls-4{fill:#3483ef;}.cls-5{fill:#e9faff;}.cls-6{fill:#ffad97;}.cls-7{fill:#4d4d4d;}.cls-8{fill:#5d588d;}.cls-9{fill:#d1406b;}.cls-10{fill:#ef4f77;}.cls-11{fill:#fff;}.cls-12{fill:#7c76ac;}.cls-13{fill:#ffc5b3;}.cls-14{fill:#dba763;}.cls-15{fill:#e8b679;}.cls-16{fill:#ffe1c0;}.cls-17{fill:#6d6d6d;}.cls-18{fill:#ffba76;}.cls-19{fill:#ffa543;}.cls-20{fill:#afafaf;}.cls-21{fill:#3a3a3a;}.cls-22{fill:#d3d3d3;}.cls-23{fill:#7c7c7c;}.cls-24{fill:#707070;}.cls-25{fill:#c1c1c1;}.cls-26{fill:#ddd;}.cls-27{fill:#cc8c46;}.cls-28{fill:#d89c55;}.cls-29{fill:#e8b470;}.cls-30{fill:#fc6181;}.cls-31{fill:#bf7e3d;}.cls-32{fill:#ed8e2f;}.cls-33{fill:#c96a1c;}.cls-34{fill:#d87923;}.cls-35{fill:#a3a3a3;}.cls-36{fill:#97a9dd;}.cls-37{fill:#8583b7;}.cls-38{fill:url(#linear-gradient);}.cls-39{fill:url(#linear-gradient-2);}.cls-40{fill:#222b2e;}.cls-41{fill:url(#linear-gradient-3);}.cls-42{fill:url(#linear-gradient-4);}.cls-43{fill:#0d1417;}.cls-44{fill:url(#linear-gradient-5);}.cls-45{fill:url(#linear-gradient-6);}.cls-46{fill:url(#linear-gradient-7);}.cls-47{fill:url(#linear-gradient-8);}.cls-48{fill:url(#linear-gradient-9);}.cls-49{fill:url(#linear-gradient-10);}.cls-50{fill:url(#linear-gradient-11);}.cls-51{fill:#518dca;}.cls-52{opacity:0.4;fill:url(#ÕÓ_È_Ó·_ÁÂ_ËÂÌÚ_2);}.cls-54,.cls-84{fill:#2e373a;}.cls-54,.cls-55,.cls-56,.cls-57{fill-rule:evenodd;}.cls-56{fill:#0e2841;}.cls-57,.cls-65{fill:#1c354e;}.cls-58{fill:#273438;}.cls-59{fill:#d78d68;opacity:0.15;}.cls-60{fill:#d4dbdf;}.cls-61{fill:#b52025;}.cls-62{fill:#344246;}.cls-63{fill:#e1e7eb;}.cls-64{fill:#414f53;}.cls-66{fill:#2e383b;}.cls-67{fill:#f1a882;}.cls-68{fill:#bac1c5;}.cls-69{fill:#d3dade;}.cls-70{fill:#eef5f8;}.cls-71{fill:#f7fbff;}.cls-72{fill:#151f22;}.cls-73{fill:#545f64;}.cls-74{fill:#626b6f;}.cls-75{fill:#3c4447;}.cls-76{fill:url(#linear-gradient-12);}.cls-77{fill:#c6cbcc;}.cls-78{fill:url(#linear-gradient-13);}.cls-79{fill:#293033;}.cls-80{fill:#6f787b;}.cls-81{fill:#babec0;}.cls-82{fill:url(#linear-gradient-14);}.cls-83{fill:#353f42;}.cls-85{fill:url(#linear-gradient-15);}.cls-86{fill:#2a373b;}.cls-87{fill:#3c4548;}.cls-88{fill:#161f21;}.cls-89{fill:url(#linear-gradient-16);}.cls-90{fill:#30393c;}.cls-91{fill:#a0a4a7;}.cls-92{fill:url(#linear-gradient-17);}.cls-93{fill:#878c8d;}.cls-94{fill:url(#linear-gradient-18);}.cls-95{fill:#80848a;}.cls-96{fill:url(#linear-gradient-19);}</style>
 </defs>
 <g>
  <title>background</title>
  <rect x="-1" y="-1" width="638.7" height="446.62" id="canvas_background" fill="none"/>
 </g>
 <g>
  <title>Layer 1</title>
  <g id="svg_1294">
   <ellipse class="cls-2" cx="322.790002" cy="228.060005" rx="65.98" ry="43.36" id="svg_2"/>
   <polygon class="cls-32" points="283.7200012207031,279.37999200820923 235.4600067138672,251.47999811172485 353.07000732421875,183.52000665664673 401.239990234375,211.46000909805298 283.7200012207031,279.37999200820923 " id="svg_1226"/>
   <polygon class="cls-34" points="283.7200012207031,282.949999332428 283.7200012207031,279.37999200820923 235.4600067138672,251.47999811172485 235.4600067138672,255.04001092910767 283.7200012207031,282.949999332428 " id="svg_1227"/>
   <polygon class="cls-33" points="283.7200012207031,279.37999200820923 283.7200012207031,282.949999332428 401.239990234375,215.04001092910767 401.239990234375,211.46000909805298 283.7200012207031,279.37999200820923 " id="svg_1228"/>
   <polygon class="cls-14" points="360.2300109863281,230.83999872207642 360.2200012207031,194.89000177383423 388.95001220703125,178.28000116348267 388.95001220703125,214.19000482559204 360.2300109863281,230.83999872207642 " id="svg_1229"/>
   <polygon class="cls-15" points="360.2300109863281,230.83999872207642 360.2200012207031,194.89000177383423 331.489990234375,178.28000116348267 331.489990234375,214.19000482559204 360.2300109863281,230.83999872207642 " id="svg_1230"/>
   <polygon class="cls-16" points="331.489990234375,178.28000116348267 360.2200012207031,194.89000177383423 388.95001220703125,178.28000116348267 360.2300109863281,161.6700005531311 331.489990234375,178.28000116348267 " id="svg_1231"/>
   <polygon class="cls-7" points="378.260009765625,194.91000604629517 371.8599853515625,198.6300072669983 371.8599853515625,188.14000177383423 378.260009765625,184.41000604629517 378.260009765625,194.91000604629517 " id="svg_1232"/>
   <polygon class="cls-17" points="378.260009765625,184.41000604629517 349.5799865722656,167.83000421524048 343.1600036621094,171.54001092910767 371.8599853515625,188.15001153945923 378.260009765625,184.41000604629517 " id="svg_1233"/>
   <polygon class="cls-7" points="382.3299865722656,208.9300103187561 382.3299865722656,215.33999872207642 386.94000244140625,212.6700005531311 386.94000244140625,206.2600121498108 382.3299865722656,208.9300103187561 " id="svg_1234"/>
   <polygon class="cls-7" points="337.80999755859375,208.2600121498108 337.80999755859375,214.94000482559204 333.19000244140625,212.27000665664673 333.19000244140625,205.58999872207642 337.80999755859375,208.2600121498108 " id="svg_1235"/>
   <polygon class="cls-7" points="344.1000061035156,211.91000604629517 344.1000061035156,218.58999872207642 339.489990234375,215.9300103187561 339.489990234375,209.24000787734985 344.1000061035156,211.91000604629517 " id="svg_1236"/>
   <polygon class="cls-11" points="342.67999267578125,188.72000360488892 342.67999267578125,198.33000421524048 333.19000244140625,192.85000848770142 333.19000244140625,183.22999811172485 342.67999267578125,188.72000360488892 " id="svg_1237"/>
   <polygon class="cls-7" points="341.510009765625,190.69000482559204 341.510009765625,189.12001276016235 334.05999755859375,184.82000970840454 334.05999755859375,186.36000299453735 341.510009765625,190.69000482559204 " id="svg_1238"/>
   <polygon class="cls-14" points="324.5299987792969,251.55999994277954 324.5199890136719,231.7600121498108 353.25,215.15001153945923 353.25,234.91000604629517 324.5299987792969,251.55999994277954 " id="svg_1239"/>
   <polygon class="cls-15" points="324.5299987792969,251.55999994277954 324.5199890136719,231.7600121498108 295.7900085449219,215.15001153945923 295.7900085449219,234.91000604629517 324.5299987792969,251.55999994277954 " id="svg_1240"/>
   <polygon class="cls-16" points="295.7900085449219,215.15001153945923 324.5199890136719,231.7600121498108 353.25,215.15001153945923 324.5299987792969,198.54001092910767 295.7900085449219,215.15001153945923 " id="svg_1241"/>
   <polygon class="cls-7" points="342.57000732421875,231.78000116348267 336.1700134277344,235.5000023841858 336.1700134277344,225.0100121498108 342.57000732421875,221.28000116348267 342.57000732421875,231.78000116348267 " id="svg_1242"/>
   <polygon class="cls-17" points="342.57000732421875,221.28000116348267 313.8800048828125,204.69999933242798 307.4599914550781,208.41000604629517 336.1700134277344,225.02000665664673 342.57000732421875,221.28000116348267 " id="svg_1243"/>
   <polygon class="cls-7" points="346.6300048828125,229.65001153945923 346.6300048828125,236.05999994277954 351.25,233.39000177383423 351.25,226.97999811172485 346.6300048828125,229.65001153945923 " id="svg_1244"/>
   <polygon class="cls-7" points="301.5799865722656,230.0500054359436 301.5799865722656,236.74000787734985 296.9700012207031,234.07000970840454 296.9700012207031,227.39000177383423 301.5799865722656,230.0500054359436 " id="svg_1245"/>
   <polygon class="cls-7" points="307.8800048828125,233.69999933242798 307.8800048828125,240.39000177383423 303.260009765625,237.72000360488892 303.260009765625,231.04001092910767 307.8800048828125,233.69999933242798 " id="svg_1246"/>
   <polygon class="cls-11" points="323.2699890136719,232.58000421524048 323.2699890136719,242.1800103187561 313.79998779296875,236.71000909805298 313.79998779296875,227.08999872207642 323.2699890136719,232.58000421524048 " id="svg_1247"/>
   <polygon class="cls-7" points="322.1099853515625,234.54001092910767 322.1099853515625,232.97999811172485 314.6499938964844,228.6800103187561 314.6499938964844,230.22000360488892 322.1099853515625,234.54001092910767 " id="svg_1248"/>
   <polygon class="cls-14" points="286.54998779296875,273.4300103187561 286.5400085449219,253.6300072669983 315.260009765625,237.02000665664673 315.260009765625,256.79001092910767 286.54998779296875,273.4300103187561 " id="svg_1249"/>
   <polygon class="cls-15" points="286.54998779296875,273.4300103187561 286.5400085449219,253.6300072669983 245.19000244140625,229.74000787734985 245.19000244140625,249.5000023841858 286.54998779296875,273.4300103187561 " id="svg_1250"/>
   <polygon class="cls-16" points="245.19000244140625,229.74000787734985 286.5400085449219,253.6300072669983 315.260009765625,237.02000665664673 273.8999938964844,213.14000177383423 245.19000244140625,229.74000787734985 " id="svg_1251"/>
   <polygon class="cls-7" points="304.5799865722656,253.65001153945923 298.17999267578125,257.37001276016235 298.17999267578125,246.8800072669983 304.5799865722656,243.16000604629517 304.5799865722656,253.65001153945923 " id="svg_1252"/>
   <polygon class="cls-17" points="304.5799865722656,243.16000604629517 263.260009765625,219.29001092910767 256.8399963378906,223.0100121498108 298.17999267578125,246.89000177383423 304.5799865722656,243.16000604629517 " id="svg_1253"/>
   <polygon class="cls-7" points="250.99000549316406,243.87001276016235 250.99000549316406,250.55999994277954 246.3800048828125,247.89000177383423 246.3800048828125,241.21000909805298 250.99000549316406,243.87001276016235 " id="svg_1254"/>
   <polygon class="cls-7" points="257.2900085449219,247.52000665664673 257.2900085449219,254.21000909805298 252.6699981689453,251.54001092910767 252.6699981689453,244.86000299453735 257.2900085449219,247.52000665664673 " id="svg_1255"/>
   <polygon class="cls-7" points="263.6600036621094,251.19000482559204 263.6600036621094,257.87001276016235 259.04998779296875,255.21000909805298 259.04998779296875,248.52000665664673 263.6600036621094,251.19000482559204 " id="svg_1256"/>
   <polygon class="cls-11" points="285.2900085449219,254.44999933242798 285.2900085449219,264.0600152015686 275.80999755859375,258.5800042152405 275.80999755859375,248.96000909805298 285.2900085449219,254.44999933242798 " id="svg_1257"/>
   <polygon class="cls-7" points="284.1300048828125,256.4200005531311 284.1300048828125,254.85000848770142 276.6700134277344,250.5500054359436 276.6700134277344,252.08999872207642 284.1300048828125,256.4200005531311 " id="svg_1258"/>
   <polygon class="cls-14" points="283.07000732421875,245.83000421524048 283.05999755859375,234.24000787734985 301.6099853515625,223.52000665664673 301.6099853515625,235.08000421524048 283.07000732421875,245.83000421524048 " id="svg_1259"/>
   <polygon class="cls-15" points="283.07000732421875,245.83000421524048 283.05999755859375,234.24000787734985 256.3599853515625,218.80999994277954 256.3599853515625,230.3800072669983 283.07000732421875,245.83000421524048 " id="svg_1260"/>
   <polygon class="cls-16" points="256.3599853515625,218.83000421524048 283.05999755859375,234.2600121498108 301.6099853515625,223.54001092910767 274.8999938964844,208.12001276016235 256.3599853515625,218.83000421524048 " id="svg_1261"/>
   <polygon class="cls-7" points="284.45001220703125,243.72000360488892 284.45001220703125,242.52000665664673 290.67999267578125,238.91000604629517 290.67999267578125,240.12001276016235 284.45001220703125,243.72000360488892 " id="svg_1262"/>
   <polygon class="cls-7" points="284.45001220703125,241.58000421524048 284.45001220703125,240.39000177383423 290.67999267578125,236.78000116348267 290.67999267578125,237.99000787734985 284.45001220703125,241.58000421524048 " id="svg_1263"/>
   <polygon class="cls-7" points="260.9700012207031,223.5000023841858 260.9700012207031,228.8800072669983 257.260009765625,226.72999811172485 257.260009765625,221.35000848770142 260.9700012207031,223.5000023841858 " id="svg_1264"/>
   <polygon class="cls-7" points="266.0400085449219,226.44000482559204 266.0400085449219,231.82000970840454 262.3299865722656,229.6700005531311 262.3299865722656,224.29001092910767 266.0400085449219,226.44000482559204 " id="svg_1265"/>
   <polygon class="cls-11" points="281.6099853515625,235.47000360488892 281.6099853515625,241.89000177383423 272.1300048828125,236.41000604629517 272.1300048828125,229.97999811172485 281.6099853515625,235.47000360488892 " id="svg_1266"/>
   <polygon class="cls-7" points="280.45001220703125,237.4300103187561 280.45001220703125,235.87001276016235 272.989990234375,231.57000970840454 272.989990234375,233.10000848770142 280.45001220703125,237.4300103187561 " id="svg_1267"/>
   <polygon class="cls-7" points="296.9200134277344,232.32000970840454 290.5199890136719,236.04001092910767 290.5199890136719,229.94999933242798 296.9200134277344,226.22999811172485 296.9200134277344,232.32000970840454 " id="svg_1268"/>
   <polygon class="cls-17" points="296.9200134277344,226.22999811172485 270.260009765625,210.8000054359436 263.80999755859375,214.53000116348267 290.5199890136719,229.96000909805298 296.9200134277344,226.22999811172485 " id="svg_1269"/>
   <polygon class="cls-14" points="324.8399963378906,226.65001153945923 324.8299865722656,215.08000421524048 343.3800048828125,204.35000848770142 343.3800048828125,215.9300103187561 324.8399963378906,226.65001153945923 " id="svg_1270"/>
   <polygon class="cls-15" points="324.8399963378906,226.65001153945923 324.8299865722656,215.08000421524048 303.1700134277344,202.55999994277954 303.1700134277344,214.1300072669983 324.8399963378906,226.65001153945923 " id="svg_1271"/>
   <polygon class="cls-16" points="303.1700134277344,202.55999994277954 324.8299865722656,215.08000421524048 343.3800048828125,204.35000848770142 321.7300109863281,191.83999872207642 303.1700134277344,202.55999994277954 " id="svg_1272"/>
   <polygon class="cls-7" points="326.2200012207031,224.53000116348267 326.2200012207031,223.33999872207642 332.45001220703125,219.72999811172485 332.45001220703125,220.94000482559204 326.2200012207031,224.53000116348267 " id="svg_1273"/>
   <polygon class="cls-7" points="326.2200012207031,222.40001153945923 326.2200012207031,221.19999933242798 332.45001220703125,217.58999872207642 332.45001220703125,218.8000054359436 326.2200012207031,222.40001153945923 " id="svg_1274"/>
   <polygon class="cls-7" points="307.80999755859375,207.2500023841858 307.80999755859375,212.64000177383423 304.1000061035156,210.49000787734985 304.1000061035156,205.11000299453735 307.80999755859375,207.2500023841858 " id="svg_1275"/>
   <polygon class="cls-11" points="323.3800048828125,216.28000116348267 323.3800048828125,222.71000909805298 313.8999938964844,217.22999811172485 313.8999938964844,210.79001092910767 323.3800048828125,216.28000116348267 " id="svg_1276"/>
   <polygon class="cls-7" points="322.2200012207031,218.2500023841858 322.2200012207031,216.6800103187561 314.760009765625,212.3800072669983 314.760009765625,213.9200005531311 322.2200012207031,218.2500023841858 " id="svg_1277"/>
   <polygon class="cls-7" points="338.69000244140625,213.14000177383423 332.2900085449219,216.86000299453735 332.2900085449219,210.7600121498108 338.69000244140625,207.04001092910767 338.69000244140625,213.14000177383423 " id="svg_1278"/>
   <polygon class="cls-17" points="338.69000244140625,207.04001092910767 317.05999755859375,194.53000116348267 310.6400146484375,198.24000787734985 332.2900085449219,210.78000116348267 338.69000244140625,207.04001092910767 " id="svg_1279"/>
   <polygon class="cls-14" points="277.67999267578125,227.77000665664673 277.67999267578125,218.83999872207642 290.45001220703125,211.47000360488892 290.45001220703125,220.4200005531311 277.67999267578125,227.77000665664673 " id="svg_1280"/>
   <polygon class="cls-15" points="277.67999267578125,227.77000665664673 277.67999267578125,218.83999872207642 262.8900146484375,210.28000116348267 262.8900146484375,219.21000909805298 277.67999267578125,227.77000665664673 " id="svg_1281"/>
   <polygon class="cls-16" points="262.8900146484375,210.28000116348267 277.67999267578125,218.83999872207642 290.45001220703125,211.47000360488892 275.6300048828125,202.91000604629517 262.8900146484375,210.28000116348267 " id="svg_1282"/>
   <polygon class="cls-7" points="278.75,226.14000177383423 278.75,225.22000360488892 283.55999755859375,222.4300103187561 283.55999755859375,223.36000299453735 278.75,226.14000177383423 " id="svg_1283"/>
   <polygon class="cls-7" points="278.75,224.49000787734985 278.75,223.57000970840454 283.55999755859375,220.78000116348267 283.55999755859375,221.71000909805298 278.75,224.49000787734985 " id="svg_1284"/>
   <polygon class="cls-7" points="267.1700134277344,214.6800103187561 267.1700134277344,218.83999872207642 264.29998779296875,217.1800103187561 264.29998779296875,213.02000665664673 267.1700134277344,214.6800103187561 " id="svg_1285"/>
   <polygon class="cls-11" points="269.8999938964844,215.78000116348267 269.8999938964844,220.69999933242798 263.92999267578125,217.2500023841858 263.92999267578125,212.35000848770142 269.8999938964844,215.78000116348267 " id="svg_1286"/>
   <polygon class="cls-7" points="269,216.97000360488892 269,216.0500054359436 264.6000061035156,213.5100121498108 264.6000061035156,214.4200005531311 269,216.97000360488892 " id="svg_1287"/>
   <polygon class="cls-7" points="286.7200012207031,213.58999872207642 283.44000244140625,215.5000023841858 283.44000244140625,220.21000909805298 286.7200012207031,218.3000054359436 286.7200012207031,213.58999872207642 " id="svg_1288"/>
   <polygon class="cls-17" points="286.7200012207031,213.58999872207642 271.94000244140625,205.0500054359436 268.6300048828125,206.94999933242798 283.44000244140625,215.5100121498108 286.7200012207031,213.58999872207642 " id="svg_1289"/>
  </g>
 </g>
</svg>