<svg width="636.7" height="444.62000000000006" xmlns="http://www.w3.org/2000/svg">
 <defs>
  <style>.cls-1{isolation:isolate;}.cls-2{fill:#5da5fd;}.cls-2,.cls-53{opacity:0.2;}.cls-2,.cls-52,.cls-53,.cls-59{mix-blend-mode:multiply;}.cls-3{fill:none;stroke:#3483ef;stroke-miterlimit:10;}.cls-4{fill:#3483ef;}.cls-5{fill:#e9faff;}.cls-6{fill:#ffad97;}.cls-7{fill:#4d4d4d;}.cls-8{fill:#5d588d;}.cls-9{fill:#d1406b;}.cls-10{fill:#ef4f77;}.cls-11{fill:#fff;}.cls-12{fill:#7c76ac;}.cls-13{fill:#ffc5b3;}.cls-14{fill:#dba763;}.cls-15{fill:#e8b679;}.cls-16{fill:#ffe1c0;}.cls-17{fill:#6d6d6d;}.cls-18{fill:#ffba76;}.cls-19{fill:#ffa543;}.cls-20{fill:#afafaf;}.cls-21{fill:#3a3a3a;}.cls-22{fill:#d3d3d3;}.cls-23{fill:#7c7c7c;}.cls-24{fill:#707070;}.cls-25{fill:#c1c1c1;}.cls-26{fill:#ddd;}.cls-27{fill:#cc8c46;}.cls-28{fill:#d89c55;}.cls-29{fill:#e8b470;}.cls-30{fill:#fc6181;}.cls-31{fill:#bf7e3d;}.cls-32{fill:#ed8e2f;}.cls-33{fill:#c96a1c;}.cls-34{fill:#d87923;}.cls-35{fill:#a3a3a3;}.cls-36{fill:#97a9dd;}.cls-37{fill:#8583b7;}.cls-38{fill:url(#linear-gradient);}.cls-39{fill:url(#linear-gradient-2);}.cls-40{fill:#222b2e;}.cls-41{fill:url(#linear-gradient-3);}.cls-42{fill:url(#linear-gradient-4);}.cls-43{fill:#0d1417;}.cls-44{fill:url(#linear-gradient-5);}.cls-45{fill:url(#linear-gradient-6);}.cls-46{fill:url(#linear-gradient-7);}.cls-47{fill:url(#linear-gradient-8);}.cls-48{fill:url(#linear-gradient-9);}.cls-49{fill:url(#linear-gradient-10);}.cls-50{fill:url(#linear-gradient-11);}.cls-51{fill:#518dca;}.cls-52{opacity:0.4;fill:url(#ÕÓ_È_Ó·_ÁÂ_ËÂÌÚ_2);}.cls-54,.cls-84{fill:#2e373a;}.cls-54,.cls-55,.cls-56,.cls-57{fill-rule:evenodd;}.cls-56{fill:#0e2841;}.cls-57,.cls-65{fill:#1c354e;}.cls-58{fill:#273438;}.cls-59{fill:#d78d68;opacity:0.15;}.cls-60{fill:#d4dbdf;}.cls-61{fill:#b52025;}.cls-62{fill:#344246;}.cls-63{fill:#e1e7eb;}.cls-64{fill:#414f53;}.cls-66{fill:#2e383b;}.cls-67{fill:#f1a882;}.cls-68{fill:#bac1c5;}.cls-69{fill:#d3dade;}.cls-70{fill:#eef5f8;}.cls-71{fill:#f7fbff;}.cls-72{fill:#151f22;}.cls-73{fill:#545f64;}.cls-74{fill:#626b6f;}.cls-75{fill:#3c4447;}.cls-76{fill:url(#linear-gradient-12);}.cls-77{fill:#c6cbcc;}.cls-78{fill:url(#linear-gradient-13);}.cls-79{fill:#293033;}.cls-80{fill:#6f787b;}.cls-81{fill:#babec0;}.cls-82{fill:url(#linear-gradient-14);}.cls-83{fill:#353f42;}.cls-85{fill:url(#linear-gradient-15);}.cls-86{fill:#2a373b;}.cls-87{fill:#3c4548;}.cls-88{fill:#161f21;}.cls-89{fill:url(#linear-gradient-16);}.cls-90{fill:#30393c;}.cls-91{fill:#a0a4a7;}.cls-92{fill:url(#linear-gradient-17);}.cls-93{fill:#878c8d;}.cls-94{fill:url(#linear-gradient-18);}.cls-95{fill:#80848a;}.cls-96{fill:url(#linear-gradient-19);}</style>
 </defs>
 <g>
  <title>background</title>
  <rect x="-1" y="-1" width="638.7" height="446.62" id="canvas_background" fill="none"/>
 </g>
 <g>
  <title>Layer 1</title>
  <g id="svg_1291">
   <path class="cls-5" d="m241.190013,235.534849l73.41,-42.39a8.26,8.26 0 0 1 7.5,0l73.42,42.39a2.63,2.63 0 0 1 1.55,2.16l0,4.64a2.64,2.64 0 0 1 -1.55,2.16l-73.46,42.39a8.26,8.26 0 0 1 -7.5,0l-73.37,-42.39a2.64,2.64 0 0 1 -1.56,-2.16l0,-4.64a2.62,2.62 0 0 1 1.56,-2.16z" id="svg_123"/>
   <path class="cls-2" d="m241.190013,239.854849l73.41,42.35a8.26,8.26 0 0 0 7.5,0l73.42,-42.39a2.63,2.63 0 0 0 1.55,-2.16l0,4.64a2.64,2.64 0 0 1 -1.55,2.16l-73.46,42.43a8.26,8.26 0 0 1 -7.5,0l-73.37,-42.39a2.64,2.64 0 0 1 -1.56,-2.16l0,-4.64a2.62,2.62 0 0 0 1.56,2.16z" id="svg_124"/>
   <path class="cls-7" d="m337.110013,225.504849s-0.87,1 -2,2.07s-1.4,1.35 -2.4,2.32c-0.58,0.57 -0.1,1.09 1,1.05a19.78,19.78 0 0 0 4.41,-1a22.09,22.09 0 0 0 3.3,-1.72a2.19,2.19 0 0 0 1,-1.24l0,-1.74l-5.31,0.26z" id="svg_343"/>
   <path class="cls-7" d="m352.950013,223.954849a14.18,14.18 0 0 1 -1.71,1.94a19.33,19.33 0 0 0 -2.34,2.71c-0.22,0.28 -0.34,1.1 0.77,1.06a14.8,14.8 0 0 0 3.69,-0.9c1.41,-0.5 2.59,-1.92 3.42,-2.44a3.4,3.4 0 0 0 1.18,-1.66l-0.57,-1.72l-4.44,1.01z" id="svg_344"/>
   <path class="cls-8" d="m352.510013,195.674849c0.41,-6.4 -3.12,-9.76 -3.12,-9.76c0.28,-2.16 -9.72,0.86 -9.72,0.86s-2.14,11.59 -3,17.69c-1,6.94 -0.41,21.06 -0.41,21.06s0.13,1.51 2.72,1.5a5.14,5.14 0 0 0 3.44,-1.74l0.21,-16.08l2.29,-11.4s2.21,9.27 2.91,12.59c0.75,3.54 3.61,14 3.61,14s1.85,2.13 4.14,1s1.85,-2.43 1.85,-2.43a46.47,46.47 0 0 0 -3.4,-14.07c-0.29,-5.06 -1.71,-10.28 -1.52,-13.22z" id="svg_345"/>
   <path class="cls-9" d="m341.060013,169.974849s-1.43,-0.07 -2.9,2.71s-2.89,5.72 -2.89,5.72a9.35,9.35 0 0 1 4.49,2.46c3.17,-2.89 3.7,-9.54 1.3,-10.89z" id="svg_346"/>
   <path class="cls-10" d="m341.060013,169.974849a23,23 0 0 0 -1.54,4.37c-0.74,2.83 -0.47,16 -0.47,16a13,13 0 0 0 8.15,1.73a6.92,6.92 0 0 0 4.58,-2.13s1.82,-12.88 1.57,-14.73s-4.11,-6.18 -4.11,-6.18s-5.12,-0.27 -8.18,0.94z" id="svg_347"/>
   <path class="cls-6" d="m344.540013,168.204849l-0.6,3.46s1.76,2 3.48,0.5s2,-2.16 2,-2.16l-0.84,-4.71l-4.04,2.91z" id="svg_348"/>
   <path class="cls-8" d="m345.290013,177.964849s2.23,-3.35 4,-4.28a10.89,10.89 0 0 1 2.71,-1.12s-0.64,-1.32 -1.07,-1.47a8.29,8.29 0 0 0 -2.87,1.11a12,12 0 0 0 -4,4c-1.36,2.52 0.21,3.18 1.23,1.76z" id="svg_349"/>
   <path class="cls-8" d="m341.720013,169.674849a27,27 0 0 0 -1.66,5.12c-0.18,1.66 0.16,2.17 0.82,2.23s0.71,-1.13 0.91,-2.45s1.4,-5.35 1.4,-5.35l-1.47,0.45z" id="svg_350"/>
   <path class="cls-8" d="m352.060013,188.114849a5.25,5.25 0 0 1 -3.28,1.09c-1.41,-0.16 -3.44,-1.53 -3.33,-6a42.84,42.84 0 0 1 0.52,-6.51l-5.38,-2.36s-1.47,3.38 -1.75,10s-0.41,8.93 -0.41,8.93a73.45,73.45 0 0 0 9.14,0a30.28,30.28 0 0 0 4.83,-0.77l-0.34,-4.38z" id="svg_351"/>
   <path class="cls-11" d="m341.180013,175.594849c0,0.27 -0.15,0.49 -0.34,0.49s-0.34,-0.22 -0.34,-0.49s0.15,-0.5 0.34,-0.5s0.34,0.22 0.34,0.5z" id="svg_352"/>
   <path class="cls-11" d="m344.410013,177.094849c-0.16,0.22 -0.17,0.49 0,0.6s0.4,0 0.56,-0.2s0.17,-0.49 0,-0.6s-0.4,-0.02 -0.56,0.2z" id="svg_353"/>
   <path class="cls-12" d="m340.120013,177.744849c-0.22,1.11 -0.1,4.62 1.88,5.15c1.8,0.48 2.27,-1.65 2.69,-3.29a18.15,18.15 0 0 1 -4.57,-1.86z" id="svg_354"/>
   <path class="cls-13" d="m346.970013,160.074849a4,4 0 0 0 -6.23,2.13c-1.33,3.78 2.08,8.49 3.9,7.69a7.64,7.64 0 0 0 3.77,-4a6,6 0 0 0 -1.44,-5.82z" id="svg_355"/>
   <polygon class="cls-14" points="332.9100036621094,201.1748504638672 332.9100036621094,187.47484588623047 343.94000244140625,181.97484588623047 343.94000244140625,194.8948516845703 332.9100036621094,201.1748504638672 " id="svg_356"/>
   <polygon class="cls-15" points="332.9100036621094,201.1748504638672 332.9100036621094,187.47484588623047 321.8699951171875,181.97484588623047 321.8699951171875,194.8948516845703 332.9100036621094,201.1748504638672 " id="svg_357"/>
   <polygon class="cls-14" points="332.9100036621094,201.28485107421875 332.9100036621094,187.47484588623047 343.94000244140625,181.0948486328125 343.94000244140625,194.8948516845703 332.9100036621094,201.28485107421875 " id="svg_358"/>
   <polygon class="cls-15" points="332.9100036621094,201.28485107421875 332.9100036621094,187.47484588623047 321.8699951171875,181.0948486328125 321.8699951171875,194.8948516845703 332.9100036621094,201.28485107421875 " id="svg_359"/>
   <polygon class="cls-16" points="321.8699951171875,181.0948486328125 332.9100036621094,187.47484588623047 343.94000244140625,181.0948486328125 332.9100036621094,174.72484588623047 321.8699951171875,181.0948486328125 " id="svg_360"/>
   <polygon class="cls-7" points="339.84002685546875,187.48484802246094 337.3800048828125,188.91484832763672 337.3800048828125,184.88484954833984 339.84002685546875,183.45484924316406 339.84002685546875,187.48484802246094 " id="svg_361"/>
   <polygon class="cls-17" points="339.84002685546875,183.45484924316406 328.82000732421875,177.08484649658203 326.3600158691406,178.5148468017578 337.3800048828125,184.8948516845703 339.84002685546875,183.45484924316406 " id="svg_362"/>
   <polygon class="cls-7" points="334.3699951171875,199.31484985351562 334.3699951171875,198.60485076904297 338.07000732421875,196.45484924316406 338.07000732421875,197.1748504638672 334.3699951171875,199.31484985351562 " id="svg_363"/>
   <polygon class="cls-7" points="334.3699951171875,198.0448455810547 334.3699951171875,197.33484649658203 338.07000732421875,195.18485260009766 338.07000732421875,195.90484619140625 334.3699951171875,198.0448455810547 " id="svg_364"/>
   <polygon class="cls-7" points="341.4000244140625,192.87484741210938 341.4000244140625,195.33484649658203 343.1700134277344,194.30484771728516 343.1700134277344,191.8448486328125 341.4000244140625,192.87484741210938 " id="svg_365"/>
   <polygon class="cls-7" points="324.3000183105469,192.61485290527344 324.3000183105469,195.1748504638672 322.530029296875,194.15484619140625 322.530029296875,191.5948486328125 324.3000183105469,192.61485290527344 " id="svg_366"/>
   <polygon class="cls-7" points="326.72003173828125,194.0148468017578 326.72003173828125,196.58484649658203 324.95001220703125,195.55484771728516 324.95001220703125,192.9948501586914 326.72003173828125,194.0148468017578 " id="svg_367"/>
   <polygon class="cls-11" points="326.1700134277344,185.11485290527344 326.1700134277344,188.7948455810547 322.530029296875,186.6948471069336 322.530029296875,183.00485229492188 326.1700134277344,185.11485290527344 " id="svg_368"/>
   <polygon class="cls-7" points="325.7300109863281,185.86485290527344 325.7300109863281,185.2648468017578 322.8600158691406,183.61485290527344 322.8600158691406,184.20484924316406 325.7300109863281,185.86485290527344 " id="svg_369"/>
   <path class="cls-13" d="m346.670013,181.894849s-2.09,4.39 -3,5.62a29.22,29.22 0 0 1 -5.1,4.43a7.57,7.57 0 0 1 -3.24,0.84c-0.87,-0.08 -1.45,0.34 -0.62,0.65a6.85,6.85 0 0 0 1.64,0.39a10.59,10.59 0 0 0 -2.12,2.08c-0.48,0.77 -0.89,2.19 1,1.78c1.51,-0.33 3.6,-2.65 4.15,-3.16c1,-1 5.16,-3.21 6.09,-3.87c1.32,-0.93 5,-6.42 5,-6.42s-1.08,-2.92 -3.8,-2.34z" id="svg_370"/>
   <path class="cls-9" d="m352.670013,173.614849c-1.08,-0.87 -3.4,2.09 -4.63,3.93a25.66,25.66 0 0 0 -2.22,4.66s1.49,1.08 2.81,1.91a22.31,22.31 0 0 0 2.29,1.24s5.47,-8.74 1.75,-11.74z" id="svg_371"/>
   <path class="cls-7" d="m340.440013,163.394849a3.36,3.36 0 0 0 3.31,1a7.37,7.37 0 0 0 2.57,-1l0.3,2a1.72,1.72 0 0 0 0.53,-0.19c0,-0.79 0.31,-1 0.75,-0.8s0.51,1.39 0.51,1.39a4.1,4.1 0 0 0 1,-3.69c-0.31,-1.4 -2.21,-4.18 -4.85,-3.93a4.87,4.87 0 0 0 -4.5,3.57a1.85,1.85 0 0 0 0.38,1.65z" id="svg_372"/>
   <path class="cls-8" d="m339.900013,161.664849s-3.4,2.39 -4,2.9s2.69,2.72 5,2a27.37,27.37 0 0 0 5.83,-3.36l-6.83,-1.54z" id="svg_373"/>
   <path class="cls-12" d="m339.900013,161.664849s3.88,2.41 6.3,1.72a8.64,8.64 0 0 0 3.08,-1.29s-0.21,-5.06 -4.66,-5.06s-4.72,4.63 -4.72,4.63z" id="svg_374"/>
   <path class="cls-8" d="m344.820013,157.204849c0,0.21 -0.3,0.37 -0.67,0.37s-0.67,-0.16 -0.67,-0.37s0.3,-0.37 0.67,-0.37s0.67,0.16 0.67,0.37z" id="svg_375"/>
   <polygon class="cls-32" points="340.3000183105469,235.16485595703125 314.0000305175781,250.36485290527344 314.80999755859375,250.8848419189453 341.20001220703125,235.6448516845703 340.3000183105469,235.16485595703125 " id="svg_376"/>
   <polygon class="cls-33" points="341.20001220703125,235.6448516845703 314.80999755859375,250.87484741210938 314.80999755859375,254.6348419189453 341.20001220703125,239.3948516845703 341.20001220703125,235.6448516845703 " id="svg_377"/>
   <polygon class="cls-34" points="314.0000305175781,254.16485595703125 314.0000305175781,250.36485290527344 314.80999755859375,250.87484741210938 314.80999755859375,254.6348419189453 314.0000305175781,254.16485595703125 " id="svg_378"/>
   <polygon class="cls-32" points="310.9300231933594,218.13484954833984 284.6300048828125,233.33485412597656 285.45001220703125,233.85484313964844 311.83001708984375,218.61485290527344 310.9300231933594,218.13484954833984 " id="svg_379"/>
   <polygon class="cls-33" points="311.83001708984375,218.61485290527344 285.45001220703125,233.8448486328125 285.45001220703125,237.60484313964844 311.83001708984375,222.36485290527344 311.83001708984375,218.61485290527344 " id="svg_380"/>
   <polygon class="cls-34" points="284.6300048828125,237.12484741210938 284.6300048828125,233.33485412597656 285.45001220703125,233.8448486328125 285.45001220703125,237.60484313964844 284.6300048828125,237.12484741210938 " id="svg_381"/>
   <polygon class="cls-32" points="325.19000244140625,226.23484802246094 298.8900146484375,241.43484497070312 299.71002197265625,241.94485473632812 326.09002685546875,226.71484375 325.19000244140625,226.23484802246094 " id="svg_382"/>
   <polygon class="cls-33" points="326.09002685546875,226.70484924316406 299.71002197265625,241.94485473632812 299.71002197265625,245.69485473632812 326.09002685546875,230.46484375 326.09002685546875,226.70484924316406 " id="svg_383"/>
   <polygon class="cls-34" points="298.8900146484375,245.224853515625 298.8900146484375,241.43484497070312 299.71002197265625,241.94485473632812 299.71002197265625,245.69485473632812 298.8900146484375,245.224853515625 " id="svg_384"/>
   <polygon class="cls-34" points="314.80999755859375,249.73484802246094 284.6300048828125,232.3048553466797 284.6300048828125,233.5148468017578 314.80999755859375,250.94485473632812 314.80999755859375,249.73484802246094 " id="svg_385"/>
   <polygon class="cls-32" points="317.9800109863281,247.96484375 314.80999755859375,249.73484802246094 284.6300048828125,232.3048553466797 287.780029296875,230.53485107421875 317.9800109863281,247.96484375 " id="svg_386"/>
   <polygon class="cls-33" points="317.9800109863281,247.96484375 314.80999755859375,249.73484802246094 314.80999755859375,251.99484252929688 317.9800109863281,250.1448516845703 317.9800109863281,247.96484375 " id="svg_387"/>
   <polygon class="cls-34" points="320.70001220703125,246.2648468017578 290.4300231933594,228.75485229492188 290.4300231933594,229.974853515625 320.70001220703125,247.474853515625 320.70001220703125,246.2648468017578 " id="svg_388"/>
   <polygon class="cls-32" points="323.8699951171875,244.49484252929688 320.70001220703125,246.2648468017578 290.4300231933594,228.75485229492188 293.58001708984375,226.98484802246094 323.8699951171875,244.49484252929688 " id="svg_389"/>
   <polygon class="cls-33" points="323.8699951171875,244.49484252929688 320.70001220703125,246.2648468017578 320.70001220703125,248.5248565673828 323.8699951171875,246.68484497070312 323.8699951171875,244.49484252929688 " id="svg_390"/>
   <polygon class="cls-34" points="326.7300109863281,242.8448486328125 296.3900146484375,225.30484771728516 296.3900146484375,226.5248565673828 326.7300109863281,244.0548553466797 326.7300109863281,242.8448486328125 " id="svg_391"/>
   <polygon class="cls-32" points="329.8900146484375,241.07484436035156 326.7300109863281,242.8448486328125 296.3900146484375,225.30484771728516 299.5400085449219,223.53485107421875 329.8900146484375,241.07484436035156 " id="svg_392"/>
   <polygon class="cls-33" points="329.8900146484375,241.07484436035156 326.7300109863281,242.8448486328125 326.7300109863281,245.10484313964844 329.8900146484375,243.2648468017578 329.8900146484375,241.07484436035156 " id="svg_393"/>
   <polygon class="cls-34" points="332.6199951171875,239.37484741210938 302.3500061035156,221.9448471069336 302.3500061035156,223.16484832763672 332.6199951171875,240.5948486328125 332.6199951171875,239.37484741210938 " id="svg_394"/>
   <polygon class="cls-32" points="335.780029296875,237.60484313964844 332.6199951171875,239.37484741210938 302.3500061035156,221.9448471069336 305.5,220.1748504638672 335.780029296875,237.60484313964844 " id="svg_395"/>
   <polygon class="cls-33" points="335.780029296875,237.60484313964844 332.6199951171875,239.37484741210938 332.6199951171875,241.6348419189453 335.780029296875,239.7948455810547 335.780029296875,237.60484313964844 " id="svg_396"/>
   <polygon class="cls-34" points="338.030029296875,236.33485412597656 307.69000244140625,218.83484649658203 307.69000244140625,220.0448455810547 338.030029296875,237.5448455810547 338.030029296875,236.33485412597656 " id="svg_397"/>
   <polygon class="cls-32" points="341.20001220703125,234.56484985351562 338.030029296875,236.33485412597656 307.69000244140625,218.83484649658203 310.84002685546875,217.06484985351562 341.20001220703125,234.56484985351562 " id="svg_398"/>
   <polygon class="cls-33" points="341.20001220703125,234.56484985351562 338.030029296875,236.33485412597656 338.030029296875,238.5948486328125 341.20001220703125,236.75485229492188 341.20001220703125,234.56484985351562 " id="svg_399"/>
   <polygon class="cls-14" points="301.3500061035156,239.69485473632812 301.3500061035156,230.2948455810547 287.71002197265625,222.41484832763672 287.71002197265625,231.7948455810547 301.3500061035156,239.69485473632812 " id="svg_400"/>
   <polygon class="cls-15" points="301.3500061035156,239.69485473632812 301.3500061035156,230.2948455810547 320.9800109863281,218.95484924316406 320.9800109863281,228.33485412597656 301.3500061035156,239.69485473632812 " id="svg_401"/>
   <polygon class="cls-16" points="320.9800109863281,218.95484924316406 301.3500061035156,230.2948455810547 287.71002197265625,222.41484832763672 307.3500061035156,211.0748519897461 320.9800109863281,218.95484924316406 " id="svg_402"/>
   <polygon class="cls-7" points="292.780029296875,230.3048553466797 295.82000732421875,232.07484436035156 295.82000732421875,227.0948486328125 292.780029296875,225.3248519897461 292.780029296875,230.3048553466797 " id="svg_403"/>
   <polygon class="cls-17" points="292.780029296875,225.3248519897461 312.4000244140625,213.9948501586914 315.45001220703125,215.75485229492188 295.82000732421875,227.0948486328125 292.780029296875,225.3248519897461 " id="svg_404"/>
   <polygon class="cls-7" points="300.33001708984375,238.1448516845703 300.33001708984375,237.2648468017578 295.75,234.60484313964844 295.75,235.49484252929688 300.33001708984375,238.1448516845703 " id="svg_405"/>
   <polygon class="cls-7" points="300.33001708984375,236.57484436035156 300.33001708984375,235.69485473632812 295.75,233.0448455810547 295.75,233.9248504638672 300.33001708984375,236.57484436035156 " id="svg_406"/>
   <polygon class="cls-7" points="318.22003173828125,225.66484832763672 318.22003173828125,228.83485412597656 320.4100036621094,227.57484436035156 320.4100036621094,224.40484619140625 318.22003173828125,225.66484832763672 " id="svg_407"/>
   <polygon class="cls-7" points="315.2300109863281,227.3948516845703 315.2300109863281,230.57484436035156 317.4200134277344,229.3048553466797 317.4200134277344,226.13484954833984 315.2300109863281,227.3948516845703 " id="svg_408"/>
   <polygon class="cls-7" points="312.21002197265625,229.1348419189453 312.21002197265625,232.3048553466797 314.4000244140625,231.0448455810547 314.4000244140625,227.87484741210938 312.21002197265625,229.1348419189453 " id="svg_409"/>
   <polygon class="cls-11" points="301.94000244140625,230.68484497070312 301.94000244140625,235.24484252929688 306.44000244140625,232.6448516845703 306.44000244140625,228.08485412597656 301.94000244140625,230.68484497070312 " id="svg_410"/>
   <polygon class="cls-7" points="302.4900207519531,231.61485290527344 302.4900207519531,230.87484741210938 306.030029296875,228.83485412597656 306.030029296875,229.56484985351562 302.4900207519531,231.61485290527344 " id="svg_411"/>
   <polygon class="cls-14" points="316.32000732421875,248.48484802246094 316.32000732421875,239.08485412597656 302.6800231933594,231.19485473632812 302.6800231933594,240.57484436035156 316.32000732421875,248.48484802246094 " id="svg_412"/>
   <polygon class="cls-15" points="316.32000732421875,248.48484802246094 316.32000732421875,239.08485412597656 335.95001220703125,227.73484802246094 335.95001220703125,237.11485290527344 316.32000732421875,248.48484802246094 " id="svg_413"/>
   <polygon class="cls-16" points="335.95001220703125,227.73484802246094 316.32000732421875,239.07484436035156 302.6800231933594,231.19485473632812 322.32000732421875,219.85485076904297 335.95001220703125,227.73484802246094 " id="svg_414"/>
   <polygon class="cls-7" points="307.75,239.08485412597656 310.8000183105469,240.85484313964844 310.8000183105469,235.87484741210938 307.75,234.10484313964844 307.75,239.08485412597656 " id="svg_415"/>
   <polygon class="cls-17" points="307.75,234.10484313964844 327.3699951171875,222.77484893798828 330.4200134277344,224.5448455810547 310.8000183105469,235.8848419189453 307.75,234.10484313964844 " id="svg_416"/>
   <polygon class="cls-7" points="315.3000183105469,246.9248504638672 315.3000183105469,246.0448455810547 310.72003173828125,243.3948516845703 310.72003173828125,244.28485107421875 315.3000183105469,246.9248504638672 " id="svg_417"/>
   <polygon class="cls-7" points="315.3000183105469,245.35484313964844 315.3000183105469,244.474853515625 310.72003173828125,241.82484436035156 310.72003173828125,242.71484375 315.3000183105469,245.35484313964844 " id="svg_418"/>
   <polygon class="cls-7" points="333.19000244140625,234.44485473632812 333.19000244140625,237.61485290527344 335.3800048828125,236.35484313964844 335.3800048828125,233.18484497070312 333.19000244140625,234.44485473632812 " id="svg_419"/>
   <polygon class="cls-7" points="330.21002197265625,236.1748504638672 330.21002197265625,239.35484313964844 332.4000244140625,238.08485412597656 332.4000244140625,234.91485595703125 330.21002197265625,236.1748504638672 " id="svg_420"/>
   <polygon class="cls-7" points="327.1800231933594,237.91485595703125 327.1800231933594,241.0948486328125 329.3699951171875,239.82484436035156 329.3699951171875,236.65484619140625 327.1800231933594,237.91485595703125 " id="svg_421"/>
   <polygon class="cls-11" points="316.9100036621094,239.46484375 316.9100036621094,244.0248565673828 321.4100036621094,241.4248504638672 321.4100036621094,236.86485290527344 316.9100036621094,239.46484375 " id="svg_422"/>
   <polygon class="cls-7" points="317.47003173828125,240.40484619140625 317.47003173828125,239.65484619140625 321.010009765625,237.61485290527344 321.010009765625,238.3448486328125 317.47003173828125,240.40484619140625 " id="svg_423"/>
   <polygon class="cls-14" points="301.3500061035156,229.32484436035156 301.3500061035156,219.9248504638672 287.71002197265625,212.0448455810547 287.71002197265625,221.4248504638672 301.3500061035156,229.32484436035156 " id="svg_424"/>
   <polygon class="cls-15" points="301.3500061035156,229.32484436035156 301.3500061035156,219.9248504638672 320.9800109863281,208.58484649658203 320.9800109863281,217.96485137939453 301.3500061035156,229.32484436035156 " id="svg_425"/>
   <polygon class="cls-16" points="320.9800109863281,208.58484649658203 301.3500061035156,219.9248504638672 287.71002197265625,212.0448455810547 307.3500061035156,200.70484924316406 320.9800109863281,208.58484649658203 " id="svg_426"/>
   <polygon class="cls-7" points="292.780029296875,219.93485260009766 295.82000732421875,221.70484924316406 295.82000732421875,216.72484588623047 292.780029296875,214.95484924316406 292.780029296875,219.93485260009766 " id="svg_427"/>
   <polygon class="cls-17" points="292.780029296875,214.95484924316406 312.4000244140625,203.62484741210938 315.45001220703125,205.38484954833984 295.82000732421875,216.72484588623047 292.780029296875,214.95484924316406 " id="svg_428"/>
   <polygon class="cls-7" points="300.33001708984375,227.7748565673828 300.33001708984375,226.8948516845703 295.75,224.23484802246094 295.75,225.12484741210938 300.33001708984375,227.7748565673828 " id="svg_429"/>
   <polygon class="cls-7" points="300.33001708984375,226.20484924316406 300.33001708984375,225.3248519897461 295.75,222.66484832763672 295.75,223.55484771728516 300.33001708984375,226.20484924316406 " id="svg_430"/>
   <polygon class="cls-7" points="318.22003173828125,215.2948455810547 318.22003173828125,218.46485137939453 320.4100036621094,217.20484924316406 320.4100036621094,214.03485107421875 318.22003173828125,215.2948455810547 " id="svg_431"/>
   <polygon class="cls-7" points="315.2300109863281,217.02484893798828 315.2300109863281,220.20484924316406 317.4200134277344,218.93485260009766 317.4200134277344,215.7648468017578 315.2300109863281,217.02484893798828 " id="svg_432"/>
   <polygon class="cls-7" points="312.21002197265625,218.7648468017578 312.21002197265625,221.93485260009766 314.4000244140625,220.6748504638672 314.4000244140625,217.50485229492188 312.21002197265625,218.7648468017578 " id="svg_433"/>
   <polygon class="cls-11" points="301.94000244140625,220.31484985351562 301.94000244140625,224.87484741210938 306.44000244140625,222.27484893798828 306.44000244140625,217.71485137939453 301.94000244140625,220.31484985351562 " id="svg_434"/>
   <polygon class="cls-7" points="302.4900207519531,221.2448501586914 302.4900207519531,220.50485229492188 306.030029296875,218.46485137939453 306.030029296875,219.1948471069336 302.4900207519531,221.2448501586914 " id="svg_435"/>
   <polygon class="cls-14" points="316.32000732421875,238.10484313964844 316.32000732421875,228.70484924316406 302.6800231933594,220.8248519897461 302.6800231933594,230.20484924316406 316.32000732421875,238.10484313964844 " id="svg_436"/>
   <polygon class="cls-15" points="316.32000732421875,238.10484313964844 316.32000732421875,228.70484924316406 335.95001220703125,217.36485290527344 335.95001220703125,226.74484252929688 316.32000732421875,238.10484313964844 " id="svg_437"/>
   <polygon class="cls-16" points="335.95001220703125,217.36485290527344 316.32000732421875,228.70484924316406 302.6800231933594,220.8248519897461 322.32000732421875,209.48484802246094 335.95001220703125,217.36485290527344 " id="svg_438"/>
   <polygon class="cls-7" points="307.75,228.71484375 310.8000183105469,230.48484802246094 310.8000183105469,225.50485229492188 307.75,223.73484802246094 307.75,228.71484375 " id="svg_439"/>
   <polygon class="cls-17" points="307.75,223.73484802246094 327.3699951171875,212.40484619140625 330.4200134277344,214.1748504638672 310.8000183105469,225.5148468017578 307.75,223.73484802246094 " id="svg_440"/>
   <polygon class="cls-7" points="315.3000183105469,236.5548553466797 315.3000183105469,235.6748504638672 310.72003173828125,233.0148468017578 310.72003173828125,233.91485595703125 315.3000183105469,236.5548553466797 " id="svg_441"/>
   <polygon class="cls-7" points="315.3000183105469,234.98484802246094 315.3000183105469,234.10484313964844 310.72003173828125,231.45484924316406 310.72003173828125,232.3448486328125 315.3000183105469,234.98484802246094 " id="svg_442"/>
   <polygon class="cls-7" points="333.19000244140625,224.0748519897461 333.19000244140625,227.24484252929688 335.3800048828125,225.98484802246094 335.3800048828125,222.81484985351562 333.19000244140625,224.0748519897461 " id="svg_443"/>
   <polygon class="cls-7" points="330.21002197265625,225.80484771728516 330.21002197265625,228.98484802246094 332.4000244140625,227.71484375 332.4000244140625,224.5448455810547 330.21002197265625,225.80484771728516 " id="svg_444"/>
   <polygon class="cls-7" points="327.1800231933594,227.5448455810547 327.1800231933594,230.724853515625 329.3699951171875,229.45484924316406 329.3699951171875,226.28485107421875 327.1800231933594,227.5448455810547 " id="svg_445"/>
   <polygon class="cls-11" points="316.9100036621094,229.0948486328125 316.9100036621094,233.65484619140625 321.4100036621094,231.0548553466797 321.4100036621094,226.49484252929688 316.9100036621094,229.0948486328125 " id="svg_446"/>
   <polygon class="cls-7" points="317.47003173828125,230.03485107421875 317.47003173828125,229.28485107421875 321.010009765625,227.24484252929688 321.010009765625,227.974853515625 317.47003173828125,230.03485107421875 " id="svg_447"/>
   <polygon class="cls-14" points="315.84002685546875,226.86485290527344 315.83001708984375,215.0748519897461 332.94000244140625,205.18485260009766 332.94000244140625,216.95484924316406 315.84002685546875,226.86485290527344 " id="svg_448"/>
   <polygon class="cls-15" points="315.84002685546875,226.86485290527344 315.83001708984375,215.0748519897461 291.21002197265625,200.85485076904297 291.21002197265625,212.61485290527344 315.84002685546875,226.86485290527344 " id="svg_449"/>
   <polygon class="cls-16" points="291.21002197265625,200.85485076904297 315.83001708984375,215.0748519897461 332.94000244140625,205.18485260009766 308.30999755859375,190.96485137939453 291.21002197265625,200.85485076904297 " id="svg_450"/>
   <polygon class="cls-7" points="326.58001708984375,215.08484649658203 322.760009765625,217.30484771728516 322.760009765625,211.05484771728516 326.58001708984375,208.8448486328125 326.58001708984375,215.08484649658203 " id="svg_451"/>
   <polygon class="cls-17" points="326.58001708984375,208.8448486328125 301.97003173828125,194.62484741210938 298.1500244140625,196.8448486328125 322.760009765625,211.06484985351562 326.58001708984375,208.8448486328125 " id="svg_452"/>
   <polygon class="cls-7" points="317.1100158691406,224.91484832763672 317.1100158691406,223.81484985351562 322.8600158691406,220.48484802246094 322.8600158691406,221.5948486328125 317.1100158691406,224.91484832763672 " id="svg_453"/>
   <polygon class="cls-7" points="317.1100158691406,222.9448471069336 317.1100158691406,221.8448486328125 322.8600158691406,218.5148468017578 322.8600158691406,219.63484954833984 317.1100158691406,222.9448471069336 " id="svg_454"/>
   <polygon class="cls-7" points="294.6700134277344,209.2648468017578 294.6700134277344,213.2448501586914 291.9200134277344,211.65484619140625 291.9200134277344,207.6748504638672 294.6700134277344,209.2648468017578 " id="svg_455"/>
   <polygon class="cls-7" points="298.4200134277344,211.43485260009766 298.4200134277344,215.41484832763672 295.6700134277344,213.83484649658203 295.6700134277344,209.85485076904297 298.4200134277344,211.43485260009766 " id="svg_456"/>
   <polygon class="cls-7" points="302.21002197265625,213.62484741210938 302.21002197265625,217.5948486328125 299.4700012207031,216.0148468017578 299.4700012207031,212.03485107421875 302.21002197265625,213.62484741210938 " id="svg_457"/>
   <polygon class="cls-11" points="315.09002685546875,215.56484985351562 315.09002685546875,221.28485107421875 309.44000244140625,218.02484893798828 309.44000244140625,212.2948455810547 315.09002685546875,215.56484985351562 " id="svg_458"/>
   <polygon class="cls-7" points="314.4000244140625,216.73484802246094 314.4000244140625,215.80484771728516 309.96002197265625,213.2448501586914 309.96002197265625,214.15484619140625 314.4000244140625,216.73484802246094 " id="svg_459"/>
   <polygon class="cls-14" points="296.7300109863281,214.0748519897461 296.7300109863281,207.1748504638672 307.77001953125,200.78485107421875 307.77001953125,207.6748504638672 296.7300109863281,214.0748519897461 " id="svg_460"/>
   <polygon class="cls-15" points="296.7300109863281,214.0748519897461 296.7300109863281,207.1748504638672 280.83001708984375,197.98484802246094 280.83001708984375,204.87484741210938 296.7300109863281,214.0748519897461 " id="svg_461"/>
   <polygon class="cls-16" points="280.83001708984375,198.00485229492188 296.7300109863281,207.18485260009766 307.77001953125,200.7948455810547 291.8700256347656,191.61485290527344 280.83001708984375,198.00485229492188 " id="svg_462"/>
   <polygon class="cls-7" points="297.55999755859375,212.81484985351562 297.55999755859375,212.10485076904297 301.260009765625,209.95484924316406 301.260009765625,210.6748504638672 297.55999755859375,212.81484985351562 " id="svg_463"/>
   <polygon class="cls-7" points="297.55999755859375,211.5448455810547 297.55999755859375,210.83484649658203 301.260009765625,208.68485260009766 301.260009765625,209.40484619140625 297.55999755859375,211.5448455810547 " id="svg_464"/>
   <polygon class="cls-7" points="283.58001708984375,200.77484893798828 283.58001708984375,203.98484802246094 281.3700256347656,202.70484924316406 281.3700256347656,199.4948501586914 283.58001708984375,200.77484893798828 " id="svg_465"/>
   <polygon class="cls-7" points="286.6000061035156,202.52484893798828 286.6000061035156,205.73484802246094 284.3900146484375,204.45484924316406 284.3900146484375,201.2448501586914 286.6000061035156,202.52484893798828 " id="svg_466"/>
   <polygon class="cls-11" points="295.8600158691406,207.90484619140625 295.8600158691406,211.72484588623047 290.2200012207031,208.46485137939453 290.2200012207031,204.63484954833984 295.8600158691406,207.90484619140625 " id="svg_467"/>
   <polygon class="cls-7" points="295.1700134277344,209.0748519897461 295.1700134277344,208.1448516845703 290.7300109863281,205.58484649658203 290.7300109863281,206.4948501586914 295.1700134277344,209.0748519897461 " id="svg_468"/>
   <polygon class="cls-7" points="304.9800109863281,206.03485107421875 301.1700134277344,208.2448501586914 301.1700134277344,204.61485290527344 304.9800109863281,202.3948516845703 304.9800109863281,206.03485107421875 " id="svg_469"/>
   <polygon class="cls-17" points="304.9800109863281,202.3948516845703 289.1100158691406,193.21485137939453 285.27001953125,195.43485260009766 301.1700134277344,204.62484741210938 304.9800109863281,202.3948516845703 " id="svg_470"/>
   <path class="cls-13" d="m279.780013,208.904849c0.91,-3.11 1.38,-6.53 -0.17,-9l-3.36,0.08a24.75,24.75 0 0 0 -1.71,5.15a4.63,4.63 0 0 0 1,4.3c0.88,1 4,-0.35 4.12,-0.42l0.12,-0.11z" id="svg_471"/>
   <path class="cls-7" d="m288.980013,257.204849s3.61,-1.61 5.4,-1.69s2,2 0,3.65s-3.46,1.84 -5.06,2.5c-1.45,0.6 -2,0.64 -3.12,-0.11c-1.54,-1 -0.31,-3.63 -0.31,-3.63l3.09,-0.72z" id="svg_472"/>
   <path class="cls-7" d="m278.540013,250.994849a18.27,18.27 0 0 1 4.65,-1.28c1.79,-0.07 2.43,1.47 0.47,3.1a14.81,14.81 0 0 1 -4.79,2.64c-1.44,0.6 -2,0.63 -3.11,-0.1c-1.59,-1 -0.35,-3.64 -0.31,-3.64l3.09,-0.72z" id="svg_473"/>
   <path class="cls-8" d="m289.210013,215.414849s3.15,17 3.15,22.38c0,9.43 -0.08,19.36 -0.08,19.36s-1.56,1.64 -3.08,1.64c-3.43,0 -3.77,-1.71 -3.77,-1.71s0,-11.24 -0.35,-16.35c-0.21,-3.55 -0.41,-8.55 -1.84,-12.68c0,4.24 0,5.6 -0.38,10.22c-0.26,3.4 -1.68,12.54 -1.75,13.14c-1.09,1.31 -4.45,2.21 -6.16,0.29c0.11,-1.5 1.11,-12.06 0.96,-17.5c-0.11,-5 -1.4,-16.94 1.48,-19.26c2.48,-2.04 11.82,0.47 11.82,0.47z" id="svg_474"/>
   <path class="cls-32" d="m280.500013,204.564849a22.29,22.29 0 0 0 -0.54,-4l1.68,-5.33a3.31,3.31 0 0 0 -3.94,0.71a35.12,35.12 0 0 0 -2.93,5.36a6.8,6.8 0 0 0 5.73,3.26z" id="svg_475"/>
   <path class="cls-13" d="m285.180013,184.804849a3.31,3.31 0 0 0 -4.72,1.62c-0.58,1.22 0.24,4.52 0.37,6.83a5.59,5.59 0 0 1 -0.52,3l1.6,0.66a4.83,4.83 0 0 0 3.27,0l0,-2.85a7.92,7.92 0 0 0 2,-0.53c0.72,-0.67 1.11,-2.65 0.77,-5.2c-0.52,-3.85 -2.3,-3.21 -2.77,-3.53z" id="svg_476"/>
   <path class="cls-19" d="m289.500013,205.204849c1,-2 -1.19,-5.68 -1.8,-7a5.42,5.42 0 0 0 -2.52,-2.12a33,33 0 0 0 -3.54,-1.09c-0.4,-0.06 -1.79,-0.15 -1.79,-0.15s-3.06,4.81 -3.4,7.46c-0.23,1.86 0.78,7.93 0,13.9c-0.39,3.2 11.61,2.31 12.61,1c-0.61,-3 -1.49,-7.85 0.44,-12z" id="svg_477"/>
   <path class="cls-8" d="m276.590013,206.534849a39.14,39.14 0 0 1 -0.17,6.36c-0.38,2.38 -0.61,6.07 -0.61,6.07a11.22,11.22 0 0 0 7.31,2.18a13.81,13.81 0 0 0 6.63,-2.74s-1.31,-6.7 -1.23,-7.53l0.07,-0.82a3.76,3.76 0 0 1 -2.45,0.31a4.51,4.51 0 0 1 -3,-3.55a36.17,36.17 0 0 1 0,-6.81c-0.19,0 -5.06,-1.45 -5.06,-1.45a31.88,31.88 0 0 0 -1.49,7.98z" id="svg_478"/>
   <path class="cls-7" d="m286.730013,189.284849c0.2,-0.63 0.63,-2.12 0.74,-2.71a2.92,2.92 0 0 0 -0.78,-2.71c-1,-1 -4.23,-1.3 -5.42,-0.61s-3.71,1.94 -2.83,6c0.71,3.31 1.4,3.68 2.4,4.46a5.75,5.75 0 0 0 2.42,0.85a2.87,2.87 0 0 0 1,-1.87c0,-0.4 0,-1.6 0,-1.6s-0.88,-1.73 -0.2,-2.34s1.46,0.38 1.63,0.81c0.6,1.51 1.19,2.2 1.04,-0.28z" id="svg_479"/>
   <path class="cls-13" d="m302.730013,210.204849a24.2,24.2 0 0 1 -6.94,-0.72a19.56,19.56 0 0 1 -4.36,-1.8a29.67,29.67 0 0 1 -1.27,-3.26l-4.38,1.78s1.11,2.95 1.76,4.3c0.52,1.09 1.17,1.3 2.21,1.68c1.51,0.56 6,0.72 7.73,1a9.87,9.87 0 0 0 3.9,-0.21c2.15,-0.56 1.43,-2.18 1.35,-2.77z" id="svg_480"/>
   <path class="cls-32" d="m285.770013,207.544849a5.42,5.42 0 0 0 5.49,-1.78c-0.84,-3.83 -2.19,-8 -4,-8.61c-1,-0.33 -2.77,3.11 -2.46,5.55c0.04,0.68 0.46,2.6 0.97,4.84z" id="svg_481"/>
   <path class="cls-12" d="m276.060013,215.664849l-0.16,1.69s2.28,1.95 7.2,2.06s6.51,-1.57 6.51,-1.57l-0.29,-1.73a13.23,13.23 0 0 1 -6.36,1.66a12.88,12.88 0 0 1 -6.9,-2.11z" id="svg_482"/>
   <path class="cls-8" d="m281.640013,200.524849a8.62,8.62 0 0 1 1.56,-3.24a4,4 0 0 1 2,-1.16s1,0.28 1,0.57a4.93,4.93 0 0 0 -2.14,1.7a13.52,13.52 0 0 0 -1,3.13l-1.42,-1z" id="svg_483"/>
   <path class="cls-8" d="m279.660013,194.884849a12.63,12.63 0 0 0 -1.6,3.51a30.76,30.76 0 0 0 -0.6,3.13l1,0.12s0.91,-3.53 1.42,-4.8a15.23,15.23 0 0 1 0.9,-1.9l-1.12,-0.06z" id="svg_484"/>
   <path class="cls-13" d="m300.260013,210.714849a15.72,15.72 0 0 0 1.65,-1.51c0.41,-0.49 0.76,-0.36 0.62,0.18a5.92,5.92 0 0 1 -0.86,1.46s-1,-0.08 -1.23,-0.08l-0.18,-0.05z" id="svg_485"/>
   <path class="cls-12" d="m285.150013,183.964849c2.4,0.25 3.35,1.82 2.12,3.51a7.85,7.85 0 0 1 -6.56,2.61c-2.4,-0.25 -3.35,-1.83 -2.12,-3.52a7.82,7.82 0 0 1 6.56,-2.6z" id="svg_486"/>
   <path class="cls-12" d="m278.120013,188.484849s-1.42,-4.87 2.94,-6.28c3.11,-1.06 5.44,0.17 6.7,3.36c0.73,1.89 -9.64,2.92 -9.64,2.92z" id="svg_487"/>
   <path class="cls-8" d="m286.060013,188.654849a4.34,4.34 0 0 0 1.37,-3.69a11.32,11.32 0 0 0 -0.6,-1.18s0.43,-0.23 2.21,0.14s2.11,2 0.73,3.1a7.85,7.85 0 0 1 -3.71,1.63z" id="svg_488"/>
  </g>
 </g>
</svg>