<svg width="636.7" height="444.62000000000006" xmlns="http://www.w3.org/2000/svg">
 <defs>
  <style>.cls-1{isolation:isolate;}.cls-2{fill:#5da5fd;}.cls-2,.cls-53{opacity:0.2;}.cls-2,.cls-52,.cls-53,.cls-59{mix-blend-mode:multiply;}.cls-3{fill:none;stroke:#3483ef;stroke-miterlimit:10;}.cls-4{fill:#3483ef;}.cls-5{fill:#e9faff;}.cls-6{fill:#ffad97;}.cls-7{fill:#4d4d4d;}.cls-8{fill:#5d588d;}.cls-9{fill:#d1406b;}.cls-10{fill:#ef4f77;}.cls-11{fill:#fff;}.cls-12{fill:#7c76ac;}.cls-13{fill:#ffc5b3;}.cls-14{fill:#dba763;}.cls-15{fill:#e8b679;}.cls-16{fill:#ffe1c0;}.cls-17{fill:#6d6d6d;}.cls-18{fill:#ffba76;}.cls-19{fill:#ffa543;}.cls-20{fill:#afafaf;}.cls-21{fill:#3a3a3a;}.cls-22{fill:#d3d3d3;}.cls-23{fill:#7c7c7c;}.cls-24{fill:#707070;}.cls-25{fill:#c1c1c1;}.cls-26{fill:#ddd;}.cls-27{fill:#cc8c46;}.cls-28{fill:#d89c55;}.cls-29{fill:#e8b470;}.cls-30{fill:#fc6181;}.cls-31{fill:#bf7e3d;}.cls-32{fill:#ed8e2f;}.cls-33{fill:#c96a1c;}.cls-34{fill:#d87923;}.cls-35{fill:#a3a3a3;}.cls-36{fill:#97a9dd;}.cls-37{fill:#8583b7;}.cls-38{fill:url(#linear-gradient);}.cls-39{fill:url(#linear-gradient-2);}.cls-40{fill:#222b2e;}.cls-41{fill:url(#linear-gradient-3);}.cls-42{fill:url(#linear-gradient-4);}.cls-43{fill:#0d1417;}.cls-44{fill:url(#linear-gradient-5);}.cls-45{fill:url(#linear-gradient-6);}.cls-46{fill:url(#linear-gradient-7);}.cls-47{fill:url(#linear-gradient-8);}.cls-48{fill:url(#linear-gradient-9);}.cls-49{fill:url(#linear-gradient-10);}.cls-50{fill:url(#linear-gradient-11);}.cls-51{fill:#518dca;}.cls-52{opacity:0.4;fill:url(#ÕÓ_È_Ó·_ÁÂ_ËÂÌÚ_2);}.cls-54,.cls-84{fill:#2e373a;}.cls-54,.cls-55,.cls-56,.cls-57{fill-rule:evenodd;}.cls-56{fill:#0e2841;}.cls-57,.cls-65{fill:#1c354e;}.cls-58{fill:#273438;}.cls-59{fill:#d78d68;opacity:0.15;}.cls-60{fill:#d4dbdf;}.cls-61{fill:#b52025;}.cls-62{fill:#344246;}.cls-63{fill:#e1e7eb;}.cls-64{fill:#414f53;}.cls-66{fill:#2e383b;}.cls-67{fill:#f1a882;}.cls-68{fill:#bac1c5;}.cls-69{fill:#d3dade;}.cls-70{fill:#eef5f8;}.cls-71{fill:#f7fbff;}.cls-72{fill:#151f22;}.cls-73{fill:#545f64;}.cls-74{fill:#626b6f;}.cls-75{fill:#3c4447;}.cls-76{fill:url(#linear-gradient-12);}.cls-77{fill:#c6cbcc;}.cls-78{fill:url(#linear-gradient-13);}.cls-79{fill:#293033;}.cls-80{fill:#6f787b;}.cls-81{fill:#babec0;}.cls-82{fill:url(#linear-gradient-14);}.cls-83{fill:#353f42;}.cls-85{fill:url(#linear-gradient-15);}.cls-86{fill:#2a373b;}.cls-87{fill:#3c4548;}.cls-88{fill:#161f21;}.cls-89{fill:url(#linear-gradient-16);}.cls-90{fill:#30393c;}.cls-91{fill:#a0a4a7;}.cls-92{fill:url(#linear-gradient-17);}.cls-93{fill:#878c8d;}.cls-94{fill:url(#linear-gradient-18);}.cls-95{fill:#80848a;}.cls-96{fill:url(#linear-gradient-19);}</style>
 </defs>
 <g>
  <title>background</title>
  <rect x="-1" y="-1" width="638.7" height="446.62" id="canvas_background" fill="none"/>
 </g>
 <g>
  <title>Layer 1</title>
  <g id="svg_1293">
   <path stroke-width="0" class="cls-5" d="m241.184999,229.43483l73.42,-42.39a8.26,8.26 0 0 1 7.5,0l73.41,42.39a2.61,2.61 0 0 1 1.55,2.16l0,4.64a2.61,2.61 0 0 1 -1.55,2.2l-73.4,42.36a8.26,8.26 0 0 1 -7.5,0l-73.43,-42.36a2.63,2.63 0 0 1 -1.55,-2.16l0,-4.64a2.63,2.63 0 0 1 1.55,-2.2z" id="svg_125"/>
   <path stroke-width="0" class="cls-2" d="m241.184999,233.77483l73.42,42.38a8.26,8.26 0 0 0 7.5,0l73.41,-42.38a2.62,2.62 0 0 0 1.55,-2.17l0,4.64a2.61,2.61 0 0 1 -1.55,2.19l-73.4,42.36a8.26,8.26 0 0 1 -7.5,0l-73.43,-42.36a2.63,2.63 0 0 1 -1.55,-2.16l0,-4.64a2.66,2.66 0 0 0 1.55,2.14z" id="svg_126"/>
   <rect stroke-width="0" class="cls-38" x="343.724999" y="222.42483" width="1.5" height="2.72" id="svg_982"/>
   <path stroke-width="0" class="cls-39" d="m335.114999,219.10483l-0.9,-0.9a0.65,0.65 0 0 0 -0.41,-0.13a1.49,1.49 0 0 0 -1.27,1a0.82,0.82 0 0 0 0.07,0.76l0.93,0.94a0.63,0.63 0 0 0 0.44,0.15a1.49,1.49 0 0 0 1.27,-1a0.76,0.76 0 0 0 -0.13,-0.82z" id="svg_983"/>
   <path stroke-width="0" class="cls-40" d="m335.224999,219.93483a1.49,1.49 0 0 1 -1.27,1c-0.51,0 -0.76,-0.44 -0.57,-1a1.49,1.49 0 0 1 1.26,-1c0.47,0.01 0.77,0.5 0.58,1z" id="svg_984"/>
   <path stroke-width="0" class="cls-41" d="m352.934999,217.94483l0.89,-0.89a0.64,0.64 0 0 1 0.42,-0.14a1.47,1.47 0 0 1 1.26,1a0.76,0.76 0 0 1 -0.07,0.76l-0.93,0.94a0.62,0.62 0 0 1 -0.44,0.16a1.5,1.5 0 0 1 -1.26,-1a0.76,0.76 0 0 1 0.13,-0.83z" id="svg_985"/>
   <path stroke-width="0" class="cls-40" d="m352.804999,218.77483a1.5,1.5 0 0 0 1.26,1c0.51,0 0.77,-0.45 0.58,-1a1.49,1.49 0 0 0 -1.27,-1c-0.51,0.02 -0.76,0.46 -0.57,1z" id="svg_986"/>
   <path stroke-width="0" class="cls-42" d="m337.434999,211.21483a0.49,0.49 0 0 0 -0.43,-0.1l-1,0.33a0.61,0.61 0 0 0 -0.24,0.57a2,2 0 0 0 0.71,1.5a0.47,0.47 0 0 0 0.43,0.11l0.92,-0.32c0.16,-0.06 0.27,-0.27 0.27,-0.59a2.11,2.11 0 0 0 -0.66,-1.5z" id="svg_987"/>
   <path stroke-width="0" class="cls-43" d="m335.804999,212.01483a2,2 0 0 0 0.71,1.5c0.39,0.28 0.7,0.07 0.7,-0.48a2.07,2.07 0 0 0 -0.7,-1.5c-0.4,-0.28 -0.71,-0.1 -0.71,0.48z" id="svg_988"/>
   <path stroke-width="0" class="cls-44" d="m349.694999,210.51483a0.48,0.48 0 0 1 0.42,-0.08l1,0.34c0.15,0.08 0.24,0.27 0.24,0.57a2.08,2.08 0 0 1 -0.7,1.5a0.48,0.48 0 0 1 -0.43,0.11l-0.93,-0.33c-0.16,-0.06 -0.27,-0.26 -0.27,-0.58a2,2 0 0 1 0.67,-1.53z" id="svg_989"/>
   <path stroke-width="0" class="cls-43" d="m351.314999,211.31483a2.08,2.08 0 0 1 -0.7,1.5c-0.39,0.28 -0.71,0.07 -0.71,-0.48a2.06,2.06 0 0 1 0.71,-1.5c0.38,-0.28 0.7,-0.06 0.7,0.48z" id="svg_990"/>
   <path stroke-width="0" class="cls-43" d="m343.494999,213.84483s-2.37,-1.68 -3.83,-2.53s-2.81,-1.64 -3.46,-0.61l1.53,1.26l0.31,1l5,3.86l0.45,-2.98z" id="svg_991"/>
   <path stroke-width="0" class="cls-45" d="m339.114999,211.43483c1.07,0.62 3.24,2.1 4.31,2.85l0.08,-0.46s-2.37,-1.68 -3.83,-2.53c-1.25,-0.73 -2.39,-1.4 -3.11,-1a6.43,6.43 0 0 1 2.55,1.14z" id="svg_992"/>
   <path stroke-width="0" class="cls-43" d="m345.404999,216.43483l3.92,-4.24a3.79,3.79 0 0 1 0.71,-1.46c0.51,-0.6 1,-1.05 1,-1.05a0.82,0.82 0 0 0 -1.24,-0.22c-0.77,0.56 -4.89,3.88 -4.89,3.88l0.5,3.09z" id="svg_993"/>
   <path stroke-width="0" class="cls-40" d="m335.194999,218.65483l0.27,0.44l7.14,-1.59l-0.19,-2.32l-0.22,-0.44l-6.66,2.17s-2.91,0.55 -3.19,2l2.85,-0.26z" id="svg_994"/>
   <path stroke-width="0" class="cls-40" d="m345.744999,217.23483l7,0.71l0.42,-0.55l2.71,0.19a1.12,1.12 0 0 0 -0.5,-1.05c-0.63,-0.49 -9.55,-1.92 -9.55,-1.92l-0.08,2.62z" id="svg_995"/>
   <path stroke-width="0" class="cls-46" d="m345.304999,213.89483a2.75,2.75 0 0 0 -2.5,0a0.88,0.88 0 0 0 -0.52,0.72l0,2.31a0.89,0.89 0 0 0 0.52,0.72a2.75,2.75 0 0 0 2.5,0a0.87,0.87 0 0 0 0.52,-0.72l0,-2.31a0.86,0.86 0 0 0 -0.52,-0.72z" id="svg_996"/>
   <path stroke-width="0" class="cls-47" d="m345.304999,213.89483a0.76,0.76 0 0 1 0,1.44a2.75,2.75 0 0 1 -2.5,0a0.76,0.76 0 0 1 0,-1.44a2.75,2.75 0 0 1 2.5,0z" id="svg_997"/>
   <path stroke-width="0" d="m344.964999,210.32483a2,2 0 0 0 -1.85,0a0.65,0.65 0 0 0 -0.38,0.53l0,3.14a0.66,0.66 0 0 0 0.38,0.53a2,2 0 0 0 1.85,0a0.66,0.66 0 0 0 0.38,-0.53l0,-3.14a0.65,0.65 0 0 0 -0.38,-0.53z" id="svg_998"/>
   <polygon stroke-width="0" class="cls-48" points="343.7249694824218,215.76483154296875 344.53496704101553,215.76483154296875 344.6450439453124,223.22482299804688 344.2349792480468,223.22482299804688 343.7249694824218,215.76483154296875 " id="svg_999"/>
   <polygon stroke-width="0" points="344.94503173828116,217.80484008789062 344.53496704101553,215.76483154296875 344.6450439453124,223.22482299804688 344.7449890136718,222.11483764648438 344.94503173828116,217.80484008789062 " id="svg_1000"/>
   <polygon stroke-width="0" points="343.7249694824218,215.76483154296875 343.3550048828124,217.85482788085938 343.9949890136718,222.21482849121094 344.2349792480468,223.22482299804688 343.7249694824218,215.76483154296875 " id="svg_1001"/>
   <path stroke-width="0" class="cls-49" d="m342.194999,214.74483l-6.66,2.17s-2.91,0.55 -3.19,2l0.2,0a3.19,3.19 0 0 1 1.26,-1.1l8.61,-2.62l-0.22,-0.45z" id="svg_1002"/>
   <path stroke-width="0" class="cls-50" d="m355.374999,216.53483c-0.63,-0.49 -9.55,-1.92 -9.55,-1.92l0,0.16l7.1,1.26l2,0.42a1.34,1.34 0 0 1 0.85,0.56a1.52,1.52 0 0 0 -0.4,-0.48z" id="svg_1003"/>
   <path stroke-width="0" class="cls-51" d="m330.364999,201.70483a0.74,0.74 0 0 1 0.43,-0.61l10.16,-5.86l6.24,-20.13a1,1 0 0 1 0.48,-0.59l0,0l0.11,0l1.65,-0.67a1,1 0 0 1 0.79,0.1l9.22,5.33a1.86,1.86 0 0 1 0.84,1.78l-3.91,23.76l-11.46,6.62a2.29,2.29 0 0 1 -2.07,0l-12.05,-7a0.71,0.71 0 0 1 -0.43,-0.57l0,-2.19l0,0.03z" id="svg_1004"/>
   <path stroke-width="0" class="cls-52" d="m330.364999,201.75483a0.76,0.76 0 0 0 0.43,0.54l12.05,7a2.29,2.29 0 0 0 2.07,0l10.2,-5.86l3.58,-21.73a1.86,1.86 0 0 0 -0.84,-1.78l-9.23,-5.32a1,1 0 0 0 -0.78,-0.11l1.64,-0.66a1,1 0 0 1 0.79,0.1l9.22,5.33a1.86,1.86 0 0 1 0.84,1.78l-3.91,23.76l-11.51,6.63a2.29,2.29 0 0 1 -2.07,0l-12.05,-7a0.71,0.71 0 0 1 -0.43,-0.57l0,-2.15l0,0.04z" id="svg_1005"/>
   <path stroke-width="0" class="cls-53" d="m347.194999,175.10483a0.91,0.91 0 0 1 1.39,-0.54l9.23,5.32a1.86,1.86 0 0 1 0.84,1.78l-3.54,21.77l-14.12,-8.16l6.2,-20.17z" id="svg_1006"/>
   <path stroke-width="0" class="cls-54" d="m330.764999,222.20483a14.7,14.7 0 0 0 -0.4,-2.28a5.78,5.78 0 0 1 -2,0.58a4.7,4.7 0 0 1 -1.78,-0.2a6.83,6.83 0 0 1 -1.78,1.9a15.17,15.17 0 0 0 -2.72,1.47c-0.78,0.66 -1.65,1.83 -1.38,2.44s2.27,1 3.9,0.09c1,-0.61 2,-1.75 3,-2.07c-0.02,0 3.15,-0.92 3.16,-1.93z" id="svg_1007"/>
   <path stroke-width="0" class="cls-55" d="m330.744999,222.31483c-0.23,1 -3.16,1.82 -3.16,1.82c-1,0.32 -2,1.46 -3,2.07c-1.63,0.94 -3.63,0.53 -3.9,-0.09a0.19,0.19 0 0 1 0,-0.1a0.65,0.65 0 0 0 0,0.42c0.27,0.61 2.27,1 3.9,0.09c1,-0.61 2,-1.76 3,-2.08c0,0 0.47,-0.13 1,-0.36l0,0.37a6.52,6.52 0 0 0 2,-1.06l0.14,-0.79l0,0a0.25,0.25 0 0 0 0,-0.08a1.53,1.53 0 0 0 0.02,-0.21z" id="svg_1008"/>
   <path stroke-width="0" class="cls-56" d="m342.344999,205.07483l-0.85,-3.81l0.43,-2.12a12,12 0 0 1 -4.37,-2.35a2.47,2.47 0 0 1 -0.79,1.08s-7.28,3.16 -9.63,5c-3.3,2.57 -2.77,4.18 -2.09,8a39.55,39.55 0 0 1 -0.26,11.37s3.78,1.39 6,-0.54c0,0 0.77,-8.74 -0.13,-12.75c-0.01,-0.04 9.89,-2.97 11.69,-3.88z" id="svg_1009"/>
   <path stroke-width="0" class="cls-54" d="m331.214999,225.11483a6.79,6.79 0 0 1 -1.4,2.73c-0.83,0.66 -2.69,3.42 -1.44,4.06s4.25,-0.34 4.61,-1.45a13.15,13.15 0 0 1 1,-2.64a3.15,3.15 0 0 0 0.46,-3.32s-0.79,1.34 -1.92,1.12s-1.31,-0.5 -1.31,-0.5z" id="svg_1010"/>
   <path stroke-width="0" class="cls-55" d="m334.724999,225.70483a3.6,3.6 0 0 1 -0.76,2.11a13.15,13.15 0 0 0 -1,2.64c-0.36,1.11 -3.36,2.09 -4.61,1.45a0.73,0.73 0 0 1 -0.41,-0.62a0.84,0.84 0 0 0 0.41,0.94c1.25,0.64 4.25,-0.33 4.61,-1.44a13.15,13.15 0 0 1 1,-2.64a2.84,2.84 0 0 0 0.76,-2.44z" id="svg_1011"/>
   <path stroke-width="0" class="cls-57" d="m348.654999,199.43483a19.63,19.63 0 0 1 -6.73,-0.26l-0.9,2.54c-1.76,1.56 -7.81,4.77 -8.65,5.67s-1.57,4.82 -1.61,9s-0.4,9.4 -0.4,9.4a1.49,1.49 0 0 0 1.36,1.59c1.43,0.1 3.62,-2 3.62,-2a42.2,42.2 0 0 0 1.66,-7.36c0.08,-1.84 0,-5.3 0,-5.3s8.53,-4 10.43,-5.9s1.8,-5.47 1.22,-7.38z" id="svg_1012"/>
   <polygon stroke-width="0" class="cls-58" points="337.57500610351553,193.84483337402344 337.3550048828124,197.9948272705078 343.95504150390616,200.0648193359375 342.78496704101553,195.44483947753906 337.57500610351553,193.84483337402344 " id="svg_1013"/>
   <path stroke-width="0" class="cls-13" d="m347.924999,171.43483a6.88,6.88 0 0 1 -1.34,1.5a7.85,7.85 0 0 1 -3.68,1.57a4,4 0 0 1 0.21,1.93c-0.2,1 1.5,1.35 3.34,0.3a4.42,4.42 0 0 0 2.19,-2.41a5.71,5.71 0 0 1 -0.72,-2.89z" id="svg_1014"/>
   <path stroke-width="0" class="cls-59" d="m347.924999,171.43483a6.88,6.88 0 0 1 -1.34,1.5a7.85,7.85 0 0 1 -3.68,1.57a1.62,1.62 0 0 1 0.06,0.17a7.55,7.55 0 0 0 2.75,-0.61c1.11,-0.5 2,0.54 2.48,1.16a3.09,3.09 0 0 0 0.46,-0.89a5.71,5.71 0 0 1 -0.73,-2.9z" id="svg_1015"/>
   <path stroke-width="0" class="cls-60" d="m337.184999,194.66483a11.21,11.21 0 0 0 5.81,2.23c3.51,0.3 4.69,-7.48 4.69,-7.48l0.21,-9.63l-1.07,-2.94l-3.51,-0.41l-2.76,-0.71s-3.37,12.8 -3.37,18.94z" id="svg_1016"/>
   <polygon stroke-width="0" class="cls-61" points="341.7149597167968,177.36483764648438 342.05501708984366,178.5248260498047 342.8650146484374,178.80484008789062 344.0050292968749,177.954833984375 343.31499633789053,176.44483947753906 341.7149597167968,177.36483764648438 " id="svg_1017"/>
   <path stroke-width="0" class="cls-62" d="m341.664999,173.00483l0.05,-0.09a4,4 0 0 0 -0.91,-0.13l-0.25,-0.07l-0.06,0.07c-4.36,0.21 -8.64,7.08 -8.64,7.08s-0.8,1.94 -0.44,2.08s4.62,-1.82 6.17,-2.53a46.53,46.53 0 0 0 -0.31,5.39c-0.13,2.23 -0.36,5.13 -0.56,7.13s-0.85,8.61 -0.85,8.61a2.44,2.44 0 0 0 1.41,1.78c1.22,0.51 0.93,-2.65 1,-3.62s0.46,-8.91 0.46,-8.91l0.9,-9.66c0.66,-2.45 2.51,-7 2.51,-7l-0.48,-0.13z" id="svg_1018"/>
   <path stroke-width="0" class="cls-62" d="m349.254999,174.23483s-4.39,3.07 -6.22,10.57s-0.74,18.21 0.48,19.32s4,0.58 5.61,0.18a4.05,4.05 0 0 0 2.45,-1.92s-2.4,-8.24 -2.36,-10.13s4.11,-14.22 4.11,-14.22l-4.07,-3.8z" id="svg_1019"/>
   <path stroke-width="0" class="cls-63" d="m348.114999,172.71483s-2.27,3.33 -4.82,3.73l0.61,2.31a10.55,10.55 0 0 0 5.05,-5l-0.84,-1.04z" id="svg_1020"/>
   <path stroke-width="0" class="cls-63" d="m341.534999,177.71483l1.78,-1.28a15.28,15.28 0 0 1 -0.28,-3l-0.69,-0.17a7.64,7.64 0 0 0 -0.81,4.45z" id="svg_1021"/>
   <path stroke-width="0" class="cls-64" d="m348.704999,173.20483s-3.9,5.22 -5.26,10.11a37.43,37.43 0 0 0 -1.33,8.05s0.25,-3.32 4.94,-10.15l-0.67,-1.43l1.28,-0.2l2.1,-5l-1.06,-1.38z" id="svg_1022"/>
   <path stroke-width="0" class="cls-64" d="m338.974999,177.71483l-0.54,12.4s0.88,-11.53 4.48,-16.94l-0.86,-0.57l-2.42,3.83l0.56,0.76l-1.22,0.52z" id="svg_1023"/>
   <path stroke-width="0" class="cls-13" d="m336.374999,171.51483s1.69,-1.86 1.85,-2.19a12.68,12.68 0 0 1 2.75,-1.59c0.12,0 1.17,0.67 0.83,1s-1.44,1.87 -1.35,2.37s1.71,0.6 1.71,0.6s-0.26,1 -1,1.15a19.37,19.37 0 0 1 -3.07,0l-1.72,-1.34z" id="svg_1024"/>
   <path stroke-width="0" class="cls-59" d="m338.114999,172.89483a19.37,19.37 0 0 0 3.07,0c0.7,-0.15 1,-1.15 1,-1.15s-1.63,-0.1 -1.71,-0.6s1,-2 1.35,-2.37c0.14,-0.15 0,-0.35 -0.13,-0.54a2.63,2.63 0 0 0 -1.84,0.83c-0.79,1 -0.23,0.93 -1,1.89a6.45,6.45 0 0 1 -1.56,1.25l0.82,0.69z" id="svg_1025"/>
   <polygon stroke-width="0" class="cls-63" points="335.82500610351553,171.48483276367188 336.42501220703116,171.01483154296875 338.1350036621093,172.89483642578125 337.4749999999999,173.69483947753906 335.82500610351553,171.48483276367188 " id="svg_1026"/>
   <path stroke-width="0" class="cls-64" d="m335.984999,171.20483l2,2.21s-5.05,7.35 -5.78,8.17s-3.14,0.36 -3.68,-1.39s5.31,-7.48 7.46,-8.99z" id="svg_1027"/>
   <path stroke-width="0" class="cls-58" d="m349.214999,192.25483a3.57,3.57 0 0 1 0.07,-0.55l-7.12,-0.94c0,0.84 -0.09,1.69 -0.1,2.52c1.33,0.51 4.65,1.85 5.42,2.91c0.62,0.84 1.29,4.78 1.56,8.13l0.08,0a4.05,4.05 0 0 0 2.45,-1.92s-2.4,-8.26 -2.36,-10.15z" id="svg_1028"/>
   <polygon stroke-width="0" class="cls-65" points="344.43499145507803,196.48483276367188 344.90496215820303,198.03482055664062 348.3349548339843,197.59483337402344 344.70501098632803,198.3348388671875 344.43499145507803,196.48483276367188 " id="svg_1029"/>
   <path stroke-width="0" class="cls-61" d="m342.864999,178.80483l-0.14,-0.74l-0.67,0.46a48.57,48.57 0 0 0 -2.58,10.17c-0.36,3.35 -0.56,4.54 -0.56,4.54l0.91,1.6l1.29,-1.27s0,-10 1.75,-14.76z" id="svg_1030"/>
   <path stroke-width="0" class="cls-64" d="m339.994999,187.91483a8.45,8.45 0 0 1 -1.47,3.45s8.67,3.65 10.32,3.46s3.67,-6.86 4.13,-8.34s1.56,-5.74 1.19,-7.09a2,2 0 0 0 -2.62,-1.59c-1.37,0.32 -2.1,2.19 -2.65,4.62s-1.73,7.59 -1.73,7.59l-7.17,-2.1z" id="svg_1031"/>
   <path stroke-width="0" class="cls-63" d="m339.954999,188.12483l-0.19,-0.08a11.8,11.8 0 0 1 -1.5,2.67l0.5,0.3a8.62,8.62 0 0 0 1.19,-2.89z" id="svg_1032"/>
   <path stroke-width="0" class="cls-13" d="m339.754999,188.06483a6.78,6.78 0 0 1 -0.44,-1a4.68,4.68 0 0 0 -1.3,-2.16c-0.73,-0.59 -1.43,-1.23 -1.74,-1.12s-0.16,0.77 0.1,1s1,1.19 0.91,1.61s-0.44,0.22 -1,0s-1.7,-1.86 -2.25,-2s-0.59,0.12 -0.6,0.62a7.6,7.6 0 0 0 0.41,1.63c0.2,0.86 0.73,2.36 1.49,2.67c0.56,0.22 2.26,0.54 3.36,0.8a14.82,14.82 0 0 0 1.06,-2.05z" id="svg_1033"/>
   <path stroke-width="0" class="cls-59" d="m338.824999,189.93483c-2.08,-0.73 -3.53,-1.58 -3.58,-2.08a15.33,15.33 0 0 0 -1.78,-3c0,0.06 0,0.13 0,0.2a7.6,7.6 0 0 0 0.41,1.63c0.2,0.86 0.73,2.36 1.49,2.67c0.56,0.22 2.26,0.54 3.36,0.8l0.1,-0.22z" id="svg_1034"/>
   <path stroke-width="0" class="cls-64" d="m340.984999,168.43483a0.21,0.21 0 0 0 -0.39,0l-1.48,2.55a0.69,0.69 0 0 0 0,0.64l0.72,1.33a0.2,0.2 0 0 0 0.37,0l1.3,-2.14a0.65,0.65 0 0 0 0,-0.62l-0.52,-1.76z" id="svg_1035"/>
   <path stroke-width="0" class="cls-66" d="m341.254999,168.50483a0.21,0.21 0 0 0 -0.39,0l-1.51,2.52a0.69,0.69 0 0 0 0,0.64l0.72,1.33a0.2,0.2 0 0 0 0.37,0l1.3,-2.14a0.62,0.62 0 0 0 0,-0.62l-0.49,-1.73z" id="svg_1036"/>
   <path stroke-width="0" class="cls-13" d="m347.544999,164.30483a4.28,4.28 0 0 0 -4.57,0.19a4.2,4.2 0 0 0 -1.86,2.56c-0.13,0.51 -0.28,0.94 -0.4,1.33s0.28,0.86 0.28,0.86c-0.75,0.93 0.34,3.68 0.34,3.89a1.15,1.15 0 0 0 1.17,1.37a7.43,7.43 0 0 0 4.08,-1.59a8.12,8.12 0 0 0 2.59,-4.48a4,4 0 0 0 -1.63,-4.13z" id="svg_1037"/>
   <path stroke-width="0" class="cls-7" d="m347.684999,163.73483a4.74,4.74 0 0 0 -5.3,0a4.28,4.28 0 0 0 -1.37,1.59a1.53,1.53 0 0 0 1.31,2.37a13,13 0 0 0 3.1,-0.29c1,0.65 0.61,1.73 0.75,2.09s0.28,0.82 0.51,1s0.4,-0.15 0.47,-0.22s1.31,-1.52 1.39,0.12a7.93,7.93 0 0 0 0.63,-1.87a5.43,5.43 0 0 0 0.08,-0.78l0,0a3.58,3.58 0 0 0 -1.57,-4.01z" id="svg_1038"/>
   <path stroke-width="0" class="cls-7" d="m346.174999,169.49483c0.14,0.36 0.28,0.82 0.51,1s0.4,-0.15 0.47,-0.22s1.31,-1.52 1.39,0.12a7.93,7.93 0 0 0 0.63,-1.87a5.43,5.43 0 0 0 0.08,-0.78a9.08,9.08 0 0 1 -3.13,0.82c0.05,0.37 -0.01,0.74 0.05,0.93z" id="svg_1039"/>
   <path stroke-width="0" class="cls-67" d="m347.114999,171.71483c0.15,0.1 0.5,0.23 1.17,-0.49s0.66,-1.39 0.32,-1.62a0.56,0.56 0 0 0 -0.82,0.18a18.26,18.26 0 0 0 -0.67,1.93z" id="svg_1040"/>
   <path stroke-width="0" class="cls-13" d="m347.114999,171.71483c0.15,0.1 0.5,0.23 1.17,-0.49s0.66,-1.39 0.32,-1.62a0.56,0.56 0 0 0 -0.82,0.18a18.26,18.26 0 0 0 -0.67,1.93z" id="svg_1041"/>
   <polygon stroke-width="0" class="cls-68" points="286.2249694824218,199.8248291015625 301.66497192382803,208.73483276367188 301.66497192382803,233.69482421875 286.2249694824218,224.7848358154297 286.2249694824218,199.8248291015625 " id="svg_1042"/>
   <polygon stroke-width="0" class="cls-69" points="327.6249938964843,193.7448272705078 327.6249938964843,218.704833984375 301.66497192382803,233.69482421875 301.66497192382803,208.73483276367188 327.6249938964843,193.7448272705078 " id="svg_1043"/>
   <polygon stroke-width="0" class="cls-68" points="326.8349853515624,223.2748260498047 342.27495727539053,232.18482971191406 342.27495727539053,257.14483642578125 326.8349853515624,248.23483276367188 326.8349853515624,223.2748260498047 " id="svg_1044"/>
   <polygon stroke-width="0" class="cls-68" points="303.07503662109366,209.48483276367188 326.8850036621093,223.23483276367188 326.8850036621093,240.33482360839844 303.07503662109366,226.58482360839844 303.07503662109366,209.48483276367188 " id="svg_1045"/>
   <polygon stroke-width="0" class="cls-69" points="366.94503173828116,217.93482971191406 366.94503173828116,242.9048309326172 342.27495727539053,257.14483642578125 342.27495727539053,232.18482971191406 366.94503173828116,217.93482971191406 " id="svg_1046"/>
   <polygon stroke-width="0" class="cls-70" points="312.18499145507803,181.8348388671875 368.2349792480468,214.19482421875 342.27495727539053,229.18482971191406 286.2249694824218,196.8248291015625 312.18499145507803,181.8348388671875 " id="svg_1047"/>
   <polygon stroke-width="0" class="cls-69" points="368.2349792480468,214.19482421875 368.2349792480468,217.19482421875 342.27495727539053,232.18482971191406 342.27495727539053,229.18482971191406 368.2349792480468,214.19482421875 " id="svg_1048"/>
   <polygon stroke-width="0" class="cls-68" points="286.2249694824218,196.8248291015625 342.27495727539053,229.18482971191406 342.27495727539053,232.18482971191406 286.2249694824218,199.8248291015625 286.2249694824218,196.8248291015625 " id="svg_1049"/>
   <polygon stroke-width="0" class="cls-53" points="342.27495727539053,232.18482971191406 366.94503173828116,217.93482971191406 366.94503173828116,219.09483337402344 342.27495727539053,233.33482360839844 342.27495727539053,233.204833984375 326.8850036621093,224.31483459472656 326.8850036621093,224.92483520507812 303.07503662109366,211.18482971191406 301.66497192382803,209.704833984375 286.2249694824218,200.79483032226562 286.2249694824218,199.8248291015625 342.27495727539053,232.18482971191406 " id="svg_1050"/>
   <path stroke-width="0" class="cls-64" d="m335.464999,220.79483l13.1,-7.57c0,-1.43 -1,-2 -2.24,-1.3l-10.86,6.27l0,2.6z" id="svg_1051"/>
   <polygon stroke-width="0" class="cls-71" points="347.17498168945303,212.44483947753906 355.6249938964843,217.3248291015625 343.91497192382803,224.08482360839844 335.4649597167968,219.20481872558594 347.17498168945303,212.44483947753906 " id="svg_1052"/>
   <path stroke-width="0" class="cls-64" d="m343.914999,225.66483l13.11,-7.56c0,-1.44 -1,-2 -2.25,-1.3l-10.86,6.26l0,2.6z" id="svg_1053"/>
   <polygon stroke-width="0" class="cls-66" points="343.91497192382803,223.06483459472656 335.4649597167968,218.19482421875 335.4649597167968,220.79483032226562 343.91497192382803,225.66482543945312 343.91497192382803,223.06483459472656 " id="svg_1054"/>
   <path stroke-width="0" class="cls-66" d="m330.214999,197.61483a0.36,0.36 0 0 1 0.25,0l15.24,8.8a0.08,0.08 0 0 1 0,0.14l-4.8,2.77a0.28,0.28 0 0 1 -0.25,0l-15.24,-8.79a0.09,0.09 0 0 1 0,-0.15l4.8,-2.77z" id="svg_1055"/>
   <path stroke-width="0" class="cls-72" d="m345.744999,206.49483a0.06,0.06 0 0 1 0,0.06l-4.8,2.77a0.28,0.28 0 0 1 -0.25,0l-15.28,-8.79a0.1,0.1 0 0 1 0,-0.08l0,0l0,0.44a0.1,0.1 0 0 0 0,0.07l15.24,8.8a0.28,0.28 0 0 0 0.25,0l4.8,-2.77a0.1,0.1 0 0 0 0,-0.07l0,-0.43l0.04,0z" id="svg_1056"/>
   <path stroke-width="0" class="cls-73" d="m342.634999,206.10483s0,0 0,0l-0.46,0.27l0,0l-0.49,-0.29s0,0 0,0l0.46,-0.27s0,0 0,0l0.49,0.29z" id="svg_1057"/>
   <path stroke-width="0" class="cls-73" d="m344.114999,206.93483l0,0l-0.47,0.26a0,0 0 0 1 0,0l-1.28,-0.73s0,0 0,0l0.47,-0.27l0,0l1.28,0.74z" id="svg_1058"/>
   <path stroke-width="0" class="cls-73" d="m342.334999,206.65483s0,0 0,0l-0.46,0.27l0,0l-0.49,-0.28s0,0 0,0l0.47,-0.27l0,0l0.48,0.28z" id="svg_1059"/>
   <path stroke-width="0" class="cls-73" d="m343.444999,207.29483s0,0 0,0l-0.47,0.26s0,0 0,0l-0.93,-0.54s0,0 0,0l0.46,-0.27l0,0l0.94,0.55z" id="svg_1060"/>
   <path stroke-width="0" class="cls-73" d="m341.884999,207.11483s0,0 0,0l-0.46,0.27a0,0 0 0 1 0,0l-0.49,-0.28s0,0 0,0l0.46,-0.27l0,0l0.49,0.28z" id="svg_1061"/>
   <path stroke-width="0" class="cls-73" d="m342.814999,207.65483s0,0 0,0l-0.46,0.27l0,0l-0.76,-0.44s0,0 0,0l0.46,-0.27a0,0 0 0 1 0,0l0.76,0.44z" id="svg_1062"/>
   <path stroke-width="0" class="cls-73" d="m342.184999,208.01483s0,0 0,0l-0.45,0.27l0,0l-0.45,-0.27s0,0 0,0l0.46,-0.26l0,0l0.44,0.26z" id="svg_1063"/>
   <path stroke-width="0" class="cls-73" d="m341.114999,208.62483l0,0l-0.28,0.16l0,0l-0.46,-0.27s0,0 0,0l0.28,-0.16a0,0 0 0 1 0,0l0.46,0.27z" id="svg_1064"/>
   <path stroke-width="0" class="cls-73" d="m340.114999,208.03483s0,0 0,0l-0.28,0.16l0,0l-0.45,-0.27s0,0 0,0l0.28,-0.16l0,0l0.45,0.27z" id="svg_1065"/>
   <path stroke-width="0" class="cls-73" d="m339.464999,207.65483s0,0 0,0l-0.27,0.16l0,0l-0.45,-0.26s0,0 0,0l0.28,-0.16l0,0l0.44,0.26z" id="svg_1066"/>
   <path stroke-width="0" class="cls-73" d="m338.814999,207.28483s0,0 0,0l-0.27,0.16l0,0l-0.45,-0.27s0,0 0,0l0.28,-0.16l0,0l0.44,0.27z" id="svg_1067"/>
   <path stroke-width="0" class="cls-73" d="m338.164999,206.90483s0,0 0,0l-0.27,0.16l0,0l-0.45,-0.26s0,0 0,0l0.28,-0.16l0,0l0.44,0.26z" id="svg_1068"/>
   <path stroke-width="0" class="cls-73" d="m337.114999,206.30483s0,0 0,0l-0.28,0.16a0,0 0 0 1 0,0l-0.46,-0.26l0,0l0.28,-0.16l0,0l0.46,0.26z" id="svg_1069"/>
   <path stroke-width="0" class="cls-73" d="m336.484999,205.93483s0,0 0,0l-0.28,0.16l0,0l-0.46,-0.26l0,0l0.28,-0.16l0,0l0.46,0.26z" id="svg_1070"/>
   <path stroke-width="0" class="cls-73" d="m335.834999,205.55483s0,0 0,0l-0.28,0.16a0,0 0 0 1 0,0l-0.44,-0.28l0,0l0.28,-0.16l0,0l0.44,0.28z" id="svg_1071"/>
   <path stroke-width="0" class="cls-73" d="m335.184999,205.18483s0,0 0,0l-0.28,0.16l0,0l-0.45,-0.27s0,0 0,0l0.27,-0.16l0,0l0.46,0.27z" id="svg_1072"/>
   <path stroke-width="0" class="cls-73" d="m334.114999,204.55483s0,0 0,0l-0.28,0.16l0,0l-0.45,-0.26s0,0 0,0l0.27,-0.16s0,0 0,0l0.46,0.26z" id="svg_1073"/>
   <path stroke-width="0" class="cls-73" d="m333.444999,204.17483s0,0 0,0l-0.28,0.16a0,0 0 0 1 0,0l-0.45,-0.26s0,0 0,0l0.27,-0.16l0,0l0.46,0.26z" id="svg_1074"/>
   <path stroke-width="0" class="cls-73" d="m332.794999,203.80483s0,0 0,0l-0.28,0.16l0,0l-0.45,-0.26s0,0 0,0l0.27,-0.16a0,0 0 0 1 0,0l0.46,0.26z" id="svg_1075"/>
   <path stroke-width="0" class="cls-73" d="m332.114999,203.43483s0,0 0,0l-0.28,0.16s0,0 0,0l-0.45,-0.26s0,0 0,0l0.27,-0.16l0,0l0.46,0.26z" id="svg_1076"/>
   <path stroke-width="0" class="cls-73" d="m331.204999,202.88483s0,0 0,0l-0.27,0.16s0,0 0,0l-0.46,-0.26s0,0 0,0l0.28,-0.16l0,0l0.45,0.26z" id="svg_1077"/>
   <path stroke-width="0" class="cls-73" d="m330.574999,202.52483s0,0 0,0l-0.28,0.15l0,0l-0.46,-0.26s0,0 0,0l0.28,-0.16l0,0l0.46,0.27z" id="svg_1078"/>
   <path stroke-width="0" class="cls-73" d="m329.934999,202.15483s0,0 0,0l-0.28,0.16l0,0l-0.45,-0.27s0,0 0,0l0.27,-0.16l0,0l0.46,0.27z" id="svg_1079"/>
   <path stroke-width="0" class="cls-73" d="m341.534999,207.64483s0,0 0,0l-0.45,0.26a0,0 0 0 1 0,0l-0.46,-0.26s0,0 0,0l0.46,-0.26a0,0 0 0 1 0,0l0.45,0.26z" id="svg_1080"/>
   <path stroke-width="0" class="cls-73" d="m340.884999,207.26483s0,0 0,0l-0.45,0.27l0,0l-0.46,-0.27s0,0 0,0l0.46,-0.26l0,0l0.45,0.26z" id="svg_1081"/>
   <path stroke-width="0" class="cls-73" d="m340.244999,206.89483l0,0l-0.46,0.26a0,0 0 0 1 0,0l-0.46,-0.26s0,0 0,0l0.46,-0.26a0,0 0 0 1 0,0l0.46,0.26z" id="svg_1082"/>
   <path stroke-width="0" class="cls-73" d="m339.594999,206.51483s0,0 0,0l-0.46,0.27l0,0l-0.46,-0.27s0,0 0,0l0.46,-0.26l0,0l0.46,0.26z" id="svg_1083"/>
   <path stroke-width="0" class="cls-73" d="m338.944999,206.14483s0,0 0,0l-0.46,0.26a0,0 0 0 1 0,0l-0.46,-0.26l0,0l0.46,-0.26a0,0 0 0 1 0,0l0.46,0.26z" id="svg_1084"/>
   <path stroke-width="0" class="cls-73" d="m338.294999,205.76483s0,0 0,0l-0.46,0.27l0,0l-0.46,-0.27l0,0l0.46,-0.26l0,0l0.46,0.26z" id="svg_1085"/>
   <path stroke-width="0" class="cls-73" d="m337.644999,205.43483s0,0 0,0l-0.46,0.26a0,0 0 0 1 0,0l-0.45,-0.26s0,0 0,0l0.45,-0.26s0,0 0,0l0.46,0.26z" id="svg_1086"/>
   <path stroke-width="0" class="cls-73" d="m336.994999,205.02483s0,0 0,0l-0.46,0.27l0,0l-0.45,-0.27s0,0 0,0l0.45,-0.27l0,0l0.46,0.27z" id="svg_1087"/>
   <path stroke-width="0" class="cls-73" d="m336.344999,204.64483s0,0 0,0l-0.46,0.26a0,0 0 0 1 0,0l-0.45,-0.26s0,0 0,0l0.45,-0.26a0,0 0 0 1 0,0l0.46,0.26z" id="svg_1088"/>
   <path stroke-width="0" class="cls-73" d="m335.694999,204.27483s0,0 0,0l-0.46,0.27l0,0l-0.45,-0.27s0,0 0,0l0.45,-0.27l0,0l0.46,0.27z" id="svg_1089"/>
   <path stroke-width="0" class="cls-73" d="m335.044999,203.89483s0,0 0,0l-0.45,0.26a0,0 0 0 1 0,0l-0.45,-0.26s0,0 0,0l0.45,-0.26a0,0 0 0 1 0,0l0.45,0.26z" id="svg_1090"/>
   <path stroke-width="0" class="cls-73" d="m334.394999,203.52483s0,0 0,0l-0.45,0.27l0,0l-0.45,-0.27s0,0 0,0l0.46,-0.27l0,0l0.44,0.27z" id="svg_1091"/>
   <path stroke-width="0" class="cls-73" d="m332.254999,202.28483s0,0 0,0l-0.45,0.26a0,0 0 0 1 0,0l-0.45,-0.26s0,0 0,0l0.45,-0.26a0,0 0 0 1 0,0l0.45,0.26z" id="svg_1092"/>
   <path stroke-width="0" class="cls-73" d="m331.614999,201.91483s0,0 0,0l-0.45,0.26l0,0l-0.46,-0.26s0,0 0,0l0.46,-0.26a0,0 0 0 1 0,0l0.45,0.26z" id="svg_1093"/>
   <path stroke-width="0" class="cls-73" d="m330.984999,201.54483s0,0 0,0l-0.46,0.27l0,0l-0.45,-0.27s0,0 0,0l0.45,-0.26l0,0l0.46,0.26z" id="svg_1094"/>
   <path stroke-width="0" class="cls-73" d="m332.884999,201.92483l0,0l-0.46,0.26a0,0 0 0 1 0,0l-0.46,-0.26s0,0 0,0l0.46,-0.26a0,0 0 0 1 0,0l0.46,0.26z" id="svg_1095"/>
   <path stroke-width="0" class="cls-73" d="m332.244999,201.55483s0,0 0,0l-0.46,0.26l0,0l-0.45,-0.26s0,0 0,0l0.45,-0.26a0,0 0 0 1 0,0l0.46,0.26z" id="svg_1096"/>
   <path stroke-width="0" class="cls-73" d="m331.604999,201.18483s0,0 0,0l-0.49,0.25l0,0l-0.45,-0.27s0,0 0,0l0.45,-0.26l0,0l0.49,0.28z" id="svg_1097"/>
   <path stroke-width="0" class="cls-73" d="m329.994999,200.97483s0,0 0,0l-0.46,0.26a0,0 0 0 1 0,0l-0.46,-0.26l0,0l0.46,-0.26a0,0 0 0 1 0,0l0.46,0.26z" id="svg_1098"/>
   <path stroke-width="0" class="cls-73" d="m329.354999,200.60483s0,0 0,0l-0.46,0.27l0,0l-0.45,-0.27s0,0 0,0l0.45,-0.26l0,0l0.46,0.26z" id="svg_1099"/>
   <path stroke-width="0" class="cls-73" d="m328.714999,200.24483s0,0 0,0l-0.45,0.27l0,0l-0.45,-0.26s0,0 0,0l0.46,-0.27l0,0l0.44,0.26z" id="svg_1100"/>
   <path stroke-width="0" class="cls-73" d="m330.614999,200.61483s0,0 0,0l-0.46,0.26s0,0 0,0l-0.45,-0.26s0,0 0,0l0.45,-0.26a0,0 0 0 1 0,0l0.46,0.26z" id="svg_1101"/>
   <path stroke-width="0" class="cls-73" d="m329.974999,200.24483s0,0 0,0l-0.45,0.27l0,0l-0.46,-0.27s0,0 0,0l0.46,-0.26l0,0l0.45,0.26z" id="svg_1102"/>
   <path stroke-width="0" class="cls-73" d="m329.344999,199.88483l0,0l-0.46,0.27l0,0l-0.46,-0.26s0,0 0,0l0.46,-0.27l0,0l0.46,0.26z" id="svg_1103"/>
   <path stroke-width="0" class="cls-73" d="m328.114999,199.88483s0,0 0,0l-0.45,0.26l0,0l-0.45,-0.26s0,0 0,0l0.46,-0.26l0,0l0.44,0.26z" id="svg_1104"/>
   <path stroke-width="0" class="cls-73" d="m329.334999,199.16483s0,0 0,0l-1.07,0.62l0,0l-0.46,-0.26s0,0 0,0l1.08,-0.62a0,0 0 0 1 0,0l0.45,0.26z" id="svg_1105"/>
   <path stroke-width="0" class="cls-73" d="m331.234999,200.25483s0,0 0,0l-0.46,0.27l0,0l-0.45,-0.27s0,0 0,0l0.45,-0.26l0,0l0.46,0.26z" id="svg_1106"/>
   <path stroke-width="0" class="cls-73" d="m330.594999,199.89483s0,0 0,0l-0.45,0.26l0,0l-0.45,-0.26s0,0 0,0l0.46,-0.27l0,0l0.44,0.27z" id="svg_1107"/>
   <path stroke-width="0" class="cls-73" d="m329.954999,199.52483s0,0 0,0l-0.45,0.26l0,0l-0.46,-0.26s0,0 0,0l0.46,-0.26a0,0 0 0 1 0,0l0.45,0.26z" id="svg_1108"/>
   <path stroke-width="0" class="cls-73" d="m331.854999,199.89483s0,0 0,0l-0.45,0.27l0,0l-0.45,-0.27s0,0 0,0l0.46,-0.26l0,0l0.44,0.26z" id="svg_1109"/>
   <path stroke-width="0" class="cls-73" d="m331.224999,199.53483l0,0l-0.46,0.26l0,0l-0.46,-0.26s0,0 0,0l0.46,-0.27l0,0l0.46,0.27z" id="svg_1110"/>
   <path stroke-width="0" class="cls-73" d="m330.584999,199.16483s0,0 0,0l-0.47,0.27l0,0l-0.45,-0.26s0,0 0,0l0.45,-0.26s0,0 0,0l0.47,0.25z" id="svg_1111"/>
   <path stroke-width="0" class="cls-73" d="m330.574999,198.43483s0,0 0,0l-1.07,0.61l0,0l-0.45,-0.26s0,0 0,0l1.06,-0.61a0,0 0 0 1 0,0l0.46,0.26z" id="svg_1112"/>
   <path stroke-width="0" class="cls-73" d="m333.744999,203.14483l0,0l-0.46,0.26l0,0l-1,-0.58s0,0 0,0l0.45,-0.26l0,0l1.01,0.58z" id="svg_1113"/>
   <path stroke-width="0" class="cls-73" d="m341.234999,206.74483s0,0 0,0l-0.47,0.26l0,0l-0.48,-0.28s0,0 0,0l0.46,-0.26a0,0 0 0 1 0,0l0.49,0.28z" id="svg_1114"/>
   <path stroke-width="0" class="cls-73" d="m340.574999,206.36483s0,0 0,0l-0.46,0.27l0,0l-0.49,-0.29s0,0 0,0l0.46,-0.27a0,0 0 0 1 0,0l0.49,0.29z" id="svg_1115"/>
   <path stroke-width="0" class="cls-73" d="m339.924999,205.98483s0,0 0,0l-0.46,0.27l0,0l-0.48,-0.28s0,0 0,0l0.46,-0.27l0,0l0.48,0.28z" id="svg_1116"/>
   <path stroke-width="0" class="cls-73" d="m339.264999,205.60483s0,0 0,0l-0.46,0.27a0,0 0 0 1 0,0l-0.49,-0.28s0,0 0,0l0.47,-0.27l0,0l0.48,0.28z" id="svg_1117"/>
   <path stroke-width="0" class="cls-73" d="m338.614999,205.23483s0,0 0,0l-0.46,0.26a0,0 0 0 1 0,0l-0.48,-0.28s0,0 0,0l0.46,-0.26l0,0l0.48,0.28z" id="svg_1118"/>
   <path stroke-width="0" class="cls-73" d="m337.964999,204.85483l0,0l-0.47,0.26l0,0l-0.49,-0.28l0,0l0.47,-0.27a0,0 0 0 1 0,0l0.49,0.29z" id="svg_1119"/>
   <path stroke-width="0" class="cls-73" d="m337.304999,204.43483s0,0 0,0l-0.46,0.27l0,0l-0.49,-0.28s0,0 0,0l0.46,-0.27l0,0l0.49,0.28z" id="svg_1120"/>
   <path stroke-width="0" class="cls-73" d="m336.654999,204.09483s0,0 0,0l-0.47,0.27l0,0l-0.48,-0.28s0,0 0,0l0.46,-0.27l0,0l0.49,0.28z" id="svg_1121"/>
   <path stroke-width="0" class="cls-73" d="m335.994999,203.72483s0,0 0,0l-0.46,0.27a0,0 0 0 1 0,0l-0.49,-0.28s0,0 0,0l0.46,-0.27l0,0l0.49,0.28z" id="svg_1122"/>
   <path stroke-width="0" class="cls-73" d="m335.344999,203.34483s0,0 0,0l-0.46,0.26a0,0 0 0 1 0,0l-0.48,-0.28s0,0 0,0l0.46,-0.26l0,0l0.48,0.28z" id="svg_1123"/>
   <path stroke-width="0" class="cls-73" d="m334.684999,202.96483s0,0 0,0l-0.46,0.27l0,0l-0.49,-0.28s0,0 0,0l0.47,-0.27s0,0 0,0l0.48,0.28z" id="svg_1124"/>
   <path stroke-width="0" class="cls-73" d="m341.684999,206.28483s0,0 0,0l-0.46,0.26a0,0 0 0 1 0,0l-0.49,-0.28s0,0 0,0l0.46,-0.26l0,0l0.49,0.28z" id="svg_1125"/>
   <path stroke-width="0" class="cls-73" d="m341.034999,205.90483s0,0 0,0l-0.46,0.27l0,0l-0.49,-0.28s0,0 0,0l0.46,-0.27l0,0l0.49,0.28z" id="svg_1126"/>
   <path stroke-width="0" class="cls-73" d="m340.384999,205.52483s0,0 0,0l-0.46,0.27s0,0 0,0l-0.49,-0.28s0,0 0,0l0.46,-0.27l0,0l0.49,0.28z" id="svg_1127"/>
   <path stroke-width="0" class="cls-73" d="m339.734999,205.15483s0,0 0,0l-0.46,0.26a0,0 0 0 1 0,0l-0.48,-0.28s0,0 0,0l0.46,-0.26l0,0l0.48,0.28z" id="svg_1128"/>
   <path stroke-width="0" class="cls-73" d="m339.114999,204.77483s0,0 0,0l-0.46,0.27l0,0l-0.48,-0.28s0,0 0,0l0.46,-0.27l0,0l0.48,0.28z" id="svg_1129"/>
   <path stroke-width="0" class="cls-73" d="m338.434999,204.43483s0,0 0,0l-0.47,0.26s0,0 0,0l-0.48,-0.28s0,0 0,0l0.46,-0.26l0,0l0.49,0.28z" id="svg_1130"/>
   <path stroke-width="0" class="cls-73" d="m337.784999,204.02483l0,0l-0.47,0.27l0,0l-0.49,-0.28s0,0 0,0l0.47,-0.27a0,0 0 0 1 0,0l0.49,0.28z" id="svg_1131"/>
   <path stroke-width="0" class="cls-73" d="m337.114999,203.64483s0,0 0,0l-0.46,0.27a0,0 0 0 1 0,0l-0.49,-0.28s0,0 0,0l0.47,-0.27l0,0l0.48,0.28z" id="svg_1132"/>
   <path stroke-width="0" class="cls-73" d="m336.474999,203.27483s0,0 0,0l-0.46,0.26l0,0l-0.49,-0.28s0,0 0,0l0.46,-0.26a0,0 0 0 1 0,0l0.49,0.28z" id="svg_1133"/>
   <path stroke-width="0" class="cls-73" d="m335.824999,202.89483s0,0 0,0l-0.46,0.27l0,0l-0.49,-0.28s0,0 0,0l0.46,-0.27l0,0l0.49,0.28z" id="svg_1134"/>
   <path stroke-width="0" class="cls-73" d="m335.174999,202.52483s0,0 0,0l-0.46,0.26l0,0l-0.49,-0.28s0,0 0,0l0.46,-0.26s0,0 0,0l0.49,0.28z" id="svg_1135"/>
   <path stroke-width="0" class="cls-73" d="m341.984999,205.72483s0,0 0,0l-0.46,0.27l0,0l-0.48,-0.28s0,0 0,0l0.46,-0.27l0,0l0.48,0.28z" id="svg_1136"/>
   <path stroke-width="0" class="cls-73" d="m342.724999,205.43483s0,0 0,0l-0.43,0.25a0,0 0 0 1 0,0l-0.57,-0.33s0,0 0,0l0.43,-0.25l0,0l0.57,0.33z" id="svg_1137"/>
   <path stroke-width="0" class="cls-73" d="m337.494999,202.43483s0,0 0,0l-0.43,0.25a0,0 0 0 1 0,0l-1.1,-0.63l0,0l0.44,-0.25l0,0l1.09,0.63z" id="svg_1138"/>
   <path stroke-width="0" class="cls-73" d="m338.224999,202.86483s0,0 0,0l-0.43,0.25l0,0l-0.56,-0.33s0,0 0,0l0.43,-0.25a0,0 0 0 1 0,0l0.56,0.33z" id="svg_1139"/>
   <path stroke-width="0" class="cls-73" d="m341.994999,205.04483s0,0 0,0l-0.43,0.25a0,0 0 0 1 0,0l-3.63,-2.09s0,0 0,0l0.43,-0.25l0,0l3.63,2.09z" id="svg_1140"/>
   <path stroke-width="0" class="cls-73" d="m343.454999,205.89483s0,0 0,0l-0.43,0.24a0,0 0 0 1 0,0l-0.57,-0.32s0,0 0,0l0.43,-0.25l0,0l0.57,0.33z" id="svg_1141"/>
   <path stroke-width="0" class="cls-73" d="m344.674999,206.59483s0,0 0,0l-0.44,0.25s0,0 0,0l-1.05,-0.6s0,0 0,0l0.43,-0.25l0,0l1.06,0.6z" id="svg_1142"/>
   <path stroke-width="0" class="cls-73" d="m341.334999,205.35483s0,0 0,0l-0.47,0.26l0,0l-0.49,-0.28l0,0l0.47,-0.26a0,0 0 0 1 0,0l0.49,0.28z" id="svg_1143"/>
   <path stroke-width="0" class="cls-73" d="m340.674999,204.97483s0,0 0,0l-0.46,0.27l0,0l-0.49,-0.28s0,0 0,0l0.47,-0.27s0,0 0,0l0.48,0.28z" id="svg_1144"/>
   <path stroke-width="0" class="cls-73" d="m340.024999,204.59483s0,0 0,0l-0.46,0.27l0,0l-0.49,-0.28s0,0 0,0l0.46,-0.27l0,0l0.49,0.28z" id="svg_1145"/>
   <path stroke-width="0" class="cls-73" d="m339.374999,204.22483s0,0 0,0l-0.46,0.26a0,0 0 0 1 0,0l-0.48,-0.28s0,0 0,0l0.46,-0.26a0,0 0 0 1 0,0l0.48,0.28z" id="svg_1146"/>
   <path stroke-width="0" class="cls-73" d="m338.724999,203.84483s0,0 0,0l-0.47,0.27l0,0l-0.48,-0.28s0,0 0,0l0.46,-0.27l0,0l0.49,0.28z" id="svg_1147"/>
   <path stroke-width="0" class="cls-73" d="m338.114999,203.43483l0,0l-0.47,0.27l0,0l-0.53,-0.27s0,0 0,0l0.47,-0.27l0,0l0.53,0.27z" id="svg_1148"/>
   <path stroke-width="0" class="cls-73" d="m337.414999,203.09483s0,0 0,0l-0.46,0.26a0,0 0 0 1 0,0l-0.49,-0.28s0,0 0,0l0.46,-0.26l0,0l0.49,0.28z" id="svg_1149"/>
   <path stroke-width="0" class="cls-73" d="m336.764999,202.71483s0,0 0,0l-0.46,0.27l0,0l-0.49,-0.28s0,0 0,0l0.46,-0.27s0,0 0,0l0.49,0.28z" id="svg_1150"/>
   <path stroke-width="0" class="cls-73" d="m336.114999,202.33483s0,0 0,0l-0.46,0.27l0,0l-1.47,-0.85s0,0 0,0l0.47,-0.26s0,0 0,0l1.46,0.84z" id="svg_1151"/>
   <path stroke-width="0" class="cls-73" d="m336.234999,201.71483s0,0 0,0l-0.44,0.25s0,0 0,0l-1,-0.57s0,0 0,0l0.43,-0.25l0,0l1.01,0.57z" id="svg_1152"/>
   <path stroke-width="0" class="cls-73" d="m334.114999,200.48483s0,0 0,0l-0.43,0.25l0,0l-0.46,-0.26s0,0 0,0l0.44,-0.25l0,0l0.45,0.26z" id="svg_1153"/>
   <path stroke-width="0" class="cls-73" d="m333.474999,200.83483s0,0 0,0l-0.43,0.25l0,0l-0.46,-0.27s0,0 0,0l0.43,-0.25a0,0 0 0 1 0,0l0.46,0.27z" id="svg_1154"/>
   <path stroke-width="0" class="cls-73" d="m334.724999,200.85483s0,0 0,0l-0.43,0.25l0,0l-0.46,-0.26s0,0 0,0l0.44,-0.25l0,0l0.45,0.26z" id="svg_1155"/>
   <path stroke-width="0" class="cls-73" d="m333.454999,200.11483s0,0 0,0l-0.43,0.25l0,0l-0.45,-0.27s0,0 0,0l0.43,-0.25a0,0 0 0 1 0,0l0.45,0.27z" id="svg_1156"/>
   <path stroke-width="0" class="cls-73" d="m332.484999,199.55483s0,0 0,0l-0.43,0.25a0,0 0 0 1 0,0l-1.14,-0.65l0,0l0.44,-0.25a0,0 0 0 1 0,0l1.13,0.65z" id="svg_1157"/>
   <path stroke-width="0" class="cls-73" d="m331.194999,198.81483s0,0 0,0l-0.43,0.25s0,0 0,0l-0.46,-0.26s0,0 0,0l0.43,-0.25a0,0 0 0 1 0,0l0.46,0.26z" id="svg_1158"/>
   <path stroke-width="0" class="cls-73" d="m332.884999,202.49483l0.16,0.09l0.35,0.21l0.14,0.07l0,0l0.46,-0.26s0,0 0,0l-0.12,-0.07l0.61,-0.35s0,0 0,0l-0.51,-0.29a0,0 0 0 0 0,0l-1.08,0.62s-0.02,-0.02 -0.01,-0.02z" id="svg_1159"/>
   <polygon stroke-width="0" class="cls-74" points="313.6350036621093,209.3248291015625 313.6350036621093,209.93482971191406 323.44500122070303,215.59483337402344 329.7449890136718,211.954833984375 329.7449890136718,211.35482788085938 319.94503173828116,205.69483947753906 313.6350036621093,209.3248291015625 " id="svg_1160"/>
   <polygon stroke-width="0" class="cls-75" points="313.6350036621093,209.93482971191406 323.44500122070303,215.59483337402344 323.44500122070303,214.9948272705078 313.6350036621093,209.3248291015625 313.6350036621093,209.93482971191406 " id="svg_1161"/>
   <polygon stroke-width="0" class="cls-76" points="323.44500122070303,214.9948272705078 323.44500122070303,215.59483337402344 329.7449890136718,211.954833984375 329.7449890136718,211.35482788085938 323.44500122070303,214.9948272705078 " id="svg_1162"/>
   <path stroke-width="0" class="cls-77" d="m320.114999,209.43483a1,1 0 0 0 0,1.88a3.58,3.58 0 0 0 3.25,0a1,1 0 0 0 0,-1.88a3.58,3.58 0 0 0 -3.25,0z" id="svg_1163"/>
   <path stroke-width="0" class="cls-78" d="m320.114999,211.22483a3.58,3.58 0 0 0 3.25,0a1.18,1.18 0 0 0 0.68,-0.91a1.13,1.13 0 0 1 -0.68,1a3.58,3.58 0 0 1 -3.25,0a1.12,1.12 0 0 1 -0.67,-1a1.14,1.14 0 0 0 0.67,0.91z" id="svg_1164"/>
   <polygon stroke-width="0" class="cls-79" points="312.9949890136718,202.1248321533203 332.82500610351553,213.5748291015625 333.9949890136718,212.9048309326172 333.9949890136718,198.0848388671875 314.15496215820303,186.6248321533203 312.9949890136718,187.30484008789062 312.9949890136718,202.1248321533203 " id="svg_1165"/>
   <polygon stroke-width="0" class="cls-80" points="314.15496215820303,186.6248321533203 312.9949890136718,187.30484008789062 332.82500610351553,198.7548370361328 333.9949890136718,198.0848388671875 314.15496215820303,186.6248321533203 " id="svg_1166"/>
   <polygon stroke-width="0" class="cls-81" points="314.05501708984366,186.68482971191406 333.8850036621093,198.1448211669922 333.3349548339843,198.46482849121094 313.4949890136718,187.0048370361328 314.05501708984366,186.68482971191406 " id="svg_1167"/>
   <polygon stroke-width="0" class="cls-82" points="333.8850036621093,212.96482849121094 333.3349548339843,213.28482055664062 333.3349548339843,198.46482849121094 333.8850036621093,198.1448211669922 333.8850036621093,212.96482849121094 " id="svg_1168"/>
   <polygon stroke-width="0" class="cls-75" points="315.65496215820303,200.3148193359375 328.04497680664053,207.46482849121094 328.04497680664053,200.93482971191406 315.65496215820303,193.78482055664062 315.65496215820303,200.3148193359375 " id="svg_1169"/>
   <polygon stroke-width="0" class="cls-83" points="315.65496215820303,200.3148193359375 312.9949890136718,202.1248321533203 312.9949890136718,187.30484008789062 315.65496215820303,193.78482055664062 315.65496215820303,200.3148193359375 " id="svg_1170"/>
   <polygon stroke-width="0" class="cls-84" points="332.82500610351553,213.5748291015625 328.04497680664053,207.46482849121094 328.04497680664053,200.93482971191406 332.82500610351553,198.76483154296875 332.82500610351553,213.5748291015625 " id="svg_1171"/>
   <polygon stroke-width="0" class="cls-85" points="312.9949890136718,187.30484008789062 332.82500610351553,198.7548370361328 328.04497680664053,200.93482971191406 315.65496215820303,193.78482055664062 312.9949890136718,187.30484008789062 " id="svg_1172"/>
   <polygon stroke-width="0" class="cls-86" points="328.04497680664053,207.46482849121094 332.82500610351553,213.5848388671875 327.3950134277343,210.44483947753906 326.42501220703116,206.53482055664062 328.04497680664053,207.46482849121094 " id="svg_1173"/>
   <polygon stroke-width="0" class="cls-86" points="312.9949890136718,202.1248321533203 318.2449890136718,205.16482543945312 317.0050292968749,201.09483337402344 315.65496215820303,200.3148193359375 312.9949890136718,202.1248321533203 " id="svg_1174"/>
   <polygon stroke-width="0" class="cls-87" points="318.2449890136718,201.81483459472656 318.2449890136718,205.16482543945312 317.0050292968749,201.09483337402344 318.2449890136718,201.81483459472656 " id="svg_1175"/>
   <polygon stroke-width="0" class="cls-88" points="326.7149597167968,199.4148406982422 326.81499633789053,199.47483825683594 328.8449645996093,197.20481872558594 328.7449890136718,197.1448211669922 326.7149597167968,199.4148406982422 " id="svg_1176"/>
   <polygon stroke-width="0" class="cls-88" points="326.43499145507803,199.25482177734375 326.53496704101553,199.3148193359375 328.56499633789053,197.04483032226562 328.4649597167968,196.98483276367188 326.43499145507803,199.25482177734375 " id="svg_1177"/>
   <polygon stroke-width="0" class="cls-88" points="326.15496215820303,199.0848388671875 326.2449890136718,199.1448211669922 328.28496704101553,196.8748321533203 328.18499145507803,196.8248291015625 326.15496215820303,199.0848388671875 " id="svg_1178"/>
   <polygon stroke-width="0" class="cls-88" points="325.8650146484374,198.92483520507812 325.9649597167968,198.98483276367188 328.0050292968749,196.71482849121094 327.90496215820303,196.6548309326172 325.8650146484374,198.92483520507812 " id="svg_1179"/>
   <polygon stroke-width="0" class="cls-88" points="325.5849548339843,198.76483154296875 325.68499145507803,198.8248291015625 327.7249694824218,196.55484008789062 327.6249938964843,196.4948272705078 325.5849548339843,198.76483154296875 " id="svg_1180"/>
   <polygon stroke-width="0" class="cls-88" points="325.30498657226553,198.59483337402344 325.40499267578116,198.6548309326172 327.43499145507803,196.38482666015625 327.3449645996093,196.3248291015625 325.30498657226553,198.59483337402344 " id="svg_1181"/>
   <polygon stroke-width="0" class="cls-88" points="325.02498779296866,198.43482971191406 325.1249938964843,198.4948272705078 327.15496215820303,196.22482299804688 327.05501708984366,196.16482543945312 325.02498779296866,198.43482971191406 " id="svg_1182"/>
   <polygon stroke-width="0" class="cls-88" points="324.7449890136718,198.2748260498047 324.8449645996093,198.3348388671875 326.8749938964843,196.0648193359375 326.77495727539053,196.0048370361328 324.7449890136718,198.2748260498047 " id="svg_1183"/>
   <polygon stroke-width="0" class="cls-88" points="324.4649597167968,198.10482788085938 324.56499633789053,198.16482543945312 326.5949645996093,195.89483642578125 326.4949890136718,195.84483337402344 324.4649597167968,198.10482788085938 " id="svg_1184"/>
   <polygon stroke-width="0" class="cls-88" points="324.17498168945303,197.94483947753906 324.27495727539053,198.0048370361328 326.31499633789053,195.73483276367188 326.2149902343749,195.67483520507812 324.17498168945303,197.94483947753906 " id="svg_1185"/>
   <polygon stroke-width="0" class="cls-88" points="323.8950134277343,197.78482055664062 323.9949890136718,197.84483337402344 326.03496704101553,195.5748291015625 325.93502197265616,195.51483154296875 323.8950134277343,197.78482055664062 " id="svg_1186"/>
   <polygon stroke-width="0" class="cls-88" points="323.6150146484374,197.61483764648438 323.7149597167968,197.67483520507812 325.7449890136718,195.4048309326172 325.6450439453124,195.35482788085938 323.6150146484374,197.61483764648438 " id="svg_1187"/>
   <polygon stroke-width="0" class="cls-88" points="323.3349548339843,197.454833984375 323.43499145507803,197.51483154296875 325.4649597167968,195.2448272705078 325.3649841308593,195.18482971191406 323.3349548339843,197.454833984375 " id="svg_1188"/>
   <polygon stroke-width="0" class="cls-88" points="323.05501708984366,197.29483032226562 323.15496215820303,197.35482788085938 325.18499145507803,195.0848388671875 325.0849548339843,195.0248260498047 323.05501708984366,197.29483032226562 " id="svg_1189"/>
   <polygon stroke-width="0" class="cls-88" points="322.77495727539053,197.1248321533203 322.8749938964843,197.18482971191406 324.90496215820303,194.91482543945312 324.80498657226553,194.85482788085938 322.77495727539053,197.1248321533203 " id="svg_1190"/>
   <polygon stroke-width="0" class="cls-88" points="322.4949890136718,196.96482849121094 322.5849548339843,197.0248260498047 324.6249938964843,194.7548370361328 324.52495727539053,194.69483947753906 322.4949890136718,196.96482849121094 " id="svg_1191"/>
   <polygon stroke-width="0" class="cls-88" points="322.20501098632803,196.80484008789062 322.30498657226553,196.86483764648438 324.3449645996093,194.59483337402344 324.2449890136718,194.53482055664062 322.20501098632803,196.80484008789062 " id="svg_1192"/>
   <polygon stroke-width="0" class="cls-88" points="321.92498168945303,196.63482666015625 322.02498779296866,196.69483947753906 324.05501708984366,194.42483520507812 323.9649597167968,194.3748321533203 321.92498168945303,196.63482666015625 " id="svg_1193"/>
   <polygon stroke-width="0" class="cls-88" points="321.6450439453124,196.47483825683594 321.7449890136718,196.53482055664062 323.77495727539053,194.26483154296875 323.67498168945303,194.20481872558594 321.6450439453124,196.47483825683594 " id="svg_1194"/>
   <polygon stroke-width="0" class="cls-88" points="321.3649841308593,196.3148193359375 321.4649597167968,196.3748321533203 323.4949890136718,194.10482788085938 323.3950134277343,194.04483032226562 321.3649841308593,196.3148193359375 " id="svg_1195"/>
   <polygon stroke-width="0" class="cls-88" points="321.0849548339843,196.1448211669922 321.18499145507803,196.20481872558594 323.2149902343749,193.93482971191406 323.1149841308593,193.88482666015625 321.0849548339843,196.1448211669922 " id="svg_1196"/>
   <polygon stroke-width="0" class="cls-88" points="320.79497680664053,195.98483276367188 320.8950134277343,196.04483032226562 322.93502197265616,193.7748260498047 322.8349853515624,193.71482849121094 320.79497680664053,195.98483276367188 " id="svg_1197"/>
   <polygon stroke-width="0" class="cls-88" points="320.5150085449218,195.8248291015625 320.6150146484374,195.88482666015625 322.65496215820303,193.61483764648438 322.55498657226553,193.55484008789062 320.5150085449218,195.8248291015625 " id="svg_1198"/>
   <polygon stroke-width="0" class="cls-88" points="320.2349792480468,195.6548309326172 320.3349548339843,195.71482849121094 322.3649841308593,193.44483947753906 322.2650085449218,193.38482666015625 320.2349792480468,195.6548309326172 " id="svg_1199"/>
   <polygon stroke-width="0" class="cls-88" points="319.95504150390616,195.4948272705078 320.05501708984366,195.55484008789062 322.0849548339843,193.28482055664062 321.9849792480468,193.22482299804688 319.95504150390616,195.4948272705078 " id="svg_1200"/>
   <polygon stroke-width="0" class="cls-88" points="319.67498168945303,195.3348388671875 319.77495727539053,195.39483642578125 321.80498657226553,193.1248321533203 321.70501098632803,193.0648193359375 319.67498168945303,195.3348388671875 " id="svg_1201"/>
   <polygon stroke-width="0" class="cls-88" points="319.3950134277343,195.16482543945312 319.4949890136718,195.22482299804688 321.52495727539053,192.954833984375 321.42501220703116,192.9048309326172 319.3950134277343,195.16482543945312 " id="svg_1202"/>
   <polygon stroke-width="0" class="cls-88" points="319.1149841308593,195.0048370361328 319.20501098632803,195.0648193359375 321.2449890136718,192.79483032226562 321.1450134277343,192.73483276367188 319.1149841308593,195.0048370361328 " id="svg_1203"/>
   <polygon stroke-width="0" class="cls-88" points="318.82500610351553,194.84483337402344 318.92498168945303,194.9048309326172 320.9649597167968,192.63482666015625 320.8650146484374,192.5748291015625 318.82500610351553,194.84483337402344 " id="svg_1204"/>
   <polygon stroke-width="0" class="cls-88" points="318.54497680664053,194.67483520507812 318.6450439453124,194.73483276367188 320.68499145507803,192.46482849121094 320.5849548339843,192.4148406982422 318.54497680664053,194.67483520507812 " id="svg_1205"/>
   <polygon stroke-width="0" class="cls-88" points="318.2650085449218,194.51483154296875 318.3649841308593,194.5748291015625 320.3950134277343,192.30484008789062 320.29497680664053,192.2448272705078 318.2650085449218,194.51483154296875 " id="svg_1206"/>
   <polygon stroke-width="0" class="cls-88" points="317.9849792480468,194.35482788085938 318.0849548339843,194.4148406982422 320.1149841308593,192.1448211669922 320.0150390624999,192.0848388671875 317.9849792480468,194.35482788085938 " id="svg_1207"/>
   <polygon stroke-width="0" class="cls-88" points="317.70501098632803,194.18482971191406 317.79497680664053,194.2448272705078 319.8349853515624,191.97482299804688 319.7349792480468,191.92483520507812 317.70501098632803,194.18482971191406 " id="svg_1208"/>
   <polygon stroke-width="0" class="cls-88" points="317.41500244140616,194.0248260498047 317.5150085449218,194.0848388671875 319.55498657226553,191.81483459472656 319.45501098632803,191.7548370361328 317.41500244140616,194.0248260498047 " id="svg_1209"/>
   <polygon stroke-width="0" class="cls-88" points="317.1350036621093,193.86483764648438 317.2349792480468,193.92483520507812 319.27495727539053,191.6548309326172 319.17498168945303,191.59483337402344 317.1350036621093,193.86483764648438 " id="svg_1210"/>
   <polygon stroke-width="0" class="cls-88" points="316.8549743652343,193.69483947753906 316.95504150390616,193.7548370361328 318.9949890136718,191.48483276367188 318.8850036621093,191.43482971191406 316.8549743652343,193.69483947753906 " id="svg_1211"/>
   <polygon stroke-width="0" class="cls-88" points="316.57500610351553,193.53482055664062 316.67498168945303,193.59483337402344 318.70501098632803,191.3248291015625 318.6049743652343,191.26483154296875 316.57500610351553,193.53482055664062 " id="svg_1212"/>
   <polygon stroke-width="0" class="cls-88" points="316.29497680664053,193.3748321533203 316.3950134277343,193.43482971191406 318.42501220703116,191.16482543945312 318.32500610351553,191.10482788085938 316.29497680664053,193.3748321533203 " id="svg_1213"/>
   <polygon stroke-width="0" class="cls-89" points="319.8650146484374,198.7448272705078 320.4949890136718,198.39483642578125 322.2249694824218,199.38482666015625 322.2249694824218,205.1248321533203 321.5849548339843,205.47483825683594 319.8650146484374,204.48483276367188 319.8650146484374,198.7448272705078 " id="svg_1214"/>
   <polygon stroke-width="0" class="cls-90" points="321.5849548339843,199.7448272705078 322.2249694824218,199.38482666015625 322.2249694824218,205.1248321533203 321.5849548339843,205.47483825683594 321.5849548339843,199.7448272705078 " id="svg_1215"/>
   <polygon stroke-width="0" class="cls-80" points="320.4949890136718,198.39483642578125 322.2249694824218,199.38482666015625 321.5849548339843,199.7448272705078 319.8650146484374,198.7448272705078 320.4949890136718,198.39483642578125 " id="svg_1216"/>
   <path stroke-width="0" class="cls-91" d="m318.854999,197.77483l0,9.47l1.17,2.39l2.7,1.56l0.58,-0.33l-1.19,-2.53l0,-9.3l-2.7,-1.56l-0.56,0.3zm1.7,9.47l0,-2.38l0.77,0.44l0,2.39l-0.77,-0.45z" id="svg_1217"/>
   <polygon stroke-width="0" class="cls-92" points="319.65496215820303,204.96482849121094 319.9949890136718,205.16482543945312 319.9949890136718,207.54483032226562 319.65496215820303,207.704833984375 319.65496215820303,204.96482849121094 " id="svg_1218"/>
   <polygon stroke-width="0" class="cls-93" points="319.9949890136718,207.54483032226562 320.7650085449218,207.9948272705078 320.7650085449218,208.3348388671875 319.65496215820303,207.704833984375 319.9949890136718,207.54483032226562 " id="svg_1219"/>
   <polygon stroke-width="0" class="cls-94" points="322.0849548339843,208.3248291015625 322.0849548339843,199.03482055664062 321.56499633789053,199.3348388671875 321.56499633789053,208.79483032226562 322.7249694824218,211.19482421875 323.30498657226553,210.86483764648438 322.0849548339843,208.3248291015625 " id="svg_1220"/>
   <polygon stroke-width="0" class="cls-81" points="318.8549743652343,197.78482055664062 321.56499633789053,199.35482788085938 322.0849548339843,199.03482055664062 319.3850341796874,197.47483825683594 318.8549743652343,197.78482055664062 " id="svg_1221"/>
   <polygon stroke-width="0" class="cls-95" points="320.02498779296866,209.63482666015625 322.7249694824218,211.19482421875 321.56499633789053,208.79483032226562 318.8549743652343,207.2448272705078 320.02498779296866,209.63482666015625 " id="svg_1222"/>
   <polygon stroke-width="0" class="cls-96" points="319.2449890136718,199.10482788085938 319.3449645996093,199.04483032226562 321.06502685546866,200.04483032226562 321.06502685546866,205.7748260498047 320.9649597167968,205.8348388671875 319.2449890136718,204.8348388671875 319.2449890136718,199.10482788085938 " id="svg_1223"/>
   <polygon stroke-width="0" class="cls-90" points="320.9649597167968,200.09483337402344 321.06502685546866,200.04483032226562 321.06502685546866,205.7748260498047 320.9649597167968,205.8348388671875 320.9649597167968,200.09483337402344 " id="svg_1224"/>
   <polygon stroke-width="0" class="cls-80" points="319.3449645996093,199.04483032226562 321.06502685546866,200.04483032226562 320.9649597167968,200.09483337402344 319.2449890136718,199.10482788085938 319.3449645996093,199.04483032226562 " id="svg_1225"/>
  </g>
 </g>
</svg>