<svg width="636.7" height="444.62000000000006" xmlns="http://www.w3.org/2000/svg">
 <defs>
  <style>.cls-1{isolation:isolate;}.cls-2{fill:#5da5fd;}.cls-2,.cls-53{opacity:0.2;}.cls-2,.cls-52,.cls-53,.cls-59{mix-blend-mode:multiply;}.cls-3{fill:none;stroke:#3483ef;stroke-miterlimit:10;}.cls-4{fill:#3483ef;}.cls-5{fill:#e9faff;}.cls-6{fill:#ffad97;}.cls-7{fill:#4d4d4d;}.cls-8{fill:#5d588d;}.cls-9{fill:#d1406b;}.cls-10{fill:#ef4f77;}.cls-11{fill:#fff;}.cls-12{fill:#7c76ac;}.cls-13{fill:#ffc5b3;}.cls-14{fill:#dba763;}.cls-15{fill:#e8b679;}.cls-16{fill:#ffe1c0;}.cls-17{fill:#6d6d6d;}.cls-18{fill:#ffba76;}.cls-19{fill:#ffa543;}.cls-20{fill:#afafaf;}.cls-21{fill:#3a3a3a;}.cls-22{fill:#d3d3d3;}.cls-23{fill:#7c7c7c;}.cls-24{fill:#707070;}.cls-25{fill:#c1c1c1;}.cls-26{fill:#ddd;}.cls-27{fill:#cc8c46;}.cls-28{fill:#d89c55;}.cls-29{fill:#e8b470;}.cls-30{fill:#fc6181;}.cls-31{fill:#bf7e3d;}.cls-32{fill:#ed8e2f;}.cls-33{fill:#c96a1c;}.cls-34{fill:#d87923;}.cls-35{fill:#a3a3a3;}.cls-36{fill:#97a9dd;}.cls-37{fill:#8583b7;}.cls-38{fill:url(#linear-gradient);}.cls-39{fill:url(#linear-gradient-2);}.cls-40{fill:#222b2e;}.cls-41{fill:url(#linear-gradient-3);}.cls-42{fill:url(#linear-gradient-4);}.cls-43{fill:#0d1417;}.cls-44{fill:url(#linear-gradient-5);}.cls-45{fill:url(#linear-gradient-6);}.cls-46{fill:url(#linear-gradient-7);}.cls-47{fill:url(#linear-gradient-8);}.cls-48{fill:url(#linear-gradient-9);}.cls-49{fill:url(#linear-gradient-10);}.cls-50{fill:url(#linear-gradient-11);}.cls-51{fill:#518dca;}.cls-52{opacity:0.4;fill:url(#ÕÓ_È_Ó·_ÁÂ_ËÂÌÚ_2);}.cls-54,.cls-84{fill:#2e373a;}.cls-54,.cls-55,.cls-56,.cls-57{fill-rule:evenodd;}.cls-56{fill:#0e2841;}.cls-57,.cls-65{fill:#1c354e;}.cls-58{fill:#273438;}.cls-59{fill:#d78d68;opacity:0.15;}.cls-60{fill:#d4dbdf;}.cls-61{fill:#b52025;}.cls-62{fill:#344246;}.cls-63{fill:#e1e7eb;}.cls-64{fill:#414f53;}.cls-66{fill:#2e383b;}.cls-67{fill:#f1a882;}.cls-68{fill:#bac1c5;}.cls-69{fill:#d3dade;}.cls-70{fill:#eef5f8;}.cls-71{fill:#f7fbff;}.cls-72{fill:#151f22;}.cls-73{fill:#545f64;}.cls-74{fill:#626b6f;}.cls-75{fill:#3c4447;}.cls-76{fill:url(#linear-gradient-12);}.cls-77{fill:#c6cbcc;}.cls-78{fill:url(#linear-gradient-13);}.cls-79{fill:#293033;}.cls-80{fill:#6f787b;}.cls-81{fill:#babec0;}.cls-82{fill:url(#linear-gradient-14);}.cls-83{fill:#353f42;}.cls-85{fill:url(#linear-gradient-15);}.cls-86{fill:#2a373b;}.cls-87{fill:#3c4548;}.cls-88{fill:#161f21;}.cls-89{fill:url(#linear-gradient-16);}.cls-90{fill:#30393c;}.cls-91{fill:#a0a4a7;}.cls-92{fill:url(#linear-gradient-17);}.cls-93{fill:#878c8d;}.cls-94{fill:url(#linear-gradient-18);}.cls-95{fill:#80848a;}.cls-96{fill:url(#linear-gradient-19);}</style>
 </defs>
 <g>
  <title>background</title>
  <rect x="-1" y="-1" width="638.7" height="446.62" id="canvas_background" fill="none"/>
 </g>
 <g>
  <title>Layer 1</title>
  <g id="svg_1292">
   <path class="cls-5" d="m241.180001,236.158844l73.42,-42.38a8.26,8.26 0 0 1 7.5,0l73.41,42.38a2.62,2.62 0 0 1 1.55,2.17l0,4.63a2.62,2.62 0 0 1 -1.55,2.17l-73.4,42.35a8.35,8.35 0 0 1 -7.5,0l-73.42,-42.39a2.64,2.64 0 0 1 -1.55,-2.17l0,-4.63a2.64,2.64 0 0 1 1.54,-2.13z" id="svg_119"/>
   <path class="cls-2" d="m241.180001,240.478844l73.42,42.39a8.26,8.26 0 0 0 7.5,0l73.41,-42.39a2.62,2.62 0 0 0 1.55,-2.16l0,4.63a2.62,2.62 0 0 1 -1.55,2.17l-73.4,42.36a8.35,8.35 0 0 1 -7.5,0l-73.42,-42.39a2.64,2.64 0 0 1 -1.55,-2.17l0,-4.63a2.64,2.64 0 0 0 1.54,2.19z" id="svg_120"/>
   <path class="cls-7" d="m291.030001,228.648844s-0.93,1 -2.18,2.23s-1.51,1.44 -2.58,2.49c-0.63,0.61 -0.11,1.17 1.08,1.12a21.56,21.56 0 0 0 4.74,-1a25.11,25.11 0 0 0 3.56,-1.85a2.35,2.35 0 0 0 1.05,-1.34l0,-1.87l-5.67,0.22z" id="svg_173"/>
   <path class="cls-7" d="m308.110001,226.978844a15.3,15.3 0 0 1 -1.84,2.09a20.37,20.37 0 0 0 -2.51,2.91c-0.24,0.31 -0.37,1.18 0.82,1.14a16.23,16.23 0 0 0 4,-1c1.51,-0.54 2.79,-2.07 3.68,-2.63a3.73,3.73 0 0 0 1.27,-1.79l-0.61,-1.85l-4.81,1.13z" id="svg_174"/>
   <path class="cls-8" d="m307.600001,196.558844c0.44,-6.89 -3.35,-10.5 -3.35,-10.5c0.3,-2.32 -10.46,0.92 -10.46,0.92s-2.3,12.47 -3.28,19c-1.1,7.47 -0.43,22.66 -0.43,22.66s0.14,1.62 2.92,1.61a5.53,5.53 0 0 0 3.7,-1.87l0.22,-17.3l2.47,-12.26s2.38,10 3.14,13.54c0.8,3.81 3.87,15.07 3.87,15.07s2,2.28 4.46,1s2,-2.62 2,-2.62a50.11,50.11 0 0 0 -3.66,-15.13c-0.28,-5.35 -1.8,-10.96 -1.6,-14.12z" id="svg_175"/>
   <path class="cls-9" d="m295.260001,168.918844s-1.54,-0.08 -3.12,2.9s-3.11,6.16 -3.11,6.16a10,10 0 0 1 4.83,2.65c3.44,-3.15 4,-10.26 1.4,-11.71z" id="svg_176"/>
   <path class="cls-10" d="m295.260001,168.918844a24.68,24.68 0 0 0 -1.66,4.7c-0.79,3 -0.51,17.19 -0.51,17.19a14.06,14.06 0 0 0 8.77,1.87a7.43,7.43 0 0 0 4.93,-2.29s2,-13.86 1.69,-15.85s-4.42,-6.65 -4.42,-6.65s-5.49,-0.28 -8.8,1.03z" id="svg_177"/>
   <path class="cls-8" d="m299.670001,177.628844s2.39,-3.6 4.29,-4.61a10.9,10.9 0 0 1 3.18,-1.2s-0.69,-1.42 -1.15,-1.58a9.78,9.78 0 0 0 -3.29,1.22a12.78,12.78 0 0 0 -4.32,4.34c-1.5,2.68 0.19,3.36 1.29,1.83z" id="svg_178"/>
   <path class="cls-8" d="m295.830001,168.708844a28.79,28.79 0 0 0 -1.74,5.51c-0.19,1.78 0.17,2.33 0.88,2.4s0.76,-1.22 1,-2.64s1.51,-5.75 1.51,-5.75l-1.65,0.48z" id="svg_179"/>
   <path class="cls-8" d="m307.010001,188.828844a6.78,6.78 0 0 1 -3.58,0.91c-1.52,-0.17 -3.7,-1.64 -3.58,-6.44a44.69,44.69 0 0 1 0.56,-7l-5.8,-2.54s-1.57,3.64 -1.88,10.79s-0.44,9.6 -0.44,9.6a78.41,78.41 0 0 0 9.84,0a13,13 0 0 0 5.27,-1.41l-0.39,-3.91z" id="svg_180"/>
   <path class="cls-6" d="m299.020001,166.978844l-0.64,3.72s1.9,2.12 3.75,0.53a7.52,7.52 0 0 0 2.12,-2.31l-0.92,-5.07l-4.31,3.13z" id="svg_181"/>
   <path class="cls-13" d="m301.630001,158.268844a4.28,4.28 0 0 0 -6.69,2.28c-1.44,4.06 2.24,9.13 4.2,8.27a8.25,8.25 0 0 0 4.05,-4.34c0.73,-2.4 -0.33,-5.28 -1.56,-6.21z" id="svg_182"/>
   <path class="cls-7" d="m294.610001,161.838844a3.66,3.66 0 0 0 3.57,1.08a8,8 0 0 0 2.76,-1l0.33,2.15a1.72,1.72 0 0 0 0.56,-0.2c0,-0.85 0.34,-1.12 0.81,-0.87s0.55,1.5 0.55,1.5a4.4,4.4 0 0 0 1.06,-4c-0.34,-1.51 -2.38,-4.5 -5.23,-4.23a5.26,5.26 0 0 0 -4.86,3.78a2,2 0 0 0 0.45,1.79z" id="svg_183"/>
   <path class="cls-11" d="m295.250001,175.068844c0,0.3 -0.16,0.54 -0.37,0.54s-0.36,-0.24 -0.36,-0.54s0.16,-0.53 0.36,-0.53s0.37,0.24 0.37,0.53z" id="svg_184"/>
   <path class="cls-11" d="m298.720001,176.688844a0.48,0.48 0 0 0 0,0.65c0.16,0.12 0.44,0 0.61,-0.22s0.18,-0.53 0,-0.64s-0.44,0 -0.61,0.21z" id="svg_185"/>
   <path class="cls-12" d="m294.110001,177.388844c-0.23,1.2 -0.11,5 2,5.54c1.94,0.51 2.44,-1.77 2.89,-3.54a19.58,19.58 0 0 1 -4.89,-2z" id="svg_186"/>
   <path class="cls-20" d="m277.910001,250.628844a16,16 0 0 0 0.64,2a1.05,1.05 0 0 0 1.76,0.38c0.56,-0.58 0.6,-1.27 0.68,-2.58a6.24,6.24 0 0 0 0.06,-1.54l-3.14,1.74z" id="svg_187"/>
   <path class="cls-21" d="m281.750001,252.478844a2.25,2.25 0 0 1 -1.49,2.33a1.43,1.43 0 0 1 -2,-1.12a2.26,2.26 0 0 1 1.49,-2.34a1.44,1.44 0 0 1 2,1.13z" id="svg_188"/>
   <polygon class="cls-21" points="279.72998046875,255.1788558959961 278.8899841308594,254.69884490966797 280.9000244140625,251.38884735107422 281.79998779296875,251.85884857177734 279.72998046875,255.1788558959961 " id="svg_189"/>
   <path class="cls-7" d="m282.510001,252.918844a2.26,2.26 0 0 1 -1.49,2.33a1.43,1.43 0 0 1 -2,-1.12a2.27,2.27 0 0 1 1.49,-2.34a1.44,1.44 0 0 1 2,1.13z" id="svg_190"/>
   <path class="cls-20" d="m279.000001,250.998844a25.62,25.62 0 0 0 0.75,2.78a0.82,0.82 0 0 0 1.47,0.33c0.51,-0.56 0.59,-1.77 0.67,-3.05a11,11 0 0 0 0,-2.12l-2.89,2.06z" id="svg_191"/>
   <path class="cls-11" d="m281.110001,253.588844a0.45,0.45 0 0 1 -0.29,0.45a0.28,0.28 0 0 1 -0.38,-0.22a0.44,0.44 0 0 1 0.28,-0.45a0.29,0.29 0 0 1 0.39,0.22z" id="svg_192"/>
   <path class="cls-20" d="m255.290001,237.628844a17.59,17.59 0 0 0 0.65,2a1.06,1.06 0 0 0 1.76,0.38c0.56,-0.58 0.59,-1.27 0.68,-2.58c0.11,-1.64 0.05,-1.54 0.05,-1.54l-3.14,1.74z" id="svg_193"/>
   <path class="cls-21" d="m259.110001,239.478844a2.25,2.25 0 0 1 -1.49,2.33a1.43,1.43 0 0 1 -2,-1.12a2.26,2.26 0 0 1 1.49,-2.34a1.44,1.44 0 0 1 2,1.13z" id="svg_194"/>
   <polygon class="cls-21" points="257.1099853515625,242.18883514404297 256.280029296875,241.70885467529297 258.280029296875,238.39885711669922 259.17999267578125,238.86885833740234 257.1099853515625,242.18883514404297 " id="svg_195"/>
   <path class="cls-7" d="m259.900001,239.928844a2.26,2.26 0 0 1 -1.49,2.33a1.44,1.44 0 0 1 -2,-1.13a2.25,2.25 0 0 1 1.49,-2.33a1.44,1.44 0 0 1 2,1.13z" id="svg_196"/>
   <path class="cls-20" d="m256.390001,238.008844a26.69,26.69 0 0 0 0.74,2.77a0.83,0.83 0 0 0 1.48,0.34c0.51,-0.56 0.59,-1.77 0.66,-3.05a12.17,12.17 0 0 0 0,-2.13l-2.88,2.07z" id="svg_197"/>
   <path class="cls-11" d="m258.440001,240.598844a0.42,0.42 0 0 1 -0.28,0.44a0.28,0.28 0 0 1 -0.39,-0.21a0.45,0.45 0 0 1 0.29,-0.45a0.27,0.27 0 0 1 0.38,0.22z" id="svg_198"/>
   <path class="cls-20" d="m290.820001,243.168844a16.5,16.5 0 0 0 0.64,2a1.06,1.06 0 0 0 1.76,0.38c0.56,-0.58 0.6,-1.27 0.68,-2.59a6.24,6.24 0 0 0 0.06,-1.54l-3.14,1.75z" id="svg_199"/>
   <path class="cls-21" d="m294.660001,245.018844a2.27,2.27 0 0 1 -1.49,2.34a1.44,1.44 0 0 1 -2,-1.13a2.25,2.25 0 0 1 1.49,-2.33a1.43,1.43 0 0 1 2,1.12z" id="svg_200"/>
   <polygon class="cls-21" points="292.6300354003906,247.72884368896484 291.79998779296875,247.23885345458984 293.80999755859375,243.93883514404297 294.7099609375,244.39885711669922 292.6300354003906,247.72884368896484 " id="svg_201"/>
   <path class="cls-7" d="m295.420001,245.478844a2.27,2.27 0 0 1 -1.49,2.34a1.44,1.44 0 0 1 -2,-1.13a2.26,2.26 0 0 1 1.49,-2.33a1.43,1.43 0 0 1 2,1.12z" id="svg_202"/>
   <path class="cls-20" d="m291.910001,243.538844a25.62,25.62 0 0 0 0.75,2.78a0.82,0.82 0 0 0 1.47,0.33c0.51,-0.56 0.59,-1.76 0.67,-3a11.19,11.19 0 0 0 0,-2.13l-2.89,2.02z" id="svg_203"/>
   <path class="cls-11" d="m293.970001,246.128844a0.43,0.43 0 0 1 -0.29,0.45a0.27,0.27 0 0 1 -0.38,-0.22a0.42,0.42 0 0 1 0.28,-0.44a0.28,0.28 0 0 1 0.39,0.21z" id="svg_204"/>
   <polygon class="cls-20" points="277.1099853515625,201.70885467529297 281.1199951171875,189.9288558959961 279.80999755859375,189.2988510131836 275.6399841308594,200.9288558959961 275.6399841308594,230.21883392333984 277.1099853515625,229.51885223388672 277.1099853515625,201.70885467529297 " id="svg_205"/>
   <polygon class="cls-20" points="295.2200012207031,197.80883026123047 290.8399658203125,210.00884246826172 290.8399658203125,239.30883026123047 292.30999755859375,238.60884857177734 292.30999755859375,210.7888412475586 296.57000732421875,198.2888412475586 295.2200012207031,197.80883026123047 " id="svg_206"/>
   <polygon class="cls-22" points="296.57000732421875,239.18883514404297 276.5099792480469,250.7888412475586 252.50999450683594,236.9188461303711 272.58001708984375,225.32884979248047 296.57000732421875,239.18883514404297 " id="svg_207"/>
   <polygon class="cls-23" points="276.5099792480469,250.7888412475586 276.5099792480469,252.51885223388672 296.57000732421875,240.9288558959961 296.57000732421875,239.18883514404297 276.5099792480469,250.7888412475586 " id="svg_208"/>
   <polygon class="cls-20" points="276.5099792480469,252.51885223388672 276.5099792480469,250.7888412475586 252.50999450683594,236.9188461303711 252.50999450683594,238.6588363647461 276.5099792480469,252.51885223388672 " id="svg_209"/>
   <polygon class="cls-20" points="291.41998291015625,221.4188461303711 276.5099792480469,212.81884002685547 276.5099792480469,214.48885345458984 291.41998291015625,223.08882904052734 291.41998291015625,221.4188461303711 " id="svg_210"/>
   <polygon class="cls-20" points="291.41998291015625,216.80883026123047 276.5099792480469,208.21883392333984 276.5099792480469,209.87883758544922 291.41998291015625,218.47884368896484 291.41998291015625,216.80883026123047 " id="svg_211"/>
   <path class="cls-23" d="m298.960001,198.888844l-16.72,-9.65l0,0l-3.46,-2a0.74,0.74 0 0 0 -0.74,1.28l16.72,9.66l0,0l3.45,2a0.73,0.73 0 0 0 1,-0.27a0.74,0.74 0 0 0 -0.25,-1.02z" id="svg_212"/>
   <path class="cls-13" d="m301.310001,181.728844s-2.2,4.75 -3.2,6.05a35.81,35.81 0 0 1 -5.42,5.2a5.41,5.41 0 0 1 -2,0.5c-0.67,0 -1.37,-0.22 -1.85,-0.14c-0.12,0.64 1.56,1.11 1.56,1.11a2.77,2.77 0 0 0 -0.91,1.51c-0.06,0.53 1,1.41 2.26,2.07c0.86,0.47 2.28,-0.52 2.7,-1.22s0.25,-1.22 1,-1.92c1.49,-1.38 4.57,-3.36 5.33,-4.33c1.06,-1.38 4.63,-6.31 4.63,-6.31s-1.16,-3.14 -4.1,-2.52z" id="svg_213"/>
   <path class="cls-13" d="m289.780001,178.168844s-0.66,1 -1.29,2.13s-3.69,7.27 -4.2,8s-0.95,0.77 -1.84,1.95a1.67,1.67 0 0 0 0.16,2.52a3,3 0 0 0 1.67,1a1.58,1.58 0 0 0 1.4,-0.77s-0.55,-0.26 -0.05,-0.89a1.1,1.1 0 0 1 0.92,-0.32a14.5,14.5 0 0 1 -0.13,-1.57c0,-1.27 1.4,-2.78 2.1,-3.85s2.27,-3.2 2.93,-4.32c0.42,-0.71 1.3,-2.27 1.3,-2.27a5.89,5.89 0 0 0 -2.97,-1.61z" id="svg_214"/>
   <path class="cls-9" d="m307.770001,172.828844c-1.16,-0.94 -3.66,2.24 -5,4.23a27.26,27.26 0 0 0 -2.38,4.95s1.59,1.16 3,2.06a21.81,21.81 0 0 0 2.46,1.33s5.92,-9.35 1.92,-12.57z" id="svg_215"/>
   <polygon class="cls-14" points="274.469970703125,246.94884490966797 274.4599914550781,236.4188461303711 289.7400207519531,227.59883880615234 289.7400207519531,238.09883880615234 274.469970703125,246.94884490966797 " id="svg_216"/>
   <polygon class="cls-15" points="274.469970703125,246.94884490966797 274.4599914550781,236.4188461303711 259.19000244140625,227.59883880615234 259.19000244140625,238.09883880615234 274.469970703125,246.94884490966797 " id="svg_217"/>
   <polygon class="cls-16" points="259.19000244140625,227.59883880615234 274.4599914550781,236.4188461303711 289.7400207519531,227.59883880615234 274.469970703125,218.76885223388672 259.19000244140625,227.59883880615234 " id="svg_218"/>
   <polygon class="cls-7" points="284.0600280761719,236.43883514404297 280.6500244140625,238.4088363647461 280.6500244140625,232.83882904052734 284.0600280761719,230.85884857177734 284.0600280761719,236.43883514404297 " id="svg_219"/>
   <polygon class="cls-17" points="284.0600280761719,230.85884857177734 268.80999755859375,222.0388412475586 265.3900146484375,224.00884246826172 280.6500244140625,232.83882904052734 284.0600280761719,230.85884857177734 " id="svg_220"/>
   <polygon class="cls-7" points="286.2200012207031,235.2988510131836 286.2200012207031,238.70885467529297 288.66998291015625,237.2888412475586 288.66998291015625,233.87883758544922 286.2200012207031,235.2988510131836 " id="svg_221"/>
   <polygon class="cls-7" points="262.27001953125,235.51885223388672 262.27001953125,239.06884002685547 259.82000732421875,237.6588363647461 259.82000732421875,234.09883880615234 262.27001953125,235.51885223388672 " id="svg_222"/>
   <polygon class="cls-7" points="265.6099853515625,237.45885467529297 265.6099853515625,241.00884246826172 263.1600036621094,239.59883880615234 263.1600036621094,236.0388412475586 265.6099853515625,237.45885467529297 " id="svg_223"/>
   <polygon class="cls-11" points="273.79998779296875,236.85884857177734 273.79998779296875,241.96883392333984 268.7599792480469,239.0488510131836 268.7599792480469,233.93883514404297 273.79998779296875,236.85884857177734 " id="svg_224"/>
   <polygon class="cls-7" points="273.17999267578125,237.9088363647461 273.17999267578125,237.06884002685547 269.2200012207031,234.7888412475586 269.2200012207031,235.60884857177734 273.17999267578125,237.9088363647461 " id="svg_225"/>
   <polygon class="cls-14" points="274.72998046875,234.57884979248047 274.72998046875,218.88884735107422 287.260009765625,211.64885711669922 287.260009765625,227.30883026123047 274.72998046875,234.57884979248047 " id="svg_226"/>
   <polygon class="cls-15" points="274.72998046875,234.57884979248047 274.72998046875,218.88884735107422 262.19000244140625,211.64885711669922 262.19000244140625,227.30883026123047 274.72998046875,234.57884979248047 " id="svg_227"/>
   <polygon class="cls-16" points="262.19000244140625,211.64885711669922 274.72998046875,218.88884735107422 287.260009765625,211.64885711669922 274.72998046875,204.39885711669922 262.19000244140625,211.64885711669922 " id="svg_228"/>
   <polygon class="cls-7" points="282.5999755859375,218.89885711669922 279.79998779296875,220.5288314819336 279.79998779296875,215.94884490966797 282.5999755859375,214.31884002685547 282.5999755859375,218.89885711669922 " id="svg_229"/>
   <polygon class="cls-17" points="282.5999755859375,214.31884002685547 270.08001708984375,207.08882904052734 267.280029296875,208.70885467529297 279.79998779296875,215.94884490966797 282.5999755859375,214.31884002685547 " id="svg_230"/>
   <polygon class="cls-7" points="284.3699951171875,225.01885223388672 284.3699951171875,227.80883026123047 286.3800048828125,226.64885711669922 286.3800048828125,223.84883880615234 284.3699951171875,225.01885223388672 " id="svg_231"/>
   <polygon class="cls-7" points="264.95001220703125,224.72884368896484 264.95001220703125,227.63884735107422 262.94000244140625,226.47884368896484 262.94000244140625,223.55883026123047 264.95001220703125,224.72884368896484 " id="svg_232"/>
   <polygon class="cls-7" points="267.70001220703125,226.31884002685547 267.70001220703125,229.22884368896484 265.67999267578125,228.06884002685547 265.67999267578125,225.1588363647461 267.70001220703125,226.31884002685547 " id="svg_233"/>
   <polygon class="cls-11" points="267.07000732421875,216.19884490966797 267.07000732421875,220.38884735107422 262.94000244140625,217.99883270263672 262.94000244140625,213.80883026123047 267.07000732421875,216.19884490966797 " id="svg_234"/>
   <polygon class="cls-7" points="266.57000732421875,217.05883026123047 266.57000732421875,216.37883758544922 263.30999755859375,214.49883270263672 263.30999755859375,215.1688461303711 266.57000732421875,217.05883026123047 " id="svg_235"/>
   <polygon class="cls-14" points="275.2500305175781,217.38884735107422 275.2500305175781,211.5388412475586 284.6199951171875,206.11885833740234 284.6199951171875,211.96883392333984 275.2500305175781,217.38884735107422 " id="svg_236"/>
   <polygon class="cls-15" points="275.2500305175781,217.38884735107422 275.2500305175781,211.5388412475586 264.3000183105469,205.20885467529297 264.3000183105469,211.05883026123047 275.2500305175781,217.38884735107422 " id="svg_237"/>
   <polygon class="cls-16" points="264.3000183105469,205.20885467529297 275.2500305175781,211.5388412475586 284.6199951171875,206.11885833740234 273.67999267578125,199.7888412475586 264.3000183105469,205.20885467529297 " id="svg_238"/>
   <polygon class="cls-7" points="266.6500244140625,207.57884979248047 266.6500244140625,210.2988510131836 264.7699890136719,209.21883392333984 264.7699890136719,206.49883270263672 266.6500244140625,207.57884979248047 " id="svg_239"/>
   <polygon class="cls-11" points="274.5099792480469,212.14885711669922 274.5099792480469,215.38884735107422 269.719970703125,212.62883758544922 269.719970703125,209.36885833740234 274.5099792480469,212.14885711669922 " id="svg_240"/>
   <polygon class="cls-7" points="273.9300231933594,213.13884735107422 273.9300231933594,212.34883880615234 270.1600036621094,210.1788558959961 270.1600036621094,210.94884490966797 273.9300231933594,213.13884735107422 " id="svg_241"/>
   <polygon class="cls-7" points="282.2500305175781,210.55883026123047 279.02001953125,212.43883514404297 279.02001953125,209.35884857177734 282.2500305175781,207.47884368896484 282.2500305175781,210.55883026123047 " id="svg_242"/>
   <polygon class="cls-17" points="282.2500305175781,207.47884368896484 271.32000732421875,201.1588363647461 268.08001708984375,203.0288314819336 279.02001953125,209.35884857177734 282.2500305175781,207.47884368896484 " id="svg_243"/>
   <path class="cls-21" d="m347.420001,252.058844c0,1.33 -1.37,2.41 -3.06,2.41s-3.06,-1.08 -3.06,-2.41s1.37,-2.42 3.06,-2.42s3.06,1.08 3.06,2.42z" id="svg_244"/>
   <path class="cls-21" d="m326.540001,239.878844c0,1.33 -1.37,2.41 -3.06,2.41s-3.06,-1.08 -3.06,-2.41s1.37,-2.41 3.06,-2.41s3.06,1.08 3.06,2.41z" id="svg_245"/>
   <rect class="cls-7" x="362.380001" y="193.218844" width="1.11" height="36.46" id="svg_246"/>
   <rect class="cls-21" x="358.390001" y="188.878844" width="3.99" height="39.06" id="svg_247"/>
   <polygon class="cls-7" points="375.97998046875,234.75884246826172 347.54998779296875,251.1588363647461 347.54998779296875,254.47884368896484 375.97998046875,238.05883026123047 375.97998046875,234.75884246826172 " id="svg_248"/>
   <polygon class="cls-21" points="347.54998779296875,251.1588363647461 319.1199951171875,234.75884246826172 319.1199951171875,238.05883026123047 347.54998779296875,254.47884368896484 347.54998779296875,251.1588363647461 " id="svg_249"/>
   <polygon class="cls-17" points="319.1199951171875,234.75884246826172 347.54998779296875,251.18883514404297 375.97998046875,234.75884246826172 347.55999755859375,218.32884979248047 319.1199951171875,234.75884246826172 " id="svg_250"/>
   <polygon class="cls-21" points="367.90997314453125,189.25884246826172 367.90997314453125,197.30883026123047 352.969970703125,188.6688461303711 352.969970703125,180.61885833740234 367.90997314453125,189.25884246826172 " id="svg_251"/>
   <polygon class="cls-11" points="364.1099853515625,188.46883392333984 364.1099853515625,193.74883270263672 354.0899658203125,187.96883392333984 354.0899658203125,182.6788558959961 364.1099853515625,188.46883392333984 " id="svg_252"/>
   <polygon class="cls-7" points="369.510009765625,188.34883880615234 367.90997314453125,189.25884246826172 367.90997314453125,197.30883026123047 369.510009765625,196.37883758544922 369.510009765625,188.34883880615234 " id="svg_253"/>
   <polygon class="cls-11" points="365.19000244140625,193.25884246826172 365.19000244140625,194.37883758544922 367.20001220703125,195.5288314819336 367.20001220703125,194.4188461303711 365.19000244140625,193.25884246826172 " id="svg_254"/>
   <polygon class="cls-11" points="365.19000244140625,191.18883514404297 365.19000244140625,192.30883026123047 367.20001220703125,193.45885467529297 367.20001220703125,192.34883880615234 365.19000244140625,191.18883514404297 " id="svg_255"/>
   <polygon class="cls-11" points="365.19000244140625,189.10884857177734 365.19000244140625,190.22884368896484 367.20001220703125,191.37883758544922 367.20001220703125,190.26885223388672 365.19000244140625,189.10884857177734 " id="svg_256"/>
   <polygon class="cls-24" points="352.969970703125,180.61885833740234 354.57000732421875,179.71883392333984 369.510009765625,188.34883880615234 367.90997314453125,189.25884246826172 352.969970703125,180.61885833740234 " id="svg_257"/>
   <polygon class="cls-21" points="354.8299560546875,183.81884002685547 354.8299560546875,185.0288314819336 363.0899658203125,189.7988510131836 363.0899658203125,188.58882904052734 354.8299560546875,183.81884002685547 " id="svg_258"/>
   <polygon class="cls-14" points="347.55999755859375,245.4088363647461 347.54998779296875,223.44884490966797 365.0899658203125,213.30883026123047 365.0899658203125,235.23885345458984 347.55999755859375,245.4088363647461 " id="svg_259"/>
   <polygon class="cls-15" points="347.55999755859375,245.4088363647461 347.54998779296875,223.44884490966797 330.010009765625,213.30883026123047 330.010009765625,235.23885345458984 347.55999755859375,245.4088363647461 " id="svg_260"/>
   <polygon class="cls-16" points="330.010009765625,213.30883026123047 347.54998779296875,223.44884490966797 365.0899658203125,213.30883026123047 347.55999755859375,203.1688461303711 330.010009765625,213.30883026123047 " id="svg_261"/>
   <polygon class="cls-7" points="358.57000732421875,223.46883392333984 354.65997314453125,225.73885345458984 354.65997314453125,219.32884979248047 358.57000732421875,217.05883026123047 358.57000732421875,223.46883392333984 " id="svg_262"/>
   <polygon class="cls-17" points="358.57000732421875,217.05883026123047 341.04998779296875,206.9288558959961 337.1300048828125,209.18883514404297 354.65997314453125,219.33882904052734 358.57000732421875,217.05883026123047 " id="svg_263"/>
   <polygon class="cls-7" points="361.04998779296875,232.0288314819336 361.04998779296875,235.93883514404297 363.8699951171875,234.30883026123047 363.8699951171875,230.39885711669922 361.04998779296875,232.0288314819336 " id="svg_264"/>
   <polygon class="cls-7" points="333.8599853515625,231.61885833740234 333.8599853515625,235.69884490966797 331.04998779296875,234.06884002685547 331.04998779296875,229.98885345458984 333.8599853515625,231.61885833740234 " id="svg_265"/>
   <polygon class="cls-7" points="337.7099609375,233.84883880615234 337.7099609375,237.9288558959961 334.8900146484375,236.2988510131836 334.8900146484375,232.21883392333984 337.7099609375,233.84883880615234 " id="svg_266"/>
   <polygon class="cls-11" points="336.8399658203125,219.68883514404297 336.8399658203125,225.5488510131836 331.04998779296875,222.20885467529297 331.04998779296875,216.33882904052734 336.8399658203125,219.68883514404297 " id="svg_267"/>
   <polygon class="cls-7" points="336.1300048828125,220.88884735107422 336.1300048828125,219.9288558959961 331.57000732421875,217.30883026123047 331.57000732421875,218.24883270263672 336.1300048828125,220.88884735107422 " id="svg_268"/>
  </g>
 </g>
</svg>